G04 #@! TF.GenerationSoftware,KiCad,Pcbnew,(6.0.1-0)*
G04 #@! TF.CreationDate,2022-02-27T00:26:46+08:00*
G04 #@! TF.ProjectId,nut-kb,6e75742d-6b62-42e6-9b69-6361645f7063,rev?*
G04 #@! TF.SameCoordinates,Original*
G04 #@! TF.FileFunction,Soldermask,Bot*
G04 #@! TF.FilePolarity,Negative*
%FSLAX46Y46*%
G04 Gerber Fmt 4.6, Leading zero omitted, Abs format (unit mm)*
G04 Created by KiCad (PCBNEW (6.0.1-0)) date 2022-02-27 00:26:46*
%MOMM*%
%LPD*%
G01*
G04 APERTURE LIST*
G04 Aperture macros list*
%AMRoundRect*
0 Rectangle with rounded corners*
0 $1 Rounding radius*
0 $2 $3 $4 $5 $6 $7 $8 $9 X,Y pos of 4 corners*
0 Add a 4 corners polygon primitive as box body*
4,1,4,$2,$3,$4,$5,$6,$7,$8,$9,$2,$3,0*
0 Add four circle primitives for the rounded corners*
1,1,$1+$1,$2,$3*
1,1,$1+$1,$4,$5*
1,1,$1+$1,$6,$7*
1,1,$1+$1,$8,$9*
0 Add four rect primitives between the rounded corners*
20,1,$1+$1,$2,$3,$4,$5,0*
20,1,$1+$1,$4,$5,$6,$7,0*
20,1,$1+$1,$6,$7,$8,$9,0*
20,1,$1+$1,$8,$9,$2,$3,0*%
%AMRotRect*
0 Rectangle, with rotation*
0 The origin of the aperture is its center*
0 $1 length*
0 $2 width*
0 $3 Rotation angle, in degrees counterclockwise*
0 Add horizontal line*
21,1,$1,$2,0,0,$3*%
G04 Aperture macros list end*
%ADD10C,1.701800*%
%ADD11C,0.990600*%
%ADD12C,3.429000*%
%ADD13C,2.032000*%
%ADD14RoundRect,0.250000X0.625000X-0.350000X0.625000X0.350000X-0.625000X0.350000X-0.625000X-0.350000X0*%
%ADD15O,1.750000X1.200000*%
%ADD16R,1.600000X1.600000*%
%ADD17O,1.600000X1.600000*%
%ADD18C,1.524000*%
%ADD19R,1.700000X1.700000*%
%ADD20O,1.700000X1.700000*%
%ADD21C,2.000000*%
%ADD22R,1.200000X0.900000*%
%ADD23RotRect,0.900000X1.200000X60.000000*%
G04 APERTURE END LIST*
D10*
X167463140Y-228250000D03*
D11*
X169320653Y-224472693D03*
D12*
X162700000Y-225500000D03*
D11*
X160279347Y-219252693D03*
D10*
X157936860Y-222750000D03*
D13*
X159750000Y-230609550D03*
X165130127Y-231290897D03*
X156469873Y-226290897D03*
X139918873Y-216790897D03*
X148579127Y-221790897D03*
X143199000Y-221109550D03*
D11*
X152769653Y-214972693D03*
D12*
X146149000Y-216000000D03*
D10*
X150912140Y-218750000D03*
X141385860Y-213250000D03*
D11*
X143728347Y-209752693D03*
D10*
X115960000Y-166500000D03*
X126960000Y-166500000D03*
D11*
X126680000Y-162300000D03*
D12*
X121460000Y-166500000D03*
D11*
X116240000Y-162300000D03*
D13*
X121460000Y-172400000D03*
X116460000Y-170300000D03*
X126460000Y-170300000D03*
D11*
X40240000Y-149300000D03*
D10*
X50960000Y-153500000D03*
D12*
X45460000Y-153500000D03*
D11*
X50680000Y-149300000D03*
D10*
X39960000Y-153500000D03*
D13*
X45460000Y-159400000D03*
X40460000Y-157300000D03*
X50460000Y-157300000D03*
D11*
X59240000Y-185300000D03*
X69680000Y-185300000D03*
D12*
X64460000Y-189500000D03*
D10*
X69960000Y-189500000D03*
X58960000Y-189500000D03*
D13*
X64460000Y-195400000D03*
X59460000Y-193300000D03*
X69460000Y-193300000D03*
D11*
X59240000Y-149300000D03*
D12*
X64460000Y-153500000D03*
D10*
X58960000Y-153500000D03*
D11*
X69680000Y-149300000D03*
D10*
X69960000Y-153500000D03*
D13*
X64460000Y-159400000D03*
X59460000Y-157300000D03*
X69460000Y-157300000D03*
D10*
X107960000Y-146500000D03*
D11*
X97240000Y-142300000D03*
X107680000Y-142300000D03*
D12*
X102460000Y-146500000D03*
D10*
X96960000Y-146500000D03*
D13*
X102460000Y-152400000D03*
X107460000Y-150300000D03*
X97460000Y-150300000D03*
D12*
X121460000Y-130500000D03*
D10*
X126960000Y-130500000D03*
D11*
X116240000Y-126300000D03*
X126680000Y-126300000D03*
D10*
X115960000Y-130500000D03*
D13*
X121460000Y-136400000D03*
X116460000Y-134300000D03*
X126460000Y-134300000D03*
D12*
X45460000Y-135500000D03*
D11*
X50680000Y-131300000D03*
D10*
X39960000Y-135500000D03*
X50960000Y-135500000D03*
D11*
X40240000Y-131300000D03*
D13*
X45460000Y-141400000D03*
X40460000Y-139300000D03*
X50460000Y-139300000D03*
D11*
X78240000Y-198300000D03*
D12*
X83460000Y-202500000D03*
D11*
X88680000Y-198300000D03*
D10*
X88960000Y-202500000D03*
X77960000Y-202500000D03*
D13*
X83460000Y-208400000D03*
X78460000Y-206300000D03*
X88460000Y-206300000D03*
D12*
X102460000Y-182500000D03*
D11*
X97240000Y-178300000D03*
D10*
X96960000Y-182500000D03*
X107960000Y-182500000D03*
D11*
X107680000Y-178300000D03*
D13*
X102460000Y-188400000D03*
X107460000Y-186300000D03*
X97460000Y-186300000D03*
D11*
X126680000Y-198300000D03*
D10*
X126960000Y-202500000D03*
X115960000Y-202500000D03*
D12*
X121460000Y-202500000D03*
D11*
X116240000Y-198300000D03*
D13*
X121460000Y-208400000D03*
X126460000Y-206300000D03*
X116460000Y-206300000D03*
D10*
X164960000Y-169500000D03*
D11*
X164680000Y-165300000D03*
D12*
X159460000Y-169500000D03*
D10*
X153960000Y-169500000D03*
D11*
X154240000Y-165300000D03*
D13*
X159460000Y-175400000D03*
X164460000Y-173300000D03*
X154460000Y-173300000D03*
D11*
X154240000Y-129300000D03*
D10*
X164960000Y-133500000D03*
D11*
X164680000Y-129300000D03*
D12*
X159460000Y-133500000D03*
D10*
X153960000Y-133500000D03*
D13*
X159460000Y-139400000D03*
X154460000Y-137300000D03*
X164460000Y-137300000D03*
D11*
X69680000Y-167300000D03*
D10*
X58960000Y-171500000D03*
D12*
X64460000Y-171500000D03*
D11*
X59240000Y-167300000D03*
D10*
X69960000Y-171500000D03*
D13*
X64460000Y-177400000D03*
X59460000Y-175300000D03*
X69460000Y-175300000D03*
D10*
X58960000Y-135500000D03*
D12*
X64460000Y-135500000D03*
D10*
X69960000Y-135500000D03*
D11*
X59240000Y-131300000D03*
X69680000Y-131300000D03*
D13*
X64460000Y-141400000D03*
X69460000Y-139300000D03*
X59460000Y-139300000D03*
D10*
X96960000Y-128500000D03*
X107960000Y-128500000D03*
D11*
X97240000Y-124300000D03*
X107680000Y-124300000D03*
D12*
X102460000Y-128500000D03*
D13*
X102460000Y-134400000D03*
X97460000Y-132300000D03*
X107460000Y-132300000D03*
D10*
X77960000Y-184500000D03*
D12*
X83460000Y-184500000D03*
D11*
X78240000Y-180300000D03*
X88680000Y-180300000D03*
D10*
X88960000Y-184500000D03*
D13*
X83460000Y-190400000D03*
X78460000Y-188300000D03*
X88460000Y-188300000D03*
D12*
X102460000Y-164500000D03*
D11*
X97240000Y-160300000D03*
X107680000Y-160300000D03*
D10*
X96960000Y-164500000D03*
X107960000Y-164500000D03*
D13*
X102460000Y-170400000D03*
X107460000Y-168300000D03*
X97460000Y-168300000D03*
D14*
X182000000Y-197000000D03*
D15*
X182000000Y-195000000D03*
X182000000Y-193000000D03*
D12*
X121460000Y-184500000D03*
D10*
X115960000Y-184500000D03*
X126960000Y-184500000D03*
D11*
X126680000Y-180300000D03*
X116240000Y-180300000D03*
D13*
X121460000Y-190400000D03*
X126460000Y-188300000D03*
X116460000Y-188300000D03*
D12*
X83460000Y-130500000D03*
D10*
X77960000Y-130500000D03*
D11*
X88680000Y-126300000D03*
D10*
X88960000Y-130500000D03*
D11*
X78240000Y-126300000D03*
D13*
X83460000Y-136400000D03*
X78460000Y-134300000D03*
X88460000Y-134300000D03*
D10*
X134960000Y-151500000D03*
D11*
X145680000Y-147300000D03*
X135240000Y-147300000D03*
D12*
X140460000Y-151500000D03*
D10*
X145960000Y-151500000D03*
D13*
X140460000Y-157400000D03*
X135460000Y-155300000D03*
X145460000Y-155300000D03*
D10*
X134960000Y-187500000D03*
X145960000Y-187500000D03*
D11*
X145680000Y-183300000D03*
D12*
X140460000Y-187500000D03*
D11*
X135240000Y-183300000D03*
D13*
X140460000Y-193400000D03*
X135460000Y-191300000D03*
X145460000Y-191300000D03*
D10*
X164960000Y-187500000D03*
X153960000Y-187500000D03*
D11*
X164680000Y-183300000D03*
X154240000Y-183300000D03*
D12*
X159460000Y-187500000D03*
D13*
X159460000Y-193400000D03*
X164460000Y-191300000D03*
X154460000Y-191300000D03*
D10*
X50960000Y-207500000D03*
D11*
X40240000Y-203300000D03*
D10*
X39960000Y-207500000D03*
D11*
X50680000Y-203300000D03*
D12*
X45460000Y-207500000D03*
D13*
X45460000Y-213400000D03*
X40460000Y-211300000D03*
X50460000Y-211300000D03*
D12*
X83460000Y-166500000D03*
D11*
X88680000Y-162300000D03*
D10*
X88960000Y-166500000D03*
X77960000Y-166500000D03*
D11*
X78240000Y-162300000D03*
D13*
X83460000Y-172400000D03*
X78460000Y-170300000D03*
X88460000Y-170300000D03*
D11*
X78240000Y-144300000D03*
D10*
X77960000Y-148500000D03*
D12*
X83460000Y-148500000D03*
D11*
X88680000Y-144300000D03*
D10*
X88960000Y-148500000D03*
D13*
X83460000Y-154400000D03*
X78460000Y-152300000D03*
X88460000Y-152300000D03*
D16*
X188400000Y-189700000D03*
D17*
X188400000Y-197320000D03*
D11*
X164680000Y-147300000D03*
D10*
X164960000Y-151500000D03*
D11*
X154240000Y-147300000D03*
D10*
X153960000Y-151500000D03*
D12*
X159460000Y-151500000D03*
D13*
X159460000Y-157400000D03*
X154460000Y-155300000D03*
X164460000Y-155300000D03*
D18*
X187810000Y-153692000D03*
X173896400Y-152422000D03*
X187810000Y-156232000D03*
X173896400Y-154962000D03*
X173896400Y-157502000D03*
X187810000Y-158772000D03*
X187810000Y-161312000D03*
X173896400Y-160042000D03*
X187810000Y-163852000D03*
X173896400Y-162582000D03*
X187810000Y-166392000D03*
X173896400Y-165122000D03*
X173896400Y-167662000D03*
X187810000Y-168932000D03*
X173896400Y-170202000D03*
X187810000Y-171472000D03*
X187810000Y-174012000D03*
X173896400Y-172742000D03*
X187810000Y-176552000D03*
X173896400Y-175282000D03*
X187810000Y-179092000D03*
X173896400Y-177822000D03*
X173896400Y-180362000D03*
X187810000Y-181632000D03*
X172570000Y-181632000D03*
X189116400Y-180362000D03*
X172570000Y-179092000D03*
X189116400Y-177822000D03*
X189116400Y-175282000D03*
X172570000Y-176552000D03*
X189116400Y-172742000D03*
X172570000Y-174012000D03*
X172570000Y-171472000D03*
X189116400Y-170202000D03*
X189116400Y-167662000D03*
X172570000Y-168932000D03*
X189116400Y-165122000D03*
X172570000Y-166392000D03*
X172570000Y-163852000D03*
X189116400Y-162582000D03*
X172570000Y-161312000D03*
X189116400Y-160042000D03*
X172570000Y-158772000D03*
X189116400Y-157502000D03*
X189116400Y-154962000D03*
X172570000Y-156232000D03*
X189116400Y-152422000D03*
X172570000Y-153692000D03*
D10*
X96960000Y-200500000D03*
D11*
X97240000Y-196300000D03*
D10*
X107960000Y-200500000D03*
D12*
X102460000Y-200500000D03*
D11*
X107680000Y-196300000D03*
D13*
X102460000Y-206400000D03*
X97460000Y-204300000D03*
X107460000Y-204300000D03*
D19*
X172700000Y-183700000D03*
D20*
X175240000Y-183700000D03*
X177780000Y-183700000D03*
X180320000Y-183700000D03*
X182860000Y-183700000D03*
X185400000Y-183700000D03*
X187940000Y-183700000D03*
X190480000Y-183700000D03*
D11*
X126680000Y-144300000D03*
D12*
X121460000Y-148500000D03*
D10*
X126960000Y-148500000D03*
D11*
X116240000Y-144300000D03*
D10*
X115960000Y-148500000D03*
D13*
X121460000Y-154400000D03*
X116460000Y-152300000D03*
X126460000Y-152300000D03*
D12*
X140460000Y-169500000D03*
D11*
X135240000Y-165300000D03*
D10*
X145960000Y-169500000D03*
D11*
X145680000Y-165300000D03*
D10*
X134960000Y-169500000D03*
D13*
X140460000Y-175400000D03*
X145460000Y-173300000D03*
X135460000Y-173300000D03*
D21*
X177000000Y-192100000D03*
X177000000Y-198600000D03*
X172500000Y-192100000D03*
X172500000Y-198600000D03*
D10*
X50960000Y-171500000D03*
D12*
X45460000Y-171500000D03*
D10*
X39960000Y-171500000D03*
D11*
X40240000Y-167300000D03*
X50680000Y-167300000D03*
D13*
X45460000Y-177400000D03*
X50460000Y-175300000D03*
X40460000Y-175300000D03*
D12*
X64460000Y-207500000D03*
D10*
X69960000Y-207500000D03*
X58960000Y-207500000D03*
D11*
X59240000Y-203300000D03*
X69680000Y-203300000D03*
D13*
X64460000Y-213400000D03*
X59460000Y-211300000D03*
X69460000Y-211300000D03*
D10*
X134960000Y-133500000D03*
D11*
X135240000Y-129300000D03*
D10*
X145960000Y-133500000D03*
D11*
X145680000Y-129300000D03*
D12*
X140460000Y-133500000D03*
D13*
X140460000Y-139400000D03*
X135460000Y-137300000D03*
X145460000Y-137300000D03*
D10*
X50960000Y-189500000D03*
D12*
X45460000Y-189500000D03*
D11*
X40240000Y-185300000D03*
D10*
X39960000Y-189500000D03*
D11*
X50680000Y-185300000D03*
D13*
X45460000Y-195400000D03*
X40460000Y-193300000D03*
X50460000Y-193300000D03*
D22*
X149649000Y-140560000D03*
X149649000Y-137260000D03*
X149549000Y-176660000D03*
X149549000Y-173360000D03*
X54549000Y-196710000D03*
X54549000Y-193410000D03*
X54549000Y-214660000D03*
X54549000Y-211360000D03*
X111549000Y-207660000D03*
X111549000Y-204360000D03*
X130549000Y-191660000D03*
X130549000Y-188360000D03*
X73549000Y-214660000D03*
X73549000Y-211360000D03*
X168649000Y-137260000D03*
X168649000Y-140560000D03*
X73549000Y-142560000D03*
X73549000Y-139260000D03*
D19*
X189200000Y-185600000D03*
D20*
X186660000Y-185600000D03*
X184120000Y-185600000D03*
X181580000Y-185600000D03*
X179040000Y-185600000D03*
X176500000Y-185600000D03*
X173960000Y-185600000D03*
X171420000Y-185600000D03*
D22*
X130549000Y-155660000D03*
X130549000Y-152360000D03*
X92549000Y-173660000D03*
X92549000Y-170360000D03*
X149549000Y-194660000D03*
X149549000Y-191360000D03*
X149549000Y-158660000D03*
X149549000Y-155360000D03*
X130649000Y-137560000D03*
X130649000Y-134260000D03*
X73549000Y-196660000D03*
X73549000Y-193360000D03*
X111549000Y-171660000D03*
X111549000Y-168360000D03*
X54549000Y-160660000D03*
X54549000Y-157360000D03*
X130749000Y-209860000D03*
X130749000Y-206560000D03*
X92549000Y-191660000D03*
X92549000Y-188360000D03*
X55200000Y-140050000D03*
X55200000Y-136750000D03*
X73749000Y-160660000D03*
X73749000Y-157360000D03*
D23*
X150375000Y-225728942D03*
X152025000Y-222871058D03*
X135375000Y-216328942D03*
X137025000Y-213471058D03*
D22*
X92549000Y-137560000D03*
X92549000Y-134260000D03*
X54549000Y-178660000D03*
X54549000Y-175360000D03*
X111649000Y-135560000D03*
X111649000Y-132260000D03*
X73549000Y-178660000D03*
X73549000Y-175360000D03*
X130549000Y-173660000D03*
X130549000Y-170360000D03*
X168549000Y-176660000D03*
X168549000Y-173360000D03*
X168549000Y-194660000D03*
X168549000Y-191360000D03*
X168549000Y-158660000D03*
X168549000Y-155360000D03*
X111549000Y-189660000D03*
X111549000Y-186360000D03*
X92549000Y-155660000D03*
X92549000Y-152360000D03*
X92549000Y-209710000D03*
X92549000Y-206410000D03*
X111549000Y-153660000D03*
X111549000Y-150360000D03*
M02*
