G04 #@! TF.GenerationSoftware,KiCad,Pcbnew,(6.0.1-0)*
G04 #@! TF.CreationDate,2022-02-27T00:26:46+08:00*
G04 #@! TF.ProjectId,nut-kb,6e75742d-6b62-42e6-9b69-6361645f7063,rev?*
G04 #@! TF.SameCoordinates,Original*
G04 #@! TF.FileFunction,Profile,NP*
%FSLAX46Y46*%
G04 Gerber Fmt 4.6, Leading zero omitted, Abs format (unit mm)*
G04 Created by KiCad (PCBNEW (6.0.1-0)) date 2022-02-27 00:26:46*
%MOMM*%
%LPD*%
G01*
G04 APERTURE LIST*
G04 #@! TA.AperFunction,Profile*
%ADD10C,0.100000*%
G04 #@! TD*
G04 #@! TA.AperFunction,Profile*
%ADD11C,0.150000*%
G04 #@! TD*
G04 APERTURE END LIST*
D10*
X174000000Y-201000000D02*
G75*
G03*
X173000000Y-202000000I-1J-999999D01*
G01*
X130000000Y-124000000D02*
G75*
G03*
X131000000Y-125000000I999999J-1D01*
G01*
X130000000Y-123000000D02*
G75*
G03*
X129000000Y-122000000I-999999J1D01*
G01*
X111000000Y-121000000D02*
G75*
G03*
X112000000Y-122000000I999999J-1D01*
G01*
X111000000Y-121000000D02*
G75*
G03*
X110000000Y-120000000I-999999J1D01*
G01*
X95000000Y-120000000D02*
G75*
G03*
X94000000Y-121000000I-1J-999999D01*
G01*
X93000000Y-122000000D02*
G75*
G03*
X94000000Y-121000000I1J999999D01*
G01*
X76000000Y-122000000D02*
G75*
G03*
X75000000Y-123000000I-1J-999999D01*
G01*
X74000000Y-127000000D02*
G75*
G03*
X75000000Y-126000000I1J999999D01*
G01*
X38000000Y-127000000D02*
G75*
G03*
X37000000Y-128000000I-1J-999999D01*
G01*
X37000000Y-215000000D02*
G75*
G03*
X38000000Y-216000000I999999J-1D01*
G01*
X76000000Y-216000000D02*
G75*
G03*
X77000000Y-215000000I1J999999D01*
G01*
X78000000Y-212000000D02*
G75*
G03*
X77000000Y-213000000I-1J-999999D01*
G01*
X193000000Y-201000000D02*
G75*
G03*
X194000000Y-200000000I1J999999D01*
G01*
X174000000Y-201000000D02*
X193000000Y-201000000D01*
X173000000Y-223000000D02*
X173000000Y-202000000D01*
X165000000Y-237000000D02*
X173000000Y-223000000D01*
X194000000Y-149000000D02*
G75*
G03*
X193000000Y-148000000I-999999J1D01*
G01*
X171000000Y-147000000D02*
G75*
G03*
X172000000Y-148000000I999999J-1D01*
G01*
X171000000Y-126000000D02*
G75*
G03*
X170000000Y-125000000I-1000000J0D01*
G01*
X170000000Y-125000000D02*
X168000000Y-125000000D01*
X171000000Y-147000000D02*
X171000000Y-126000000D01*
X193000000Y-148000000D02*
X172000000Y-148000000D01*
X37000000Y-215000000D02*
X37000000Y-128000000D01*
X76000000Y-216000000D02*
X38000000Y-216000000D01*
X77000000Y-213000000D02*
X77000000Y-215000000D01*
X129000000Y-212000000D02*
X78000000Y-212000000D01*
X135000000Y-220000000D02*
X129000000Y-212000000D01*
X165000000Y-237000000D02*
X135000000Y-220000000D01*
X194000000Y-149000000D02*
X194000000Y-200000000D01*
X131000000Y-125000000D02*
X168000000Y-125000000D01*
X130000000Y-123000000D02*
X130000000Y-124000000D01*
X112000000Y-122000000D02*
X129000000Y-122000000D01*
X95000000Y-120000000D02*
X110000000Y-120000000D01*
X76000000Y-122000000D02*
X93000000Y-122000000D01*
X75000000Y-126000000D02*
X75000000Y-123000000D01*
X38000000Y-127000000D02*
X74000000Y-127000000D01*
D11*
X176400000Y-190000000D02*
G75*
G03*
X176700000Y-189700000I0J300000D01*
G01*
X173000000Y-188512000D02*
G75*
G03*
X172700000Y-188812000I0J-300000D01*
G01*
X176700000Y-188812000D02*
X176700000Y-189700000D01*
X172700000Y-189700000D02*
X172700000Y-188812000D01*
X173000000Y-190000000D02*
X176400000Y-190000000D01*
X173000000Y-188512000D02*
X176400000Y-188512000D01*
X172700000Y-189700000D02*
G75*
G03*
X173000000Y-190000000I300000J0D01*
G01*
X176700000Y-188812000D02*
G75*
G03*
X176400000Y-188512000I-300000J0D01*
G01*
M02*
