M48
; DRILL file {KiCad (6.0.1-0)} date 2022 February 27, Sunday 00:40:10
; FORMAT={-:-/ absolute / metric / decimal}
; #@! TF.CreationDate,2022-02-27T00:40:10+08:00
; #@! TF.GenerationSoftware,Kicad,Pcbnew,(6.0.1-0)
; #@! TF.FileFunction,NonPlated,1,2,NPTH
FMAT,2
METRIC
; #@! TA.AperFunction,NonPlated,NPTH,ComponentDrill
T1C0.991
; #@! TA.AperFunction,NonPlated,NPTH,ComponentDrill
T2C1.702
; #@! TA.AperFunction,NonPlated,NPTH,ComponentDrill
T3C3.429
%
G90
G05
T1
X40.24Y-131.3
X40.24Y-149.3
X40.24Y-167.3
X40.24Y-185.3
X40.24Y-203.3
X50.68Y-131.3
X50.68Y-149.3
X50.68Y-167.3
X50.68Y-185.3
X50.68Y-203.3
X59.24Y-131.3
X59.24Y-149.3
X59.24Y-167.3
X59.24Y-185.3
X59.24Y-203.3
X69.68Y-131.3
X69.68Y-149.3
X69.68Y-167.3
X69.68Y-185.3
X69.68Y-203.3
X78.24Y-126.3
X78.24Y-144.3
X78.24Y-162.3
X78.24Y-180.3
X78.24Y-198.3
X88.68Y-126.3
X88.68Y-144.3
X88.68Y-162.3
X88.68Y-180.3
X88.68Y-198.3
X97.24Y-124.3
X97.24Y-142.3
X97.24Y-160.3
X97.24Y-178.3
X97.24Y-196.3
X107.68Y-124.3
X107.68Y-142.3
X107.68Y-160.3
X107.68Y-178.3
X107.68Y-196.3
X116.24Y-126.3
X116.24Y-144.3
X116.24Y-162.3
X116.24Y-180.3
X116.24Y-198.3
X126.68Y-126.3
X126.68Y-144.3
X126.68Y-162.3
X126.68Y-180.3
X126.68Y-198.3
X135.24Y-129.3
X135.24Y-147.3
X135.24Y-165.3
X135.24Y-183.3
X143.728Y-209.753
X145.68Y-129.3
X145.68Y-147.3
X145.68Y-165.3
X145.68Y-183.3
X152.77Y-214.973
X154.24Y-129.3
X154.24Y-147.3
X154.24Y-165.3
X154.24Y-183.3
X160.279Y-219.253
X164.68Y-129.3
X164.68Y-147.3
X164.68Y-165.3
X164.68Y-183.3
X169.321Y-224.473
T2
X39.96Y-135.5
X39.96Y-153.5
X39.96Y-171.5
X39.96Y-189.5
X39.96Y-207.5
X50.96Y-135.5
X50.96Y-153.5
X50.96Y-171.5
X50.96Y-189.5
X50.96Y-207.5
X58.96Y-135.5
X58.96Y-153.5
X58.96Y-171.5
X58.96Y-189.5
X58.96Y-207.5
X69.96Y-135.5
X69.96Y-153.5
X69.96Y-171.5
X69.96Y-189.5
X69.96Y-207.5
X77.96Y-130.5
X77.96Y-148.5
X77.96Y-166.5
X77.96Y-184.5
X77.96Y-202.5
X88.96Y-130.5
X88.96Y-148.5
X88.96Y-166.5
X88.96Y-184.5
X88.96Y-202.5
X96.96Y-128.5
X96.96Y-146.5
X96.96Y-164.5
X96.96Y-182.5
X96.96Y-200.5
X107.96Y-128.5
X107.96Y-146.5
X107.96Y-164.5
X107.96Y-182.5
X107.96Y-200.5
X115.96Y-130.5
X115.96Y-148.5
X115.96Y-166.5
X115.96Y-184.5
X115.96Y-202.5
X126.96Y-130.5
X126.96Y-148.5
X126.96Y-166.5
X126.96Y-184.5
X126.96Y-202.5
X134.96Y-133.5
X134.96Y-151.5
X134.96Y-169.5
X134.96Y-187.5
X141.386Y-213.25
X145.96Y-133.5
X145.96Y-151.5
X145.96Y-169.5
X145.96Y-187.5
X150.912Y-218.75
X153.96Y-133.5
X153.96Y-151.5
X153.96Y-169.5
X153.96Y-187.5
X157.937Y-222.75
X164.96Y-133.5
X164.96Y-151.5
X164.96Y-169.5
X164.96Y-187.5
X167.463Y-228.25
T3
X45.46Y-135.5
X45.46Y-153.5
X45.46Y-171.5
X45.46Y-189.5
X45.46Y-207.5
X64.46Y-135.5
X64.46Y-153.5
X64.46Y-171.5
X64.46Y-189.5
X64.46Y-207.5
X83.46Y-130.5
X83.46Y-148.5
X83.46Y-166.5
X83.46Y-184.5
X83.46Y-202.5
X102.46Y-128.5
X102.46Y-146.5
X102.46Y-164.5
X102.46Y-182.5
X102.46Y-200.5
X121.46Y-130.5
X121.46Y-148.5
X121.46Y-166.5
X121.46Y-184.5
X121.46Y-202.5
X140.46Y-133.5
X140.46Y-151.5
X140.46Y-169.5
X140.46Y-187.5
X146.149Y-216.0
X159.46Y-133.5
X159.46Y-151.5
X159.46Y-169.5
X159.46Y-187.5
X162.7Y-225.5
T0
M30
