%TF.GenerationSoftware,KiCad,Pcbnew,(6.0.1-0)*%
%TF.CreationDate,2022-02-08T23:28:17+08:00*%
%TF.ProjectId,nut-kb,6e75742d-6b62-42e6-9b69-6361645f7063,rev?*%
%TF.SameCoordinates,Original*%
%TF.FileFunction,Copper,L1,Top*%
%TF.FilePolarity,Positive*%
%FSLAX46Y46*%
G04 Gerber Fmt 4.6, Leading zero omitted, Abs format (unit mm)*
G04 Created by KiCad (PCBNEW (6.0.1-0)) date 2022-02-08 23:28:17*
%MOMM*%
%LPD*%
G01*
G04 APERTURE LIST*
G04 Aperture macros list*
%AMRoundRect*
0 Rectangle with rounded corners*
0 $1 Rounding radius*
0 $2 $3 $4 $5 $6 $7 $8 $9 X,Y pos of 4 corners*
0 Add a 4 corners polygon primitive as box body*
4,1,4,$2,$3,$4,$5,$6,$7,$8,$9,$2,$3,0*
0 Add four circle primitives for the rounded corners*
1,1,$1+$1,$2,$3*
1,1,$1+$1,$4,$5*
1,1,$1+$1,$6,$7*
1,1,$1+$1,$8,$9*
0 Add four rect primitives between the rounded corners*
20,1,$1+$1,$2,$3,$4,$5,0*
20,1,$1+$1,$4,$5,$6,$7,0*
20,1,$1+$1,$6,$7,$8,$9,0*
20,1,$1+$1,$8,$9,$2,$3,0*%
G04 Aperture macros list end*
%TA.AperFunction,ComponentPad*%
%ADD10C,0.800000*%
%TD*%
%TA.AperFunction,ComponentPad*%
%ADD11C,4.000000*%
%TD*%
%TA.AperFunction,ComponentPad*%
%ADD12C,1.752600*%
%TD*%
%TA.AperFunction,ComponentPad*%
%ADD13O,1.200000X1.750000*%
%TD*%
%TA.AperFunction,ComponentPad*%
%ADD14RoundRect,0.250000X-0.350000X-0.625000X0.350000X-0.625000X0.350000X0.625000X-0.350000X0.625000X0*%
%TD*%
%TA.AperFunction,ComponentPad*%
%ADD15O,1.600000X1.600000*%
%TD*%
%TA.AperFunction,ComponentPad*%
%ADD16R,1.600000X1.600000*%
%TD*%
%TA.AperFunction,ComponentPad*%
%ADD17O,1.700000X1.700000*%
%TD*%
%TA.AperFunction,ComponentPad*%
%ADD18R,1.700000X1.700000*%
%TD*%
%TA.AperFunction,ViaPad*%
%ADD19C,0.800000*%
%TD*%
%TA.AperFunction,Conductor*%
%ADD20C,0.254000*%
%TD*%
%TA.AperFunction,Conductor*%
%ADD21C,0.381000*%
%TD*%
G04 APERTURE END LIST*
D10*
%TO.P,MX28,1,COL*%
%TO.N,COL3*%
X73660000Y-98234500D03*
X73660000Y-96710500D03*
D11*
X78740000Y-97472500D03*
%TO.P,MX28,2,ROW*%
%TO.N,Net-(D28-Pad2)*%
X85090000Y-94932500D03*
D10*
X90170000Y-95694500D03*
X90170000Y-94170500D03*
%TD*%
D11*
%TO.P,MX23,2,ROW*%
%TO.N,Net-(D23-Pad2)*%
X104140000Y-78263750D03*
D10*
X109220000Y-77501750D03*
X109220000Y-79025750D03*
%TO.P,MX23,1,COL*%
%TO.N,COL4*%
X92710000Y-81565750D03*
D11*
X97790000Y-80803750D03*
D10*
X92710000Y-80041750D03*
%TD*%
D12*
%TO.P,U1,24,BATIN/P0.04*%
%TO.N,+BATT*%
X155424500Y-39788000D03*
%TO.P,U1,23,GND*%
%TO.N,GND*%
X155424500Y-42328000D03*
%TO.P,U1,22,RST*%
%TO.N,RESET*%
X155424500Y-44868000D03*
%TO.P,U1,21,VCC*%
%TO.N,+3V3*%
X155424500Y-47408000D03*
%TO.P,U1,20,AIN7/P0.31*%
%TO.N,ROW4*%
X155424500Y-49948000D03*
%TO.P,U1,19,AIN5/P0.29*%
%TO.N,unconnected-(U1-Pad19)*%
X155424500Y-52488000D03*
%TO.P,U1,18,AIN0/P0.02*%
%TO.N,CS*%
X155424500Y-55028000D03*
%TO.P,U1,17,P1.15*%
%TO.N,DC*%
X155424500Y-57568000D03*
%TO.P,U1,16,P1.13*%
%TO.N,CLK*%
X155424500Y-60108000D03*
%TO.P,U1,15,P1.11*%
%TO.N,DIN*%
X155424500Y-62648000D03*
%TO.P,U1,14,NFC2/P0.10*%
%TO.N,RST*%
X155424500Y-65188000D03*
%TO.P,U1,13,NFC1/P0.09*%
%TO.N,BUSY*%
X155424500Y-67728000D03*
%TO.P,U1,12,P1.06*%
%TO.N,ROW3*%
X140184500Y-67728000D03*
%TO.P,U1,11,P1.04*%
%TO.N,ROW2*%
X140184500Y-65188000D03*
%TO.P,U1,10,P0.11*%
%TO.N,ROW1*%
X140184500Y-62648000D03*
%TO.P,U1,9,P1.00*%
%TO.N,ROW0*%
X140184500Y-60108000D03*
%TO.P,U1,8,P0.24*%
%TO.N,COL5*%
X140184500Y-57568000D03*
%TO.P,U1,7,P0.22*%
%TO.N,COL4*%
X140184500Y-55028000D03*
%TO.P,U1,6,P0.20*%
%TO.N,COL3*%
X140184500Y-52488000D03*
%TO.P,U1,5,P0.17*%
%TO.N,COL2*%
X140184500Y-49948000D03*
%TO.P,U1,4,GND*%
%TO.N,GND*%
X140184500Y-47408000D03*
%TO.P,U1,3,GND*%
X140184500Y-44868000D03*
%TO.P,U1,2,RX1/P0.08*%
%TO.N,COL1*%
X140184500Y-42328000D03*
%TO.P,U1,1,TX0/P0.06*%
%TO.N,COL0*%
X140184500Y-39788000D03*
%TD*%
D10*
%TO.P,MX26,1,COL*%
%TO.N,COL1*%
X35560000Y-103854250D03*
X35560000Y-105378250D03*
D11*
X40640000Y-104616250D03*
D10*
%TO.P,MX26,2,ROW*%
%TO.N,Net-(D26-Pad2)*%
X52070000Y-102838250D03*
X52070000Y-101314250D03*
D11*
X46990000Y-102076250D03*
%TD*%
D10*
%TO.P,MX1,1,COL*%
%TO.N,COL0*%
X16510000Y-29178250D03*
D11*
X21590000Y-28416250D03*
D10*
X16510000Y-27654250D03*
%TO.P,MX1,2,ROW*%
%TO.N,Net-(D1-Pad2)*%
X33020000Y-26638250D03*
D11*
X27940000Y-25876250D03*
D10*
X33020000Y-25114250D03*
%TD*%
%TO.P,MX16,1,COL*%
%TO.N,COL3*%
X73660000Y-60134500D03*
D11*
X78740000Y-59372500D03*
D10*
X73660000Y-58610500D03*
%TO.P,MX16,2,ROW*%
%TO.N,Net-(D16-Pad2)*%
X90170000Y-56070500D03*
D11*
X85090000Y-56832500D03*
D10*
X90170000Y-57594500D03*
%TD*%
D11*
%TO.P,MX22,1,COL*%
%TO.N,COL3*%
X78740000Y-78422500D03*
D10*
X73660000Y-79184500D03*
X73660000Y-77660500D03*
%TO.P,MX22,2,ROW*%
%TO.N,Net-(D22-Pad2)*%
X90170000Y-76644500D03*
D11*
X85090000Y-75882500D03*
D10*
X90170000Y-75120500D03*
%TD*%
%TO.P,MX25,1,COL*%
%TO.N,COL0*%
X16510000Y-105378250D03*
D11*
X21590000Y-104616250D03*
D10*
X16510000Y-103854250D03*
%TO.P,MX25,2,ROW*%
%TO.N,Net-(D25-Pad2)*%
X33020000Y-102838250D03*
D11*
X27940000Y-102076250D03*
D10*
X33020000Y-101314250D03*
%TD*%
%TO.P,MX3,1,COL*%
%TO.N,COL2*%
X54610000Y-22891750D03*
X54610000Y-24415750D03*
D11*
X59690000Y-23653750D03*
D10*
%TO.P,MX3,2,ROW*%
%TO.N,Net-(D3-Pad2)*%
X71120000Y-20351750D03*
D11*
X66040000Y-21113750D03*
D10*
X71120000Y-21875750D03*
%TD*%
%TO.P,MX2,1,COL*%
%TO.N,COL1*%
X35560000Y-27654250D03*
X35560000Y-29178250D03*
D11*
X40640000Y-28416250D03*
D10*
%TO.P,MX2,2,ROW*%
%TO.N,Net-(D2-Pad2)*%
X52070000Y-25114250D03*
D11*
X46990000Y-25876250D03*
D10*
X52070000Y-26638250D03*
%TD*%
D11*
%TO.P,MX11,1,COL*%
%TO.N,COL4*%
X97790000Y-42703750D03*
D10*
X92710000Y-43465750D03*
X92710000Y-41941750D03*
%TO.P,MX11,2,ROW*%
%TO.N,Net-(D11-Pad2)*%
X109220000Y-40925750D03*
D11*
X104140000Y-40163750D03*
D10*
X109220000Y-39401750D03*
%TD*%
D11*
%TO.P,MX5,1,COL*%
%TO.N,COL4*%
X97790000Y-23653750D03*
D10*
X92710000Y-24415750D03*
X92710000Y-22891750D03*
%TO.P,MX5,2,ROW*%
%TO.N,Net-(D5-Pad2)*%
X109220000Y-21875750D03*
X109220000Y-20351750D03*
D11*
X104140000Y-21113750D03*
%TD*%
D10*
%TO.P,MX21,1,COL*%
%TO.N,COL2*%
X54610000Y-81565750D03*
X54610000Y-80041750D03*
D11*
X59690000Y-80803750D03*
D10*
%TO.P,MX21,2,ROW*%
%TO.N,Net-(D21-Pad2)*%
X71120000Y-77501750D03*
X71120000Y-79025750D03*
D11*
X66040000Y-78263750D03*
%TD*%
D10*
%TO.P,MX7,1,COL*%
%TO.N,COL0*%
X16510000Y-48228250D03*
D11*
X21590000Y-47466250D03*
D10*
X16510000Y-46704250D03*
%TO.P,MX7,2,ROW*%
%TO.N,Net-(D7-Pad2)*%
X33020000Y-45688250D03*
X33020000Y-44164250D03*
D11*
X27940000Y-44926250D03*
%TD*%
D10*
%TO.P,MX20,1,COL*%
%TO.N,COL1*%
X35560000Y-86328250D03*
X35560000Y-84804250D03*
D11*
X40640000Y-85566250D03*
D10*
%TO.P,MX20,2,ROW*%
%TO.N,Net-(D20-Pad2)*%
X52070000Y-83788250D03*
X52070000Y-82264250D03*
D11*
X46990000Y-83026250D03*
%TD*%
D10*
%TO.P,MX4,1,COL*%
%TO.N,COL3*%
X73660000Y-22034500D03*
D11*
X78740000Y-21272500D03*
D10*
X73660000Y-20510500D03*
D11*
%TO.P,MX4,2,ROW*%
%TO.N,Net-(D4-Pad2)*%
X85090000Y-18732500D03*
D10*
X90170000Y-19494500D03*
X90170000Y-17970500D03*
%TD*%
D13*
%TO.P,J1,3,Pin_3*%
%TO.N,GND*%
X149042500Y-79161250D03*
%TO.P,J1,2,Pin_2*%
%TO.N,Net-(J1-Pad2)*%
X147042500Y-79161250D03*
D14*
%TO.P,J1,1,Pin_1*%
%TO.N,GND*%
X145042500Y-79161250D03*
%TD*%
D10*
%TO.P,MX19,1,COL*%
%TO.N,COL0*%
X16510000Y-84804250D03*
D11*
X21590000Y-85566250D03*
D10*
X16510000Y-86328250D03*
D11*
%TO.P,MX19,2,ROW*%
%TO.N,Net-(D19-Pad2)*%
X27940000Y-83026250D03*
D10*
X33020000Y-82264250D03*
X33020000Y-83788250D03*
%TD*%
%TO.P,MX15,1,COL*%
%TO.N,COL2*%
X54610000Y-60991750D03*
X54610000Y-62515750D03*
D11*
X59690000Y-61753750D03*
D10*
%TO.P,MX15,2,ROW*%
%TO.N,Net-(D15-Pad2)*%
X71120000Y-59975750D03*
X71120000Y-58451750D03*
D11*
X66040000Y-59213750D03*
%TD*%
%TO.P,MX8,1,COL*%
%TO.N,COL1*%
X40640000Y-47466250D03*
D10*
X35560000Y-48228250D03*
X35560000Y-46704250D03*
%TO.P,MX8,2,ROW*%
%TO.N,Net-(D8-Pad2)*%
X52070000Y-45688250D03*
X52070000Y-44164250D03*
D11*
X46990000Y-44926250D03*
%TD*%
%TO.P,MX17,1,COL*%
%TO.N,COL4*%
X97790000Y-61753750D03*
D10*
X92710000Y-60991750D03*
X92710000Y-62515750D03*
%TO.P,MX17,2,ROW*%
%TO.N,Net-(D17-Pad2)*%
X109220000Y-58451750D03*
X109220000Y-59975750D03*
D11*
X104140000Y-59213750D03*
%TD*%
D10*
%TO.P,MX10,1,COL*%
%TO.N,COL3*%
X73660000Y-41084500D03*
D11*
X78740000Y-40322500D03*
D10*
X73660000Y-39560500D03*
D11*
%TO.P,MX10,2,ROW*%
%TO.N,Net-(D10-Pad2)*%
X85090000Y-37782500D03*
D10*
X90170000Y-37020500D03*
X90170000Y-38544500D03*
%TD*%
D11*
%TO.P,MX24,1,COL*%
%TO.N,COL5*%
X116840000Y-83185000D03*
D10*
X111760000Y-82423000D03*
X111760000Y-83947000D03*
%TO.P,MX24,2,ROW*%
%TO.N,Net-(D24-Pad2)*%
X128270000Y-79883000D03*
D11*
X123190000Y-80645000D03*
D10*
X128270000Y-81407000D03*
%TD*%
D15*
%TO.P,SW2,2,B*%
%TO.N,Net-(J1-Pad2)*%
X163806500Y-41357250D03*
D16*
%TO.P,SW2,1,A*%
%TO.N,+BATT*%
X163806500Y-33737250D03*
%TD*%
D11*
%TO.P,MX14,1,COL*%
%TO.N,COL1*%
X40640000Y-66516250D03*
D10*
X35560000Y-67278250D03*
X35560000Y-65754250D03*
D11*
%TO.P,MX14,2,ROW*%
%TO.N,Net-(D14-Pad2)*%
X46990000Y-63976250D03*
D10*
X52070000Y-63214250D03*
X52070000Y-64738250D03*
%TD*%
D17*
%TO.P,J2,8,Pin_8*%
%TO.N,BUSY*%
X156582500Y-72320250D03*
%TO.P,J2,7,Pin_7*%
%TO.N,RST*%
X154042500Y-72320250D03*
%TO.P,J2,6,Pin_6*%
%TO.N,DIN*%
X151502500Y-72320250D03*
%TO.P,J2,5,Pin_5*%
%TO.N,CLK*%
X148962500Y-72320250D03*
%TO.P,J2,4,Pin_4*%
%TO.N,+3V3*%
X146422500Y-72320250D03*
%TO.P,J2,3,Pin_3*%
%TO.N,GND*%
X143882500Y-72320250D03*
%TO.P,J2,2,Pin_2*%
%TO.N,DC*%
X141342500Y-72320250D03*
D18*
%TO.P,J2,1,asdf*%
%TO.N,CS*%
X138802500Y-72320250D03*
%TD*%
D10*
%TO.P,MX9,1,COL*%
%TO.N,COL2*%
X54610000Y-41941750D03*
D11*
X59690000Y-42703750D03*
D10*
X54610000Y-43465750D03*
%TO.P,MX9,2,ROW*%
%TO.N,Net-(D9-Pad2)*%
X71120000Y-40925750D03*
X71120000Y-39401750D03*
D11*
X66040000Y-40163750D03*
%TD*%
D16*
%TO.P,SW1,1,1*%
%TO.N,RESET*%
X168495500Y-48850250D03*
D15*
%TO.P,SW1,2,2*%
%TO.N,GND*%
X160875500Y-48850250D03*
%TD*%
D10*
%TO.P,MX27,1,COL*%
%TO.N,COL2*%
X54610000Y-100615750D03*
D11*
X59690000Y-99853750D03*
D10*
X54610000Y-99091750D03*
D11*
%TO.P,MX27,2,ROW*%
%TO.N,Net-(D27-Pad2)*%
X66040000Y-97313750D03*
D10*
X71120000Y-98075750D03*
X71120000Y-96551750D03*
%TD*%
%TO.P,MX12,1,COL*%
%TO.N,COL5*%
X111760000Y-44323000D03*
X111760000Y-45847000D03*
D11*
X116840000Y-45085000D03*
%TO.P,MX12,2,ROW*%
%TO.N,Net-(D12-Pad2)*%
X123190000Y-42545000D03*
D10*
X128270000Y-41783000D03*
X128270000Y-43307000D03*
%TD*%
D11*
%TO.P,MX18,1,COL*%
%TO.N,COL5*%
X116840000Y-64135000D03*
D10*
X111760000Y-64897000D03*
X111760000Y-63373000D03*
%TO.P,MX18,2,ROW*%
%TO.N,Net-(D18-Pad2)*%
X128270000Y-60833000D03*
X128270000Y-62357000D03*
D11*
X123190000Y-61595000D03*
%TD*%
%TO.P,MX6,1,COL*%
%TO.N,COL5*%
X116840000Y-26035000D03*
D10*
X111760000Y-25273000D03*
X111760000Y-26797000D03*
D11*
%TO.P,MX6,2,ROW*%
%TO.N,Net-(D6-Pad2)*%
X123190000Y-23495000D03*
D10*
X128270000Y-22733000D03*
X128270000Y-24257000D03*
%TD*%
D11*
%TO.P,MX13,1,COL*%
%TO.N,COL0*%
X21590000Y-66516250D03*
D10*
X16510000Y-67278250D03*
X16510000Y-65754250D03*
%TO.P,MX13,2,ROW*%
%TO.N,Net-(D13-Pad2)*%
X33020000Y-63214250D03*
D11*
X27940000Y-63976250D03*
D10*
X33020000Y-64738250D03*
%TD*%
D19*
%TO.N,COL5*%
X152654000Y-98933000D03*
%TO.N,COL4*%
X109601000Y-110998000D03*
%TO.N,GND*%
X143867500Y-49104250D03*
%TD*%
D20*
%TO.N,COL5*%
X111760000Y-83947000D02*
X126746000Y-98933000D01*
X126746000Y-98933000D02*
X152654000Y-98933000D01*
%TO.N,COL4*%
X109601000Y-110998000D02*
X108839000Y-110998000D01*
X108839000Y-110998000D02*
X92710000Y-94869000D01*
X92710000Y-94869000D02*
X92710000Y-81565750D01*
D21*
%TO.N,GND*%
X160875500Y-48850250D02*
X160875500Y-47779000D01*
X160875500Y-47779000D02*
X155424500Y-42328000D01*
D20*
%TO.N,COL5*%
X111760000Y-64897000D02*
X111760000Y-82423000D01*
X111760000Y-45847000D02*
X111760000Y-63373000D01*
X111760000Y-26797000D02*
X111760000Y-44323000D01*
%TO.N,COL4*%
X92710000Y-41941750D02*
X92710000Y-24415750D01*
X92710000Y-60991750D02*
X92710000Y-43465750D01*
X92710000Y-80041750D02*
X92710000Y-62515750D01*
%TO.N,COL3*%
X73660000Y-79184500D02*
X73660000Y-96710500D01*
X73660000Y-77660500D02*
X73660000Y-60134500D01*
X73660000Y-41084500D02*
X73660000Y-58610500D01*
X73660000Y-22034500D02*
X73660000Y-39560500D01*
%TO.N,COL2*%
X54610000Y-41941750D02*
X54610000Y-24415750D01*
X54610000Y-60991750D02*
X54610000Y-43465750D01*
X54610000Y-80041750D02*
X54610000Y-62515750D01*
X54610000Y-99091750D02*
X54610000Y-81565750D01*
%TO.N,COL1*%
X35560000Y-46704250D02*
X35560000Y-29178250D01*
X35560000Y-65754250D02*
X35560000Y-48228250D01*
X35560000Y-84804250D02*
X35560000Y-67278250D01*
X35560000Y-103854250D02*
X35560000Y-86328250D01*
D21*
%TO.N,GND*%
X143882500Y-49119250D02*
X143867500Y-49104250D01*
X143882500Y-72320250D02*
X143882500Y-49119250D01*
%TO.N,+3V3*%
X146422500Y-72320250D02*
X154154500Y-64588250D01*
X154154500Y-64588250D02*
X154154500Y-48678000D01*
X154154500Y-48678000D02*
X155424500Y-47408000D01*
%TO.N,Net-(J1-Pad2)*%
X156948500Y-76790250D02*
X163806500Y-69932250D01*
X149413500Y-76790250D02*
X156948500Y-76790250D01*
X147042500Y-79161250D02*
X149413500Y-76790250D01*
X163806500Y-69932250D02*
X163806500Y-41357250D01*
%TD*%
M02*
