M48
; DRILL file {KiCad (6.0.1-0)} date 2022 February 27, Sunday 00:40:10
; FORMAT={-:-/ absolute / metric / decimal}
; #@! TF.CreationDate,2022-02-27T00:40:10+08:00
; #@! TF.GenerationSoftware,Kicad,Pcbnew,(6.0.1-0)
; #@! TF.FileFunction,Plated,1,2,PTH
FMAT,2
METRIC
; #@! TA.AperFunction,Plated,PTH,ViaDrill
T1C0.400
; #@! TA.AperFunction,Plated,PTH,ComponentDrill
T2C0.750
; #@! TA.AperFunction,Plated,PTH,ComponentDrill
T3C0.800
; #@! TA.AperFunction,Plated,PTH,ComponentDrill
T4C0.813
; #@! TA.AperFunction,Plated,PTH,ComponentDrill
T5C1.000
; #@! TA.AperFunction,Plated,PTH,ComponentDrill
T6C1.100
; #@! TA.AperFunction,Plated,PTH,ComponentDrill
T7C1.270
%
G90
G05
T1
X141.7Y-208.941
X143.26Y-196.2
X157.7Y-195.469
X158.676Y-203.876
X175.6Y-153.682
X175.6Y-156.3
X175.6Y-158.6
X175.6Y-161.3
X175.6Y-163.8
X175.6Y-166.4
X175.6Y-168.9
X175.6Y-171.5
X175.6Y-174.0
X175.6Y-176.5
X175.6Y-179.1
X175.6Y-181.6
T2
X182.0Y-193.0
X182.0Y-195.0
X182.0Y-197.0
T3
X188.4Y-189.7
X188.4Y-197.32
T4
X172.57Y-153.692
X172.57Y-156.232
X172.57Y-158.772
X172.57Y-161.312
X172.57Y-163.852
X172.57Y-166.392
X172.57Y-168.932
X172.57Y-171.472
X172.57Y-174.012
X172.57Y-176.552
X172.57Y-179.092
X172.57Y-181.632
X173.896Y-152.422
X173.896Y-154.962
X173.896Y-157.502
X173.896Y-160.042
X173.896Y-162.582
X173.896Y-165.122
X173.896Y-167.662
X173.896Y-170.202
X173.896Y-172.742
X173.896Y-175.282
X173.896Y-177.822
X173.896Y-180.362
X187.81Y-153.692
X187.81Y-156.232
X187.81Y-158.772
X187.81Y-161.312
X187.81Y-163.852
X187.81Y-166.392
X187.81Y-168.932
X187.81Y-171.472
X187.81Y-174.012
X187.81Y-176.552
X187.81Y-179.092
X187.81Y-181.632
X189.116Y-152.422
X189.116Y-154.962
X189.116Y-157.502
X189.116Y-160.042
X189.116Y-162.582
X189.116Y-165.122
X189.116Y-167.662
X189.116Y-170.202
X189.116Y-172.742
X189.116Y-175.282
X189.116Y-177.822
X189.116Y-180.362
T5
X171.42Y-185.6
X172.7Y-183.7
X173.96Y-185.6
X175.24Y-183.7
X176.5Y-185.6
X177.78Y-183.7
X179.04Y-185.6
X180.32Y-183.7
X181.58Y-185.6
X182.86Y-183.7
X184.12Y-185.6
X185.4Y-183.7
X186.66Y-185.6
X187.94Y-183.7
X189.2Y-185.6
X190.48Y-183.7
T6
X172.5Y-192.1
X172.5Y-198.6
X177.0Y-192.1
X177.0Y-198.6
T7
X40.46Y-139.3
X40.46Y-157.3
X40.46Y-175.3
X40.46Y-193.3
X40.46Y-211.3
X45.46Y-141.4
X45.46Y-159.4
X45.46Y-177.4
X45.46Y-195.4
X45.46Y-213.4
X50.46Y-139.3
X50.46Y-157.3
X50.46Y-175.3
X50.46Y-193.3
X50.46Y-211.3
X59.46Y-139.3
X59.46Y-157.3
X59.46Y-175.3
X59.46Y-193.3
X59.46Y-211.3
X64.46Y-141.4
X64.46Y-159.4
X64.46Y-177.4
X64.46Y-195.4
X64.46Y-213.4
X69.46Y-139.3
X69.46Y-157.3
X69.46Y-175.3
X69.46Y-193.3
X69.46Y-211.3
X78.46Y-134.3
X78.46Y-152.3
X78.46Y-170.3
X78.46Y-188.3
X78.46Y-206.3
X83.46Y-136.4
X83.46Y-154.4
X83.46Y-172.4
X83.46Y-190.4
X83.46Y-208.4
X88.46Y-134.3
X88.46Y-152.3
X88.46Y-170.3
X88.46Y-188.3
X88.46Y-206.3
X97.46Y-132.3
X97.46Y-150.3
X97.46Y-168.3
X97.46Y-186.3
X97.46Y-204.3
X102.46Y-134.4
X102.46Y-152.4
X102.46Y-170.4
X102.46Y-188.4
X102.46Y-206.4
X107.46Y-132.3
X107.46Y-150.3
X107.46Y-168.3
X107.46Y-186.3
X107.46Y-204.3
X116.46Y-134.3
X116.46Y-152.3
X116.46Y-170.3
X116.46Y-188.3
X116.46Y-206.3
X121.46Y-136.4
X121.46Y-154.4
X121.46Y-172.4
X121.46Y-190.4
X121.46Y-208.4
X126.46Y-134.3
X126.46Y-152.3
X126.46Y-170.3
X126.46Y-188.3
X126.46Y-206.3
X135.46Y-137.3
X135.46Y-155.3
X135.46Y-173.3
X135.46Y-191.3
X139.919Y-216.791
X140.46Y-139.4
X140.46Y-157.4
X140.46Y-175.4
X140.46Y-193.4
X143.199Y-221.11
X145.46Y-137.3
X145.46Y-155.3
X145.46Y-173.3
X145.46Y-191.3
X148.579Y-221.791
X154.46Y-137.3
X154.46Y-155.3
X154.46Y-173.3
X154.46Y-191.3
X156.47Y-226.291
X159.46Y-139.4
X159.46Y-157.4
X159.46Y-175.4
X159.46Y-193.4
X159.75Y-230.61
X164.46Y-137.3
X164.46Y-155.3
X164.46Y-173.3
X164.46Y-191.3
X165.13Y-231.291
T0
M30
