%TF.GenerationSoftware,KiCad,Pcbnew,(6.0.1-0)*%
%TF.CreationDate,2022-02-08T23:28:17+08:00*%
%TF.ProjectId,nut-kb,6e75742d-6b62-42e6-9b69-6361645f7063,rev?*%
%TF.SameCoordinates,Original*%
%TF.FileFunction,Legend,Top*%
%TF.FilePolarity,Positive*%
%FSLAX46Y46*%
G04 Gerber Fmt 4.6, Leading zero omitted, Abs format (unit mm)*
G04 Created by KiCad (PCBNEW (6.0.1-0)) date 2022-02-08 23:28:17*
%MOMM*%
%LPD*%
G01*
G04 APERTURE LIST*
G04 Aperture macros list*
%AMRoundRect*
0 Rectangle with rounded corners*
0 $1 Rounding radius*
0 $2 $3 $4 $5 $6 $7 $8 $9 X,Y pos of 4 corners*
0 Add a 4 corners polygon primitive as box body*
4,1,4,$2,$3,$4,$5,$6,$7,$8,$9,$2,$3,0*
0 Add four circle primitives for the rounded corners*
1,1,$1+$1,$2,$3*
1,1,$1+$1,$4,$5*
1,1,$1+$1,$6,$7*
1,1,$1+$1,$8,$9*
0 Add four rect primitives between the rounded corners*
20,1,$1+$1,$2,$3,$4,$5,0*
20,1,$1+$1,$4,$5,$6,$7,0*
20,1,$1+$1,$6,$7,$8,$9,0*
20,1,$1+$1,$8,$9,$2,$3,0*%
G04 Aperture macros list end*
%ADD10C,0.150000*%
%ADD11C,0.300000*%
%ADD12C,0.381000*%
%ADD13C,0.120000*%
%ADD14C,1.752600*%
%ADD15C,3.000000*%
%ADD16C,3.987800*%
%ADD17C,1.750000*%
%ADD18C,3.048000*%
%ADD19O,1.200000X1.750000*%
%ADD20RoundRect,0.250000X-0.350000X-0.625000X0.350000X-0.625000X0.350000X0.625000X-0.350000X0.625000X0*%
%ADD21O,1.600000X1.600000*%
%ADD22R,1.600000X1.600000*%
%ADD23O,1.700000X1.700000*%
%ADD24R,1.700000X1.700000*%
G04 APERTURE END LIST*
D10*
%TO.C,U1*%
X141467310Y-49519904D02*
X141543500Y-49519904D01*
X141619690Y-49558000D01*
X141657786Y-49596095D01*
X141695881Y-49672285D01*
X141733976Y-49824666D01*
X141733976Y-50015142D01*
X141695881Y-50167523D01*
X141657786Y-50243714D01*
X141619690Y-50281809D01*
X141543500Y-50319904D01*
X141467310Y-50319904D01*
X141391119Y-50281809D01*
X141353024Y-50243714D01*
X141314929Y-50167523D01*
X141276833Y-50015142D01*
X141276833Y-49824666D01*
X141314929Y-49672285D01*
X141353024Y-49596095D01*
X141391119Y-49558000D01*
X141467310Y-49519904D01*
X142495881Y-50319904D02*
X142038738Y-50319904D01*
X142267310Y-50319904D02*
X142267310Y-49519904D01*
X142191119Y-49634190D01*
X142114929Y-49710380D01*
X142038738Y-49748476D01*
X142762548Y-49519904D02*
X143295881Y-49519904D01*
X142953024Y-50319904D01*
X152541691Y-54589904D02*
X152617881Y-54589904D01*
X152694071Y-54628000D01*
X152732167Y-54666095D01*
X152770262Y-54742285D01*
X152808357Y-54894666D01*
X152808357Y-55085142D01*
X152770262Y-55237523D01*
X152732167Y-55313714D01*
X152694071Y-55351809D01*
X152617881Y-55389904D01*
X152541691Y-55389904D01*
X152465500Y-55351809D01*
X152427405Y-55313714D01*
X152389310Y-55237523D01*
X152351214Y-55085142D01*
X152351214Y-54894666D01*
X152389310Y-54742285D01*
X152427405Y-54666095D01*
X152465500Y-54628000D01*
X152541691Y-54589904D01*
X153303595Y-54589904D02*
X153379786Y-54589904D01*
X153455976Y-54628000D01*
X153494071Y-54666095D01*
X153532167Y-54742285D01*
X153570262Y-54894666D01*
X153570262Y-55085142D01*
X153532167Y-55237523D01*
X153494071Y-55313714D01*
X153455976Y-55351809D01*
X153379786Y-55389904D01*
X153303595Y-55389904D01*
X153227405Y-55351809D01*
X153189310Y-55313714D01*
X153151214Y-55237523D01*
X153113119Y-55085142D01*
X153113119Y-54894666D01*
X153151214Y-54742285D01*
X153189310Y-54666095D01*
X153227405Y-54628000D01*
X153303595Y-54589904D01*
X153875024Y-54666095D02*
X153913119Y-54628000D01*
X153989310Y-54589904D01*
X154179786Y-54589904D01*
X154255976Y-54628000D01*
X154294071Y-54666095D01*
X154332167Y-54742285D01*
X154332167Y-54818476D01*
X154294071Y-54932761D01*
X153836929Y-55389904D01*
X154332167Y-55389904D01*
X152649643Y-41928000D02*
X152573452Y-41889904D01*
X152459167Y-41889904D01*
X152344881Y-41928000D01*
X152268690Y-42004190D01*
X152230595Y-42080380D01*
X152192500Y-42232761D01*
X152192500Y-42347047D01*
X152230595Y-42499428D01*
X152268690Y-42575619D01*
X152344881Y-42651809D01*
X152459167Y-42689904D01*
X152535357Y-42689904D01*
X152649643Y-42651809D01*
X152687738Y-42613714D01*
X152687738Y-42347047D01*
X152535357Y-42347047D01*
X153030595Y-42689904D02*
X153030595Y-41889904D01*
X153487738Y-42689904D01*
X153487738Y-41889904D01*
X153868690Y-42689904D02*
X153868690Y-41889904D01*
X154059167Y-41889904D01*
X154173452Y-41928000D01*
X154249643Y-42004190D01*
X154287738Y-42080380D01*
X154325833Y-42232761D01*
X154325833Y-42347047D01*
X154287738Y-42499428D01*
X154249643Y-42575619D01*
X154173452Y-42651809D01*
X154059167Y-42689904D01*
X153868690Y-42689904D01*
X152541691Y-64749904D02*
X152617881Y-64749904D01*
X152694071Y-64788000D01*
X152732167Y-64826095D01*
X152770262Y-64902285D01*
X152808357Y-65054666D01*
X152808357Y-65245142D01*
X152770262Y-65397523D01*
X152732167Y-65473714D01*
X152694071Y-65511809D01*
X152617881Y-65549904D01*
X152541691Y-65549904D01*
X152465500Y-65511809D01*
X152427405Y-65473714D01*
X152389310Y-65397523D01*
X152351214Y-65245142D01*
X152351214Y-65054666D01*
X152389310Y-64902285D01*
X152427405Y-64826095D01*
X152465500Y-64788000D01*
X152541691Y-64749904D01*
X153570262Y-65549904D02*
X153113119Y-65549904D01*
X153341691Y-65549904D02*
X153341691Y-64749904D01*
X153265500Y-64864190D01*
X153189310Y-64940380D01*
X153113119Y-64978476D01*
X154065500Y-64749904D02*
X154141691Y-64749904D01*
X154217881Y-64788000D01*
X154255976Y-64826095D01*
X154294071Y-64902285D01*
X154332167Y-65054666D01*
X154332167Y-65245142D01*
X154294071Y-65397523D01*
X154255976Y-65473714D01*
X154217881Y-65511809D01*
X154141691Y-65549904D01*
X154065500Y-65549904D01*
X153989310Y-65511809D01*
X153951214Y-65473714D01*
X153913119Y-65397523D01*
X153875024Y-65245142D01*
X153875024Y-65054666D01*
X153913119Y-64902285D01*
X153951214Y-64826095D01*
X153989310Y-64788000D01*
X154065500Y-64749904D01*
X141467310Y-57129904D02*
X141543500Y-57129904D01*
X141619690Y-57168000D01*
X141657786Y-57206095D01*
X141695881Y-57282285D01*
X141733976Y-57434666D01*
X141733976Y-57625142D01*
X141695881Y-57777523D01*
X141657786Y-57853714D01*
X141619690Y-57891809D01*
X141543500Y-57929904D01*
X141467310Y-57929904D01*
X141391119Y-57891809D01*
X141353024Y-57853714D01*
X141314929Y-57777523D01*
X141276833Y-57625142D01*
X141276833Y-57434666D01*
X141314929Y-57282285D01*
X141353024Y-57206095D01*
X141391119Y-57168000D01*
X141467310Y-57129904D01*
X142038738Y-57206095D02*
X142076833Y-57168000D01*
X142153024Y-57129904D01*
X142343500Y-57129904D01*
X142419690Y-57168000D01*
X142457786Y-57206095D01*
X142495881Y-57282285D01*
X142495881Y-57358476D01*
X142457786Y-57472761D01*
X142000643Y-57929904D01*
X142495881Y-57929904D01*
X143181595Y-57396571D02*
X143181595Y-57929904D01*
X142991119Y-57091809D02*
X142800643Y-57663238D01*
X143295881Y-57663238D01*
X141733976Y-60469904D02*
X141276833Y-60469904D01*
X141505405Y-60469904D02*
X141505405Y-59669904D01*
X141429214Y-59784190D01*
X141353024Y-59860380D01*
X141276833Y-59898476D01*
X142229214Y-59669904D02*
X142305405Y-59669904D01*
X142381595Y-59708000D01*
X142419690Y-59746095D01*
X142457786Y-59822285D01*
X142495881Y-59974666D01*
X142495881Y-60165142D01*
X142457786Y-60317523D01*
X142419690Y-60393714D01*
X142381595Y-60431809D01*
X142305405Y-60469904D01*
X142229214Y-60469904D01*
X142153024Y-60431809D01*
X142114929Y-60393714D01*
X142076833Y-60317523D01*
X142038738Y-60165142D01*
X142038738Y-59974666D01*
X142076833Y-59822285D01*
X142114929Y-59746095D01*
X142153024Y-59708000D01*
X142229214Y-59669904D01*
X142991119Y-59669904D02*
X143067310Y-59669904D01*
X143143500Y-59708000D01*
X143181595Y-59746095D01*
X143219690Y-59822285D01*
X143257786Y-59974666D01*
X143257786Y-60165142D01*
X143219690Y-60317523D01*
X143181595Y-60393714D01*
X143143500Y-60431809D01*
X143067310Y-60469904D01*
X142991119Y-60469904D01*
X142914929Y-60431809D01*
X142876833Y-60393714D01*
X142838738Y-60317523D01*
X142800643Y-60165142D01*
X142800643Y-59974666D01*
X142838738Y-59822285D01*
X142876833Y-59746095D01*
X142914929Y-59708000D01*
X142991119Y-59669904D01*
X152808357Y-57929904D02*
X152351214Y-57929904D01*
X152579786Y-57929904D02*
X152579786Y-57129904D01*
X152503595Y-57244190D01*
X152427405Y-57320380D01*
X152351214Y-57358476D01*
X153570262Y-57929904D02*
X153113119Y-57929904D01*
X153341691Y-57929904D02*
X153341691Y-57129904D01*
X153265500Y-57244190D01*
X153189310Y-57320380D01*
X153113119Y-57358476D01*
X154294071Y-57129904D02*
X153913119Y-57129904D01*
X153875024Y-57510857D01*
X153913119Y-57472761D01*
X153989310Y-57434666D01*
X154179786Y-57434666D01*
X154255976Y-57472761D01*
X154294071Y-57510857D01*
X154332167Y-57587047D01*
X154332167Y-57777523D01*
X154294071Y-57853714D01*
X154255976Y-57891809D01*
X154179786Y-57929904D01*
X153989310Y-57929904D01*
X153913119Y-57891809D01*
X153875024Y-57853714D01*
X141733976Y-44468000D02*
X141657785Y-44429904D01*
X141543500Y-44429904D01*
X141429214Y-44468000D01*
X141353023Y-44544190D01*
X141314928Y-44620380D01*
X141276833Y-44772761D01*
X141276833Y-44887047D01*
X141314928Y-45039428D01*
X141353023Y-45115619D01*
X141429214Y-45191809D01*
X141543500Y-45229904D01*
X141619690Y-45229904D01*
X141733976Y-45191809D01*
X141772071Y-45153714D01*
X141772071Y-44887047D01*
X141619690Y-44887047D01*
X142114928Y-45229904D02*
X142114928Y-44429904D01*
X142572071Y-45229904D01*
X142572071Y-44429904D01*
X142953023Y-45229904D02*
X142953023Y-44429904D01*
X143143500Y-44429904D01*
X143257785Y-44468000D01*
X143333976Y-44544190D01*
X143372071Y-44620380D01*
X143410166Y-44772761D01*
X143410166Y-44887047D01*
X143372071Y-45039428D01*
X143333976Y-45115619D01*
X143257785Y-45191809D01*
X143143500Y-45229904D01*
X142953023Y-45229904D01*
X152808357Y-60469904D02*
X152351214Y-60469904D01*
X152579786Y-60469904D02*
X152579786Y-59669904D01*
X152503595Y-59784190D01*
X152427405Y-59860380D01*
X152351214Y-59898476D01*
X153570262Y-60469904D02*
X153113119Y-60469904D01*
X153341691Y-60469904D02*
X153341691Y-59669904D01*
X153265500Y-59784190D01*
X153189310Y-59860380D01*
X153113119Y-59898476D01*
X153836929Y-59669904D02*
X154332167Y-59669904D01*
X154065500Y-59974666D01*
X154179786Y-59974666D01*
X154255976Y-60012761D01*
X154294071Y-60050857D01*
X154332167Y-60127047D01*
X154332167Y-60317523D01*
X154294071Y-60393714D01*
X154255976Y-60431809D01*
X154179786Y-60469904D01*
X153951214Y-60469904D01*
X153875024Y-60431809D01*
X153836929Y-60393714D01*
X141733976Y-65549904D02*
X141276833Y-65549904D01*
X141505405Y-65549904D02*
X141505405Y-64749904D01*
X141429214Y-64864190D01*
X141353024Y-64940380D01*
X141276833Y-64978476D01*
X142229214Y-64749904D02*
X142305405Y-64749904D01*
X142381595Y-64788000D01*
X142419690Y-64826095D01*
X142457786Y-64902285D01*
X142495881Y-65054666D01*
X142495881Y-65245142D01*
X142457786Y-65397523D01*
X142419690Y-65473714D01*
X142381595Y-65511809D01*
X142305405Y-65549904D01*
X142229214Y-65549904D01*
X142153024Y-65511809D01*
X142114929Y-65473714D01*
X142076833Y-65397523D01*
X142038738Y-65245142D01*
X142038738Y-65054666D01*
X142076833Y-64902285D01*
X142114929Y-64826095D01*
X142153024Y-64788000D01*
X142229214Y-64749904D01*
X143181595Y-65016571D02*
X143181595Y-65549904D01*
X142991119Y-64711809D02*
X142800643Y-65283238D01*
X143295881Y-65283238D01*
X141733976Y-47008000D02*
X141657785Y-46969904D01*
X141543500Y-46969904D01*
X141429214Y-47008000D01*
X141353023Y-47084190D01*
X141314928Y-47160380D01*
X141276833Y-47312761D01*
X141276833Y-47427047D01*
X141314928Y-47579428D01*
X141353023Y-47655619D01*
X141429214Y-47731809D01*
X141543500Y-47769904D01*
X141619690Y-47769904D01*
X141733976Y-47731809D01*
X141772071Y-47693714D01*
X141772071Y-47427047D01*
X141619690Y-47427047D01*
X142114928Y-47769904D02*
X142114928Y-46969904D01*
X142572071Y-47769904D01*
X142572071Y-46969904D01*
X142953023Y-47769904D02*
X142953023Y-46969904D01*
X143143500Y-46969904D01*
X143257785Y-47008000D01*
X143333976Y-47084190D01*
X143372071Y-47160380D01*
X143410166Y-47312761D01*
X143410166Y-47427047D01*
X143372071Y-47579428D01*
X143333976Y-47655619D01*
X143257785Y-47731809D01*
X143143500Y-47769904D01*
X142953023Y-47769904D01*
X152275024Y-46969904D02*
X152541691Y-47769904D01*
X152808357Y-46969904D01*
X153532167Y-47693714D02*
X153494071Y-47731809D01*
X153379786Y-47769904D01*
X153303595Y-47769904D01*
X153189310Y-47731809D01*
X153113119Y-47655619D01*
X153075024Y-47579428D01*
X153036929Y-47427047D01*
X153036929Y-47312761D01*
X153075024Y-47160380D01*
X153113119Y-47084190D01*
X153189310Y-47008000D01*
X153303595Y-46969904D01*
X153379786Y-46969904D01*
X153494071Y-47008000D01*
X153532167Y-47046095D01*
X154332167Y-47693714D02*
X154294071Y-47731809D01*
X154179786Y-47769904D01*
X154103595Y-47769904D01*
X153989310Y-47731809D01*
X153913119Y-47655619D01*
X153875024Y-47579428D01*
X153836929Y-47427047D01*
X153836929Y-47312761D01*
X153875024Y-47160380D01*
X153913119Y-47084190D01*
X153989310Y-47008000D01*
X154103595Y-46969904D01*
X154179786Y-46969904D01*
X154294071Y-47008000D01*
X154332167Y-47046095D01*
D11*
X143022785Y-66898571D02*
X143022785Y-67898571D01*
X143022785Y-67041428D02*
X143094214Y-66970000D01*
X143237071Y-66898571D01*
X143451357Y-66898571D01*
X143594214Y-66970000D01*
X143665642Y-67112857D01*
X143665642Y-67898571D01*
X144379928Y-67898571D02*
X144379928Y-66898571D01*
X144379928Y-66398571D02*
X144308500Y-66470000D01*
X144379928Y-66541428D01*
X144451357Y-66470000D01*
X144379928Y-66398571D01*
X144379928Y-66541428D01*
X145737071Y-67827142D02*
X145594214Y-67898571D01*
X145308500Y-67898571D01*
X145165642Y-67827142D01*
X145094214Y-67755714D01*
X145022785Y-67612857D01*
X145022785Y-67184285D01*
X145094214Y-67041428D01*
X145165642Y-66970000D01*
X145308500Y-66898571D01*
X145594214Y-66898571D01*
X145737071Y-66970000D01*
X146951357Y-67827142D02*
X146808500Y-67898571D01*
X146522785Y-67898571D01*
X146379928Y-67827142D01*
X146308500Y-67684285D01*
X146308500Y-67112857D01*
X146379928Y-66970000D01*
X146522785Y-66898571D01*
X146808500Y-66898571D01*
X146951357Y-66970000D01*
X147022785Y-67112857D01*
X147022785Y-67255714D01*
X146308500Y-67398571D01*
X147665642Y-67755714D02*
X147737071Y-67827142D01*
X147665642Y-67898571D01*
X147594214Y-67827142D01*
X147665642Y-67755714D01*
X147665642Y-67898571D01*
X147665642Y-67327142D02*
X147594214Y-66470000D01*
X147665642Y-66398571D01*
X147737071Y-66470000D01*
X147665642Y-67327142D01*
X147665642Y-66398571D01*
X148379928Y-66898571D02*
X148379928Y-67898571D01*
X148379928Y-67041428D02*
X148451357Y-66970000D01*
X148594214Y-66898571D01*
X148808500Y-66898571D01*
X148951357Y-66970000D01*
X149022785Y-67112857D01*
X149022785Y-67898571D01*
X150379928Y-67898571D02*
X150379928Y-67112857D01*
X150308500Y-66970000D01*
X150165642Y-66898571D01*
X149879928Y-66898571D01*
X149737071Y-66970000D01*
X150379928Y-67827142D02*
X150237071Y-67898571D01*
X149879928Y-67898571D01*
X149737071Y-67827142D01*
X149665642Y-67684285D01*
X149665642Y-67541428D01*
X149737071Y-67398571D01*
X149879928Y-67327142D01*
X150237071Y-67327142D01*
X150379928Y-67255714D01*
X151094214Y-66898571D02*
X151094214Y-67898571D01*
X151094214Y-67041428D02*
X151165642Y-66970000D01*
X151308500Y-66898571D01*
X151522785Y-66898571D01*
X151665642Y-66970000D01*
X151737071Y-67112857D01*
X151737071Y-67898571D01*
X152665642Y-67898571D02*
X152522785Y-67827142D01*
X152451357Y-67755714D01*
X152379928Y-67612857D01*
X152379928Y-67184285D01*
X152451357Y-67041428D01*
X152522785Y-66970000D01*
X152665642Y-66898571D01*
X152879928Y-66898571D01*
X153022785Y-66970000D01*
X153094214Y-67041428D01*
X153165642Y-67184285D01*
X153165642Y-67612857D01*
X153094214Y-67755714D01*
X153022785Y-67827142D01*
X152879928Y-67898571D01*
X152665642Y-67898571D01*
D10*
X152954404Y-45229904D02*
X152687738Y-44848952D01*
X152497261Y-45229904D02*
X152497261Y-44429904D01*
X152802023Y-44429904D01*
X152878214Y-44468000D01*
X152916309Y-44506095D01*
X152954404Y-44582285D01*
X152954404Y-44696571D01*
X152916309Y-44772761D01*
X152878214Y-44810857D01*
X152802023Y-44848952D01*
X152497261Y-44848952D01*
X153259166Y-45191809D02*
X153373452Y-45229904D01*
X153563928Y-45229904D01*
X153640119Y-45191809D01*
X153678214Y-45153714D01*
X153716309Y-45077523D01*
X153716309Y-45001333D01*
X153678214Y-44925142D01*
X153640119Y-44887047D01*
X153563928Y-44848952D01*
X153411547Y-44810857D01*
X153335357Y-44772761D01*
X153297261Y-44734666D01*
X153259166Y-44658476D01*
X153259166Y-44582285D01*
X153297261Y-44506095D01*
X153335357Y-44468000D01*
X153411547Y-44429904D01*
X153602023Y-44429904D01*
X153716309Y-44468000D01*
X153944880Y-44429904D02*
X154402023Y-44429904D01*
X154173452Y-45229904D02*
X154173452Y-44429904D01*
X152541691Y-49509904D02*
X152617881Y-49509904D01*
X152694071Y-49548000D01*
X152732167Y-49586095D01*
X152770262Y-49662285D01*
X152808357Y-49814666D01*
X152808357Y-50005142D01*
X152770262Y-50157523D01*
X152732167Y-50233714D01*
X152694071Y-50271809D01*
X152617881Y-50309904D01*
X152541691Y-50309904D01*
X152465500Y-50271809D01*
X152427405Y-50233714D01*
X152389310Y-50157523D01*
X152351214Y-50005142D01*
X152351214Y-49814666D01*
X152389310Y-49662285D01*
X152427405Y-49586095D01*
X152465500Y-49548000D01*
X152541691Y-49509904D01*
X153075024Y-49509904D02*
X153570262Y-49509904D01*
X153303595Y-49814666D01*
X153417881Y-49814666D01*
X153494071Y-49852761D01*
X153532167Y-49890857D01*
X153570262Y-49967047D01*
X153570262Y-50157523D01*
X153532167Y-50233714D01*
X153494071Y-50271809D01*
X153417881Y-50309904D01*
X153189310Y-50309904D01*
X153113119Y-50271809D01*
X153075024Y-50233714D01*
X154332167Y-50309904D02*
X153875024Y-50309904D01*
X154103595Y-50309904D02*
X154103595Y-49509904D01*
X154027405Y-49624190D01*
X153951214Y-49700380D01*
X153875024Y-49738476D01*
X141467310Y-54619904D02*
X141543500Y-54619904D01*
X141619690Y-54658000D01*
X141657786Y-54696095D01*
X141695881Y-54772285D01*
X141733976Y-54924666D01*
X141733976Y-55115142D01*
X141695881Y-55267523D01*
X141657786Y-55343714D01*
X141619690Y-55381809D01*
X141543500Y-55419904D01*
X141467310Y-55419904D01*
X141391119Y-55381809D01*
X141353024Y-55343714D01*
X141314929Y-55267523D01*
X141276833Y-55115142D01*
X141276833Y-54924666D01*
X141314929Y-54772285D01*
X141353024Y-54696095D01*
X141391119Y-54658000D01*
X141467310Y-54619904D01*
X142038738Y-54696095D02*
X142076833Y-54658000D01*
X142153024Y-54619904D01*
X142343500Y-54619904D01*
X142419690Y-54658000D01*
X142457786Y-54696095D01*
X142495881Y-54772285D01*
X142495881Y-54848476D01*
X142457786Y-54962761D01*
X142000643Y-55419904D01*
X142495881Y-55419904D01*
X142800643Y-54696095D02*
X142838738Y-54658000D01*
X142914929Y-54619904D01*
X143105405Y-54619904D01*
X143181595Y-54658000D01*
X143219690Y-54696095D01*
X143257786Y-54772285D01*
X143257786Y-54848476D01*
X143219690Y-54962761D01*
X142762548Y-55419904D01*
X143257786Y-55419904D01*
X152541691Y-52049904D02*
X152617881Y-52049904D01*
X152694071Y-52088000D01*
X152732167Y-52126095D01*
X152770262Y-52202285D01*
X152808357Y-52354666D01*
X152808357Y-52545142D01*
X152770262Y-52697523D01*
X152732167Y-52773714D01*
X152694071Y-52811809D01*
X152617881Y-52849904D01*
X152541691Y-52849904D01*
X152465500Y-52811809D01*
X152427405Y-52773714D01*
X152389310Y-52697523D01*
X152351214Y-52545142D01*
X152351214Y-52354666D01*
X152389310Y-52202285D01*
X152427405Y-52126095D01*
X152465500Y-52088000D01*
X152541691Y-52049904D01*
X153113119Y-52126095D02*
X153151214Y-52088000D01*
X153227405Y-52049904D01*
X153417881Y-52049904D01*
X153494071Y-52088000D01*
X153532167Y-52126095D01*
X153570262Y-52202285D01*
X153570262Y-52278476D01*
X153532167Y-52392761D01*
X153075024Y-52849904D01*
X153570262Y-52849904D01*
X153951214Y-52849904D02*
X154103595Y-52849904D01*
X154179786Y-52811809D01*
X154217881Y-52773714D01*
X154294071Y-52659428D01*
X154332167Y-52507047D01*
X154332167Y-52202285D01*
X154294071Y-52126095D01*
X154255976Y-52088000D01*
X154179786Y-52049904D01*
X154027405Y-52049904D01*
X153951214Y-52088000D01*
X153913119Y-52126095D01*
X153875024Y-52202285D01*
X153875024Y-52392761D01*
X153913119Y-52468952D01*
X153951214Y-52507047D01*
X154027405Y-52545142D01*
X154179786Y-52545142D01*
X154255976Y-52507047D01*
X154294071Y-52468952D01*
X154332167Y-52392761D01*
X141467310Y-52119904D02*
X141543500Y-52119904D01*
X141619690Y-52158000D01*
X141657786Y-52196095D01*
X141695881Y-52272285D01*
X141733976Y-52424666D01*
X141733976Y-52615142D01*
X141695881Y-52767523D01*
X141657786Y-52843714D01*
X141619690Y-52881809D01*
X141543500Y-52919904D01*
X141467310Y-52919904D01*
X141391119Y-52881809D01*
X141353024Y-52843714D01*
X141314929Y-52767523D01*
X141276833Y-52615142D01*
X141276833Y-52424666D01*
X141314929Y-52272285D01*
X141353024Y-52196095D01*
X141391119Y-52158000D01*
X141467310Y-52119904D01*
X142038738Y-52196095D02*
X142076833Y-52158000D01*
X142153024Y-52119904D01*
X142343500Y-52119904D01*
X142419690Y-52158000D01*
X142457786Y-52196095D01*
X142495881Y-52272285D01*
X142495881Y-52348476D01*
X142457786Y-52462761D01*
X142000643Y-52919904D01*
X142495881Y-52919904D01*
X142991119Y-52119904D02*
X143067310Y-52119904D01*
X143143500Y-52158000D01*
X143181595Y-52196095D01*
X143219690Y-52272285D01*
X143257786Y-52424666D01*
X143257786Y-52615142D01*
X143219690Y-52767523D01*
X143181595Y-52843714D01*
X143143500Y-52881809D01*
X143067310Y-52919904D01*
X142991119Y-52919904D01*
X142914929Y-52881809D01*
X142876833Y-52843714D01*
X142838738Y-52767523D01*
X142800643Y-52615142D01*
X142800643Y-52424666D01*
X142838738Y-52272285D01*
X142876833Y-52196095D01*
X142914929Y-52158000D01*
X142991119Y-52119904D01*
X152808357Y-63009904D02*
X152351214Y-63009904D01*
X152579786Y-63009904D02*
X152579786Y-62209904D01*
X152503595Y-62324190D01*
X152427405Y-62400380D01*
X152351214Y-62438476D01*
X153570262Y-63009904D02*
X153113119Y-63009904D01*
X153341691Y-63009904D02*
X153341691Y-62209904D01*
X153265500Y-62324190D01*
X153189310Y-62400380D01*
X153113119Y-62438476D01*
X154332167Y-63009904D02*
X153875024Y-63009904D01*
X154103595Y-63009904D02*
X154103595Y-62209904D01*
X154027405Y-62324190D01*
X153951214Y-62400380D01*
X153875024Y-62438476D01*
X141467310Y-39349904D02*
X141543500Y-39349904D01*
X141619690Y-39388000D01*
X141657786Y-39426095D01*
X141695881Y-39502285D01*
X141733976Y-39654666D01*
X141733976Y-39845142D01*
X141695881Y-39997523D01*
X141657786Y-40073714D01*
X141619690Y-40111809D01*
X141543500Y-40149904D01*
X141467310Y-40149904D01*
X141391119Y-40111809D01*
X141353024Y-40073714D01*
X141314929Y-39997523D01*
X141276833Y-39845142D01*
X141276833Y-39654666D01*
X141314929Y-39502285D01*
X141353024Y-39426095D01*
X141391119Y-39388000D01*
X141467310Y-39349904D01*
X142229214Y-39349904D02*
X142305405Y-39349904D01*
X142381595Y-39388000D01*
X142419690Y-39426095D01*
X142457786Y-39502285D01*
X142495881Y-39654666D01*
X142495881Y-39845142D01*
X142457786Y-39997523D01*
X142419690Y-40073714D01*
X142381595Y-40111809D01*
X142305405Y-40149904D01*
X142229214Y-40149904D01*
X142153024Y-40111809D01*
X142114929Y-40073714D01*
X142076833Y-39997523D01*
X142038738Y-39845142D01*
X142038738Y-39654666D01*
X142076833Y-39502285D01*
X142114929Y-39426095D01*
X142153024Y-39388000D01*
X142229214Y-39349904D01*
X143181595Y-39349904D02*
X143029214Y-39349904D01*
X142953024Y-39388000D01*
X142914929Y-39426095D01*
X142838738Y-39540380D01*
X142800643Y-39692761D01*
X142800643Y-39997523D01*
X142838738Y-40073714D01*
X142876833Y-40111809D01*
X142953024Y-40149904D01*
X143105405Y-40149904D01*
X143181595Y-40111809D01*
X143219690Y-40073714D01*
X143257786Y-39997523D01*
X143257786Y-39807047D01*
X143219690Y-39730857D01*
X143181595Y-39692761D01*
X143105405Y-39654666D01*
X142953024Y-39654666D01*
X142876833Y-39692761D01*
X142838738Y-39730857D01*
X142800643Y-39807047D01*
X152725834Y-40149904D02*
X152459167Y-39768952D01*
X152268691Y-40149904D02*
X152268691Y-39349904D01*
X152573453Y-39349904D01*
X152649643Y-39388000D01*
X152687738Y-39426095D01*
X152725834Y-39502285D01*
X152725834Y-39616571D01*
X152687738Y-39692761D01*
X152649643Y-39730857D01*
X152573453Y-39768952D01*
X152268691Y-39768952D01*
X153030595Y-39921333D02*
X153411548Y-39921333D01*
X152954405Y-40149904D02*
X153221072Y-39349904D01*
X153487738Y-40149904D01*
X153678215Y-39349904D02*
X153868691Y-40149904D01*
X154021072Y-39578476D01*
X154173453Y-40149904D01*
X154363929Y-39349904D01*
X141467310Y-41819904D02*
X141543500Y-41819904D01*
X141619690Y-41858000D01*
X141657786Y-41896095D01*
X141695881Y-41972285D01*
X141733976Y-42124666D01*
X141733976Y-42315142D01*
X141695881Y-42467523D01*
X141657786Y-42543714D01*
X141619690Y-42581809D01*
X141543500Y-42619904D01*
X141467310Y-42619904D01*
X141391119Y-42581809D01*
X141353024Y-42543714D01*
X141314929Y-42467523D01*
X141276833Y-42315142D01*
X141276833Y-42124666D01*
X141314929Y-41972285D01*
X141353024Y-41896095D01*
X141391119Y-41858000D01*
X141467310Y-41819904D01*
X142229214Y-41819904D02*
X142305405Y-41819904D01*
X142381595Y-41858000D01*
X142419690Y-41896095D01*
X142457786Y-41972285D01*
X142495881Y-42124666D01*
X142495881Y-42315142D01*
X142457786Y-42467523D01*
X142419690Y-42543714D01*
X142381595Y-42581809D01*
X142305405Y-42619904D01*
X142229214Y-42619904D01*
X142153024Y-42581809D01*
X142114929Y-42543714D01*
X142076833Y-42467523D01*
X142038738Y-42315142D01*
X142038738Y-42124666D01*
X142076833Y-41972285D01*
X142114929Y-41896095D01*
X142153024Y-41858000D01*
X142229214Y-41819904D01*
X142953024Y-42162761D02*
X142876833Y-42124666D01*
X142838738Y-42086571D01*
X142800643Y-42010380D01*
X142800643Y-41972285D01*
X142838738Y-41896095D01*
X142876833Y-41858000D01*
X142953024Y-41819904D01*
X143105405Y-41819904D01*
X143181595Y-41858000D01*
X143219690Y-41896095D01*
X143257786Y-41972285D01*
X143257786Y-42010380D01*
X143219690Y-42086571D01*
X143181595Y-42124666D01*
X143105405Y-42162761D01*
X142953024Y-42162761D01*
X142876833Y-42200857D01*
X142838738Y-42238952D01*
X142800643Y-42315142D01*
X142800643Y-42467523D01*
X142838738Y-42543714D01*
X142876833Y-42581809D01*
X142953024Y-42619904D01*
X143105405Y-42619904D01*
X143181595Y-42581809D01*
X143219690Y-42543714D01*
X143257786Y-42467523D01*
X143257786Y-42315142D01*
X143219690Y-42238952D01*
X143181595Y-42200857D01*
X143105405Y-42162761D01*
%TO.C,J1*%
X146709166Y-75713630D02*
X146709166Y-76427916D01*
X146661547Y-76570773D01*
X146566309Y-76666011D01*
X146423452Y-76713630D01*
X146328214Y-76713630D01*
X147709166Y-76713630D02*
X147137738Y-76713630D01*
X147423452Y-76713630D02*
X147423452Y-75713630D01*
X147328214Y-75856488D01*
X147232976Y-75951726D01*
X147137738Y-75999345D01*
%TO.C,SW2*%
X167321261Y-38880583D02*
X167368880Y-38737726D01*
X167368880Y-38499630D01*
X167321261Y-38404392D01*
X167273642Y-38356773D01*
X167178404Y-38309154D01*
X167083166Y-38309154D01*
X166987928Y-38356773D01*
X166940309Y-38404392D01*
X166892690Y-38499630D01*
X166845071Y-38690107D01*
X166797452Y-38785345D01*
X166749833Y-38832964D01*
X166654595Y-38880583D01*
X166559357Y-38880583D01*
X166464119Y-38832964D01*
X166416500Y-38785345D01*
X166368880Y-38690107D01*
X166368880Y-38452011D01*
X166416500Y-38309154D01*
X166368880Y-37975821D02*
X167368880Y-37737726D01*
X166654595Y-37547250D01*
X167368880Y-37356773D01*
X166368880Y-37118678D01*
X166464119Y-36785345D02*
X166416500Y-36737726D01*
X166368880Y-36642488D01*
X166368880Y-36404392D01*
X166416500Y-36309154D01*
X166464119Y-36261535D01*
X166559357Y-36213916D01*
X166654595Y-36213916D01*
X166797452Y-36261535D01*
X167368880Y-36832964D01*
X167368880Y-36213916D01*
%TO.C,J2*%
X135484880Y-72653583D02*
X136199166Y-72653583D01*
X136342023Y-72701202D01*
X136437261Y-72796440D01*
X136484880Y-72939297D01*
X136484880Y-73034535D01*
X135580119Y-72225011D02*
X135532500Y-72177392D01*
X135484880Y-72082154D01*
X135484880Y-71844059D01*
X135532500Y-71748821D01*
X135580119Y-71701202D01*
X135675357Y-71653583D01*
X135770595Y-71653583D01*
X135913452Y-71701202D01*
X136484880Y-72272630D01*
X136484880Y-71653583D01*
%TO.C,SW1*%
X163352166Y-52365011D02*
X163495023Y-52412630D01*
X163733119Y-52412630D01*
X163828357Y-52365011D01*
X163875976Y-52317392D01*
X163923595Y-52222154D01*
X163923595Y-52126916D01*
X163875976Y-52031678D01*
X163828357Y-51984059D01*
X163733119Y-51936440D01*
X163542642Y-51888821D01*
X163447404Y-51841202D01*
X163399785Y-51793583D01*
X163352166Y-51698345D01*
X163352166Y-51603107D01*
X163399785Y-51507869D01*
X163447404Y-51460250D01*
X163542642Y-51412630D01*
X163780738Y-51412630D01*
X163923595Y-51460250D01*
X164256928Y-51412630D02*
X164495023Y-52412630D01*
X164685500Y-51698345D01*
X164875976Y-52412630D01*
X165114071Y-51412630D01*
X166018833Y-52412630D02*
X165447404Y-52412630D01*
X165733119Y-52412630D02*
X165733119Y-51412630D01*
X165637880Y-51555488D01*
X165542642Y-51650726D01*
X165447404Y-51698345D01*
D12*
%TO.C,U1*%
X138914500Y-35978000D02*
X138914500Y-38518000D01*
X156694500Y-38518000D02*
X156694500Y-35978000D01*
X156694500Y-35978000D02*
X138914500Y-35978000D01*
X138914500Y-68998000D02*
X156694500Y-68998000D01*
X156694500Y-68998000D02*
X156694500Y-38518000D01*
X138914500Y-38518000D02*
X138914500Y-68998000D01*
D13*
%TO.C,J1*%
X146042500Y-81461250D02*
X146042500Y-80961250D01*
X145942500Y-81461250D02*
X145942500Y-80961250D01*
X142982500Y-77351250D02*
X142982500Y-82071250D01*
X143932500Y-77051250D02*
X142682500Y-77051250D01*
X142982500Y-79961250D02*
X143592500Y-79961250D01*
X151102500Y-79961250D02*
X150492500Y-79961250D01*
X142682500Y-77051250D02*
X142682500Y-78301250D01*
X142982500Y-78661250D02*
X143592500Y-78661250D01*
X144742500Y-77151250D02*
X144442500Y-77151250D01*
X150492500Y-81461250D02*
X150492500Y-77961250D01*
X151102500Y-77351250D02*
X142982500Y-77351250D01*
X148142500Y-80961250D02*
X148142500Y-81461250D01*
X142982500Y-82071250D02*
X151102500Y-82071250D01*
X143592500Y-77961250D02*
X143592500Y-81461250D01*
X146142500Y-80961250D02*
X146142500Y-81461250D01*
X145542500Y-77961250D02*
X143592500Y-77961250D01*
X145542500Y-77351250D02*
X145542500Y-77961250D01*
X150492500Y-77961250D02*
X148542500Y-77961250D01*
X151102500Y-78661250D02*
X150492500Y-78661250D01*
X148542500Y-77961250D02*
X148542500Y-77351250D01*
X147942500Y-80961250D02*
X148142500Y-80961250D01*
X147942500Y-81461250D02*
X147942500Y-80961250D01*
X144742500Y-77251250D02*
X144442500Y-77251250D01*
X151102500Y-82071250D02*
X151102500Y-77351250D01*
X145942500Y-80961250D02*
X146142500Y-80961250D01*
X148042500Y-81461250D02*
X148042500Y-80961250D01*
X144742500Y-77351250D02*
X144742500Y-77151250D01*
X143592500Y-81461250D02*
X150492500Y-81461250D01*
X144442500Y-77151250D02*
X144442500Y-77351250D01*
%TO.C,SW2*%
X163841500Y-35737250D02*
X163841500Y-36943917D01*
X164081500Y-35737250D02*
X164081500Y-36943917D01*
X163171500Y-39357250D02*
X164441500Y-39357250D01*
X163171500Y-35737250D02*
X163171500Y-39357250D01*
X163721500Y-35737250D02*
X163721500Y-36943917D01*
X166156500Y-33897250D02*
X164846500Y-33897250D01*
X165916500Y-34137250D02*
X164846500Y-34137250D01*
X162816500Y-40958250D02*
X161696500Y-40958250D01*
X166156500Y-33897250D02*
X166156500Y-35280250D01*
X164321500Y-35737250D02*
X164321500Y-36943917D01*
X162766500Y-34137250D02*
X161696500Y-34137250D01*
X164441500Y-39357250D02*
X164441500Y-35737250D01*
X164441500Y-35737250D02*
X163171500Y-35737250D01*
X161696500Y-34137250D02*
X161696500Y-40958250D01*
X163961500Y-35737250D02*
X163961500Y-36943917D01*
X165916500Y-40958250D02*
X164796500Y-40958250D01*
X164201500Y-35737250D02*
X164201500Y-36943917D01*
X163601500Y-35737250D02*
X163601500Y-36943917D01*
X163361500Y-35737250D02*
X163361500Y-36943917D01*
X163481500Y-35737250D02*
X163481500Y-36943917D01*
X165916500Y-34137250D02*
X165916500Y-40958250D01*
X164441500Y-36943917D02*
X163171500Y-36943917D01*
X163241500Y-35737250D02*
X163241500Y-36943917D01*
%TO.C,J2*%
X140072500Y-70990250D02*
X157912500Y-70990250D01*
X140072500Y-73650250D02*
X157912500Y-73650250D01*
X157912500Y-73650250D02*
X157912500Y-70990250D01*
X140072500Y-73650250D02*
X140072500Y-70990250D01*
X137472500Y-72320250D02*
X137472500Y-70990250D01*
X137472500Y-70990250D02*
X138802500Y-70990250D01*
%TO.C,SW1*%
X166495500Y-49005250D02*
X165288833Y-49005250D01*
X166495500Y-49245250D02*
X165288833Y-49245250D01*
X166495500Y-48645250D02*
X165288833Y-48645250D01*
X165288833Y-49485250D02*
X165288833Y-48215250D01*
X162875500Y-49485250D02*
X166495500Y-49485250D01*
X166495500Y-48885250D02*
X165288833Y-48885250D01*
X161274500Y-47860250D02*
X161274500Y-46740250D01*
X166495500Y-48765250D02*
X165288833Y-48765250D01*
X168095500Y-47810250D02*
X168095500Y-46740250D01*
X166495500Y-48285250D02*
X165288833Y-48285250D01*
X166495500Y-49125250D02*
X165288833Y-49125250D01*
X168095500Y-50960250D02*
X168095500Y-49890250D01*
X166495500Y-48215250D02*
X162875500Y-48215250D01*
X168095500Y-46740250D02*
X161274500Y-46740250D01*
X162875500Y-48215250D02*
X162875500Y-49485250D01*
X168095500Y-50960250D02*
X161274500Y-50960250D01*
X166495500Y-49365250D02*
X165288833Y-49365250D01*
X166495500Y-48525250D02*
X165288833Y-48525250D01*
X168335500Y-51200250D02*
X166952500Y-51200250D01*
X168335500Y-51200250D02*
X168335500Y-49890250D01*
X166495500Y-49485250D02*
X166495500Y-48215250D01*
X166495500Y-48405250D02*
X165288833Y-48405250D01*
X161274500Y-50960250D02*
X161274500Y-49840250D01*
%TD*%
D14*
%TO.C,U1*%
X155424500Y-39788000D03*
X155424500Y-42328000D03*
X155424500Y-44868000D03*
X155424500Y-47408000D03*
X155424500Y-49948000D03*
X155424500Y-52488000D03*
X155424500Y-55028000D03*
X155424500Y-57568000D03*
X155424500Y-60108000D03*
X155424500Y-62648000D03*
X155424500Y-65188000D03*
X155424500Y-67728000D03*
X140184500Y-67728000D03*
X140184500Y-65188000D03*
X140184500Y-62648000D03*
X140184500Y-60108000D03*
X140184500Y-57568000D03*
X140184500Y-55028000D03*
X140184500Y-52488000D03*
X140184500Y-49948000D03*
X140184500Y-47408000D03*
X140184500Y-44868000D03*
X140184500Y-42328000D03*
X140184500Y-39788000D03*
%TD*%
%LPC*%
D15*
%TO.C,MX30*%
X149973159Y-131739705D03*
D16*
X146843750Y-127000000D03*
D15*
X150948455Y-124970443D03*
D17*
X149383750Y-122600591D03*
X144303750Y-131399409D03*
D18*
X146923937Y-140831111D03*
X158861937Y-120153889D03*
D16*
X133725710Y-133211111D03*
X145663710Y-112533889D03*
%TD*%
D15*
%TO.C,MX29*%
X132510659Y-121420955D03*
D16*
X129381250Y-116681250D03*
D15*
X133485955Y-114651693D03*
D17*
X131921250Y-112281841D03*
X126841250Y-121080659D03*
D18*
X129461437Y-130512361D03*
X141399437Y-109835139D03*
D16*
X116263210Y-122892361D03*
X128201210Y-102215139D03*
%TD*%
%TO.C,MX28*%
X82550000Y-100012500D03*
D17*
X87630000Y-100012500D03*
X77470000Y-100012500D03*
%TD*%
%TO.C,MX23*%
X106680000Y-83343750D03*
D16*
X101600000Y-83343750D03*
D17*
X96520000Y-83343750D03*
%TD*%
D14*
%TO.C,U1*%
X155424500Y-39788000D03*
X155424500Y-42328000D03*
X155424500Y-44868000D03*
X155424500Y-47408000D03*
X155424500Y-49948000D03*
X155424500Y-52488000D03*
X155424500Y-55028000D03*
X155424500Y-57568000D03*
X155424500Y-60108000D03*
X155424500Y-62648000D03*
X155424500Y-65188000D03*
X155424500Y-67728000D03*
X140184500Y-67728000D03*
X140184500Y-65188000D03*
X140184500Y-62648000D03*
X140184500Y-60108000D03*
X140184500Y-57568000D03*
X140184500Y-55028000D03*
X140184500Y-52488000D03*
X140184500Y-49948000D03*
X140184500Y-47408000D03*
X140184500Y-44868000D03*
X140184500Y-42328000D03*
X140184500Y-39788000D03*
%TD*%
D16*
%TO.C,MX26*%
X44450000Y-107156250D03*
D17*
X39370000Y-107156250D03*
X49530000Y-107156250D03*
%TD*%
%TO.C,MX1*%
X20320000Y-30956250D03*
X30480000Y-30956250D03*
D16*
X25400000Y-30956250D03*
%TD*%
D17*
%TO.C,MX16*%
X77470000Y-61912500D03*
X87630000Y-61912500D03*
D16*
X82550000Y-61912500D03*
%TD*%
D17*
%TO.C,MX22*%
X77470000Y-80962500D03*
D16*
X82550000Y-80962500D03*
D17*
X87630000Y-80962500D03*
%TD*%
%TO.C,MX25*%
X20320000Y-107156250D03*
X30480000Y-107156250D03*
D16*
X25400000Y-107156250D03*
%TD*%
D17*
%TO.C,MX3*%
X68580000Y-26193750D03*
D16*
X63500000Y-26193750D03*
D17*
X58420000Y-26193750D03*
%TD*%
%TO.C,MX2*%
X49530000Y-30956250D03*
D16*
X44450000Y-30956250D03*
D17*
X39370000Y-30956250D03*
%TD*%
%TO.C,MX11*%
X106680000Y-45243750D03*
D16*
X101600000Y-45243750D03*
D17*
X96520000Y-45243750D03*
%TD*%
%TO.C,MX5*%
X96520000Y-26193750D03*
X106680000Y-26193750D03*
D16*
X101600000Y-26193750D03*
%TD*%
D17*
%TO.C,MX21*%
X58420000Y-83343750D03*
D16*
X63500000Y-83343750D03*
D17*
X68580000Y-83343750D03*
%TD*%
%TO.C,MX7*%
X20320000Y-50006250D03*
D16*
X25400000Y-50006250D03*
D17*
X30480000Y-50006250D03*
%TD*%
%TO.C,MX20*%
X39370000Y-88106250D03*
D16*
X44450000Y-88106250D03*
D17*
X49530000Y-88106250D03*
%TD*%
%TO.C,MX4*%
X87630000Y-23812500D03*
X77470000Y-23812500D03*
D16*
X82550000Y-23812500D03*
%TD*%
D19*
%TO.C,J1*%
X149042500Y-79161250D03*
X147042500Y-79161250D03*
D20*
X145042500Y-79161250D03*
%TD*%
D17*
%TO.C,MX19*%
X20320000Y-88106250D03*
X30480000Y-88106250D03*
D16*
X25400000Y-88106250D03*
%TD*%
D17*
%TO.C,MX15*%
X58420000Y-64293750D03*
X68580000Y-64293750D03*
D16*
X63500000Y-64293750D03*
%TD*%
D17*
%TO.C,MX8*%
X49530000Y-50006250D03*
X39370000Y-50006250D03*
D16*
X44450000Y-50006250D03*
%TD*%
D17*
%TO.C,MX17*%
X106680000Y-64293750D03*
X96520000Y-64293750D03*
D16*
X101600000Y-64293750D03*
%TD*%
D17*
%TO.C,MX10*%
X77470000Y-42862500D03*
D16*
X82550000Y-42862500D03*
D17*
X87630000Y-42862500D03*
%TD*%
D16*
%TO.C,MX24*%
X120650000Y-85725000D03*
D17*
X115570000Y-85725000D03*
X125730000Y-85725000D03*
%TD*%
D21*
%TO.C,SW2*%
X163806500Y-41357250D03*
D22*
X163806500Y-33737250D03*
%TD*%
D17*
%TO.C,MX14*%
X39370000Y-69056250D03*
X49530000Y-69056250D03*
D16*
X44450000Y-69056250D03*
%TD*%
D23*
%TO.C,J2*%
X156582500Y-72320250D03*
X154042500Y-72320250D03*
X151502500Y-72320250D03*
X148962500Y-72320250D03*
X146422500Y-72320250D03*
X143882500Y-72320250D03*
X141342500Y-72320250D03*
D24*
X138802500Y-72320250D03*
%TD*%
D16*
%TO.C,MX9*%
X63500000Y-45243750D03*
D17*
X58420000Y-45243750D03*
X68580000Y-45243750D03*
%TD*%
D22*
%TO.C,SW1*%
X168495500Y-48850250D03*
D21*
X160875500Y-48850250D03*
%TD*%
D16*
%TO.C,MX27*%
X63500000Y-102393750D03*
D17*
X58420000Y-102393750D03*
X68580000Y-102393750D03*
%TD*%
%TO.C,MX12*%
X125730000Y-47625000D03*
D16*
X120650000Y-47625000D03*
D17*
X115570000Y-47625000D03*
%TD*%
%TO.C,MX18*%
X125730000Y-66675000D03*
D16*
X120650000Y-66675000D03*
D17*
X115570000Y-66675000D03*
%TD*%
%TO.C,MX6*%
X115570000Y-28575000D03*
X125730000Y-28575000D03*
D16*
X120650000Y-28575000D03*
%TD*%
D17*
%TO.C,MX13*%
X20320000Y-69056250D03*
D16*
X25400000Y-69056250D03*
D17*
X30480000Y-69056250D03*
%TD*%
M02*
