G04 #@! TF.GenerationSoftware,KiCad,Pcbnew,(6.0.1-0)*
G04 #@! TF.CreationDate,2022-02-27T00:26:46+08:00*
G04 #@! TF.ProjectId,nut-kb,6e75742d-6b62-42e6-9b69-6361645f7063,rev?*
G04 #@! TF.SameCoordinates,Original*
G04 #@! TF.FileFunction,Legend,Bot*
G04 #@! TF.FilePolarity,Positive*
%FSLAX46Y46*%
G04 Gerber Fmt 4.6, Leading zero omitted, Abs format (unit mm)*
G04 Created by KiCad (PCBNEW (6.0.1-0)) date 2022-02-27 00:26:46*
%MOMM*%
%LPD*%
G01*
G04 APERTURE LIST*
%ADD10C,0.150000*%
%ADD11C,0.125000*%
%ADD12C,0.120000*%
G04 APERTURE END LIST*
D10*
X165527836Y-217078234D02*
X165027836Y-217944259D01*
X165673654Y-217492336D01*
X165605186Y-218277592D01*
X166105186Y-217411567D01*
X165935100Y-218468069D02*
X167012451Y-217935377D01*
X166512451Y-218801402D02*
X166435100Y-217602043D01*
X166759887Y-218944259D02*
X167295997Y-219253783D01*
X167197799Y-218757202D01*
X167321516Y-218828630D01*
X167427805Y-218835010D01*
X167492853Y-218817580D01*
X167581712Y-218758911D01*
X167700759Y-218552715D01*
X167707139Y-218446427D01*
X167689709Y-218381378D01*
X167631040Y-218292519D01*
X167383604Y-218149662D01*
X167277316Y-218143283D01*
X167212267Y-218160712D01*
X168079544Y-219706164D02*
X167667151Y-219468069D01*
X167864007Y-219031866D01*
X167881437Y-219096915D01*
X167940106Y-219185773D01*
X168146303Y-219304821D01*
X168252591Y-219311201D01*
X168317639Y-219293771D01*
X168406498Y-219235102D01*
X168525545Y-219028905D01*
X168531925Y-218922617D01*
X168514495Y-218857568D01*
X168455826Y-218768710D01*
X168249630Y-218649662D01*
X168143342Y-218643283D01*
X168078293Y-218660712D01*
X148976836Y-207578234D02*
X148476836Y-208444259D01*
X149122654Y-207992336D01*
X149054186Y-208777592D01*
X149554186Y-207911567D01*
X149384100Y-208968069D02*
X150461451Y-208435377D01*
X149961451Y-209301402D02*
X149884100Y-208102043D01*
X150208887Y-209444259D02*
X150744997Y-209753783D01*
X150646799Y-209257202D01*
X150770516Y-209328630D01*
X150876805Y-209335010D01*
X150941853Y-209317580D01*
X151030712Y-209258911D01*
X151149759Y-209052715D01*
X151156139Y-208946427D01*
X151138709Y-208881378D01*
X151080040Y-208792519D01*
X150832604Y-208649662D01*
X150726316Y-208643283D01*
X150661267Y-208660712D01*
X151653972Y-209893679D02*
X151987305Y-209316329D01*
X151257299Y-210104546D02*
X151408245Y-209366909D01*
X151944356Y-209676433D01*
X123221904Y-158697380D02*
X123221904Y-157697380D01*
X122888571Y-158411666D01*
X122555238Y-157697380D01*
X122555238Y-158697380D01*
X122174285Y-157697380D02*
X121507619Y-158697380D01*
X121507619Y-157697380D02*
X122174285Y-158697380D01*
X120602857Y-158697380D02*
X121174285Y-158697380D01*
X120888571Y-158697380D02*
X120888571Y-157697380D01*
X120983809Y-157840238D01*
X121079047Y-157935476D01*
X121174285Y-157983095D01*
X120126666Y-158697380D02*
X119936190Y-158697380D01*
X119840952Y-158649761D01*
X119793333Y-158602142D01*
X119698095Y-158459285D01*
X119650476Y-158268809D01*
X119650476Y-157887857D01*
X119698095Y-157792619D01*
X119745714Y-157745000D01*
X119840952Y-157697380D01*
X120031428Y-157697380D01*
X120126666Y-157745000D01*
X120174285Y-157792619D01*
X120221904Y-157887857D01*
X120221904Y-158125952D01*
X120174285Y-158221190D01*
X120126666Y-158268809D01*
X120031428Y-158316428D01*
X119840952Y-158316428D01*
X119745714Y-158268809D01*
X119698095Y-158221190D01*
X119650476Y-158125952D01*
X46745714Y-145697380D02*
X46745714Y-144697380D01*
X46412380Y-145411666D01*
X46079047Y-144697380D01*
X46079047Y-145697380D01*
X45698095Y-144697380D02*
X45031428Y-145697380D01*
X45031428Y-144697380D02*
X45698095Y-145697380D01*
X44507619Y-145125952D02*
X44602857Y-145078333D01*
X44650476Y-145030714D01*
X44698095Y-144935476D01*
X44698095Y-144887857D01*
X44650476Y-144792619D01*
X44602857Y-144745000D01*
X44507619Y-144697380D01*
X44317142Y-144697380D01*
X44221904Y-144745000D01*
X44174285Y-144792619D01*
X44126666Y-144887857D01*
X44126666Y-144935476D01*
X44174285Y-145030714D01*
X44221904Y-145078333D01*
X44317142Y-145125952D01*
X44507619Y-145125952D01*
X44602857Y-145173571D01*
X44650476Y-145221190D01*
X44698095Y-145316428D01*
X44698095Y-145506904D01*
X44650476Y-145602142D01*
X44602857Y-145649761D01*
X44507619Y-145697380D01*
X44317142Y-145697380D01*
X44221904Y-145649761D01*
X44174285Y-145602142D01*
X44126666Y-145506904D01*
X44126666Y-145316428D01*
X44174285Y-145221190D01*
X44221904Y-145173571D01*
X44317142Y-145125952D01*
X66221904Y-181697380D02*
X66221904Y-180697380D01*
X65888571Y-181411666D01*
X65555238Y-180697380D01*
X65555238Y-181697380D01*
X65174285Y-180697380D02*
X64507619Y-181697380D01*
X64507619Y-180697380D02*
X65174285Y-181697380D01*
X64174285Y-180792619D02*
X64126666Y-180745000D01*
X64031428Y-180697380D01*
X63793333Y-180697380D01*
X63698095Y-180745000D01*
X63650476Y-180792619D01*
X63602857Y-180887857D01*
X63602857Y-180983095D01*
X63650476Y-181125952D01*
X64221904Y-181697380D01*
X63602857Y-181697380D01*
X63269523Y-180697380D02*
X62650476Y-180697380D01*
X62983809Y-181078333D01*
X62840952Y-181078333D01*
X62745714Y-181125952D01*
X62698095Y-181173571D01*
X62650476Y-181268809D01*
X62650476Y-181506904D01*
X62698095Y-181602142D01*
X62745714Y-181649761D01*
X62840952Y-181697380D01*
X63126666Y-181697380D01*
X63221904Y-181649761D01*
X63269523Y-181602142D01*
X65745714Y-145697380D02*
X65745714Y-144697380D01*
X65412380Y-145411666D01*
X65079047Y-144697380D01*
X65079047Y-145697380D01*
X64698095Y-144697380D02*
X64031428Y-145697380D01*
X64031428Y-144697380D02*
X64698095Y-145697380D01*
X63602857Y-145697380D02*
X63412380Y-145697380D01*
X63317142Y-145649761D01*
X63269523Y-145602142D01*
X63174285Y-145459285D01*
X63126666Y-145268809D01*
X63126666Y-144887857D01*
X63174285Y-144792619D01*
X63221904Y-144745000D01*
X63317142Y-144697380D01*
X63507619Y-144697380D01*
X63602857Y-144745000D01*
X63650476Y-144792619D01*
X63698095Y-144887857D01*
X63698095Y-145125952D01*
X63650476Y-145221190D01*
X63602857Y-145268809D01*
X63507619Y-145316428D01*
X63317142Y-145316428D01*
X63221904Y-145268809D01*
X63174285Y-145221190D01*
X63126666Y-145125952D01*
X104221904Y-138697380D02*
X104221904Y-137697380D01*
X103888571Y-138411666D01*
X103555238Y-137697380D01*
X103555238Y-138697380D01*
X103174285Y-137697380D02*
X102507619Y-138697380D01*
X102507619Y-137697380D02*
X103174285Y-138697380D01*
X101602857Y-138697380D02*
X102174285Y-138697380D01*
X101888571Y-138697380D02*
X101888571Y-137697380D01*
X101983809Y-137840238D01*
X102079047Y-137935476D01*
X102174285Y-137983095D01*
X100650476Y-138697380D02*
X101221904Y-138697380D01*
X100936190Y-138697380D02*
X100936190Y-137697380D01*
X101031428Y-137840238D01*
X101126666Y-137935476D01*
X101221904Y-137983095D01*
X122745714Y-122697380D02*
X122745714Y-121697380D01*
X122412380Y-122411666D01*
X122079047Y-121697380D01*
X122079047Y-122697380D01*
X121698095Y-121697380D02*
X121031428Y-122697380D01*
X121031428Y-121697380D02*
X121698095Y-122697380D01*
X120174285Y-121697380D02*
X120650476Y-121697380D01*
X120698095Y-122173571D01*
X120650476Y-122125952D01*
X120555238Y-122078333D01*
X120317142Y-122078333D01*
X120221904Y-122125952D01*
X120174285Y-122173571D01*
X120126666Y-122268809D01*
X120126666Y-122506904D01*
X120174285Y-122602142D01*
X120221904Y-122649761D01*
X120317142Y-122697380D01*
X120555238Y-122697380D01*
X120650476Y-122649761D01*
X120698095Y-122602142D01*
X46745714Y-127697380D02*
X46745714Y-126697380D01*
X46412380Y-127411666D01*
X46079047Y-126697380D01*
X46079047Y-127697380D01*
X45698095Y-126697380D02*
X45031428Y-127697380D01*
X45031428Y-126697380D02*
X45698095Y-127697380D01*
X44126666Y-127697380D02*
X44698095Y-127697380D01*
X44412380Y-127697380D02*
X44412380Y-126697380D01*
X44507619Y-126840238D01*
X44602857Y-126935476D01*
X44698095Y-126983095D01*
X85221904Y-194697380D02*
X85221904Y-193697380D01*
X84888571Y-194411666D01*
X84555238Y-193697380D01*
X84555238Y-194697380D01*
X84174285Y-193697380D02*
X83507619Y-194697380D01*
X83507619Y-193697380D02*
X84174285Y-194697380D01*
X83221904Y-193697380D02*
X82602857Y-193697380D01*
X82936190Y-194078333D01*
X82793333Y-194078333D01*
X82698095Y-194125952D01*
X82650476Y-194173571D01*
X82602857Y-194268809D01*
X82602857Y-194506904D01*
X82650476Y-194602142D01*
X82698095Y-194649761D01*
X82793333Y-194697380D01*
X83079047Y-194697380D01*
X83174285Y-194649761D01*
X83221904Y-194602142D01*
X81650476Y-194697380D02*
X82221904Y-194697380D01*
X81936190Y-194697380D02*
X81936190Y-193697380D01*
X82031428Y-193840238D01*
X82126666Y-193935476D01*
X82221904Y-193983095D01*
X104221904Y-174697380D02*
X104221904Y-173697380D01*
X103888571Y-174411666D01*
X103555238Y-173697380D01*
X103555238Y-174697380D01*
X103174285Y-173697380D02*
X102507619Y-174697380D01*
X102507619Y-173697380D02*
X103174285Y-174697380D01*
X102174285Y-173792619D02*
X102126666Y-173745000D01*
X102031428Y-173697380D01*
X101793333Y-173697380D01*
X101698095Y-173745000D01*
X101650476Y-173792619D01*
X101602857Y-173887857D01*
X101602857Y-173983095D01*
X101650476Y-174125952D01*
X102221904Y-174697380D01*
X101602857Y-174697380D01*
X100698095Y-173697380D02*
X101174285Y-173697380D01*
X101221904Y-174173571D01*
X101174285Y-174125952D01*
X101079047Y-174078333D01*
X100840952Y-174078333D01*
X100745714Y-174125952D01*
X100698095Y-174173571D01*
X100650476Y-174268809D01*
X100650476Y-174506904D01*
X100698095Y-174602142D01*
X100745714Y-174649761D01*
X100840952Y-174697380D01*
X101079047Y-174697380D01*
X101174285Y-174649761D01*
X101221904Y-174602142D01*
X123221904Y-194697380D02*
X123221904Y-193697380D01*
X122888571Y-194411666D01*
X122555238Y-193697380D01*
X122555238Y-194697380D01*
X122174285Y-193697380D02*
X121507619Y-194697380D01*
X121507619Y-193697380D02*
X122174285Y-194697380D01*
X121221904Y-193697380D02*
X120602857Y-193697380D01*
X120936190Y-194078333D01*
X120793333Y-194078333D01*
X120698095Y-194125952D01*
X120650476Y-194173571D01*
X120602857Y-194268809D01*
X120602857Y-194506904D01*
X120650476Y-194602142D01*
X120698095Y-194649761D01*
X120793333Y-194697380D01*
X121079047Y-194697380D01*
X121174285Y-194649761D01*
X121221904Y-194602142D01*
X120269523Y-193697380D02*
X119650476Y-193697380D01*
X119983809Y-194078333D01*
X119840952Y-194078333D01*
X119745714Y-194125952D01*
X119698095Y-194173571D01*
X119650476Y-194268809D01*
X119650476Y-194506904D01*
X119698095Y-194602142D01*
X119745714Y-194649761D01*
X119840952Y-194697380D01*
X120126666Y-194697380D01*
X120221904Y-194649761D01*
X120269523Y-194602142D01*
X161221904Y-161697380D02*
X161221904Y-160697380D01*
X160888571Y-161411666D01*
X160555238Y-160697380D01*
X160555238Y-161697380D01*
X160174285Y-160697380D02*
X159507619Y-161697380D01*
X159507619Y-160697380D02*
X160174285Y-161697380D01*
X159174285Y-160792619D02*
X159126666Y-160745000D01*
X159031428Y-160697380D01*
X158793333Y-160697380D01*
X158698095Y-160745000D01*
X158650476Y-160792619D01*
X158602857Y-160887857D01*
X158602857Y-160983095D01*
X158650476Y-161125952D01*
X159221904Y-161697380D01*
X158602857Y-161697380D01*
X157650476Y-161697380D02*
X158221904Y-161697380D01*
X157936190Y-161697380D02*
X157936190Y-160697380D01*
X158031428Y-160840238D01*
X158126666Y-160935476D01*
X158221904Y-160983095D01*
X160745714Y-125697380D02*
X160745714Y-124697380D01*
X160412380Y-125411666D01*
X160079047Y-124697380D01*
X160079047Y-125697380D01*
X159698095Y-124697380D02*
X159031428Y-125697380D01*
X159031428Y-124697380D02*
X159698095Y-125697380D01*
X158745714Y-124697380D02*
X158079047Y-124697380D01*
X158507619Y-125697380D01*
X66221904Y-163697380D02*
X66221904Y-162697380D01*
X65888571Y-163411666D01*
X65555238Y-162697380D01*
X65555238Y-163697380D01*
X65174285Y-162697380D02*
X64507619Y-163697380D01*
X64507619Y-162697380D02*
X65174285Y-163697380D01*
X63602857Y-163697380D02*
X64174285Y-163697380D01*
X63888571Y-163697380D02*
X63888571Y-162697380D01*
X63983809Y-162840238D01*
X64079047Y-162935476D01*
X64174285Y-162983095D01*
X62745714Y-162697380D02*
X62936190Y-162697380D01*
X63031428Y-162745000D01*
X63079047Y-162792619D01*
X63174285Y-162935476D01*
X63221904Y-163125952D01*
X63221904Y-163506904D01*
X63174285Y-163602142D01*
X63126666Y-163649761D01*
X63031428Y-163697380D01*
X62840952Y-163697380D01*
X62745714Y-163649761D01*
X62698095Y-163602142D01*
X62650476Y-163506904D01*
X62650476Y-163268809D01*
X62698095Y-163173571D01*
X62745714Y-163125952D01*
X62840952Y-163078333D01*
X63031428Y-163078333D01*
X63126666Y-163125952D01*
X63174285Y-163173571D01*
X63221904Y-163268809D01*
X65745714Y-127697380D02*
X65745714Y-126697380D01*
X65412380Y-127411666D01*
X65079047Y-126697380D01*
X65079047Y-127697380D01*
X64698095Y-126697380D02*
X64031428Y-127697380D01*
X64031428Y-126697380D02*
X64698095Y-127697380D01*
X63698095Y-126792619D02*
X63650476Y-126745000D01*
X63555238Y-126697380D01*
X63317142Y-126697380D01*
X63221904Y-126745000D01*
X63174285Y-126792619D01*
X63126666Y-126887857D01*
X63126666Y-126983095D01*
X63174285Y-127125952D01*
X63745714Y-127697380D01*
X63126666Y-127697380D01*
X103745714Y-120697380D02*
X103745714Y-119697380D01*
X103412380Y-120411666D01*
X103079047Y-119697380D01*
X103079047Y-120697380D01*
X102698095Y-119697380D02*
X102031428Y-120697380D01*
X102031428Y-119697380D02*
X102698095Y-120697380D01*
X101221904Y-120030714D02*
X101221904Y-120697380D01*
X101460000Y-119649761D02*
X101698095Y-120364047D01*
X101079047Y-120364047D01*
X85221904Y-176697380D02*
X85221904Y-175697380D01*
X84888571Y-176411666D01*
X84555238Y-175697380D01*
X84555238Y-176697380D01*
X84174285Y-175697380D02*
X83507619Y-176697380D01*
X83507619Y-175697380D02*
X84174285Y-176697380D01*
X83174285Y-175792619D02*
X83126666Y-175745000D01*
X83031428Y-175697380D01*
X82793333Y-175697380D01*
X82698095Y-175745000D01*
X82650476Y-175792619D01*
X82602857Y-175887857D01*
X82602857Y-175983095D01*
X82650476Y-176125952D01*
X83221904Y-176697380D01*
X82602857Y-176697380D01*
X81745714Y-176030714D02*
X81745714Y-176697380D01*
X81983809Y-175649761D02*
X82221904Y-176364047D01*
X81602857Y-176364047D01*
X104221904Y-156697380D02*
X104221904Y-155697380D01*
X103888571Y-156411666D01*
X103555238Y-155697380D01*
X103555238Y-156697380D01*
X103174285Y-155697380D02*
X102507619Y-156697380D01*
X102507619Y-155697380D02*
X103174285Y-156697380D01*
X101602857Y-156697380D02*
X102174285Y-156697380D01*
X101888571Y-156697380D02*
X101888571Y-155697380D01*
X101983809Y-155840238D01*
X102079047Y-155935476D01*
X102174285Y-155983095D01*
X101031428Y-156125952D02*
X101126666Y-156078333D01*
X101174285Y-156030714D01*
X101221904Y-155935476D01*
X101221904Y-155887857D01*
X101174285Y-155792619D01*
X101126666Y-155745000D01*
X101031428Y-155697380D01*
X100840952Y-155697380D01*
X100745714Y-155745000D01*
X100698095Y-155792619D01*
X100650476Y-155887857D01*
X100650476Y-155935476D01*
X100698095Y-156030714D01*
X100745714Y-156078333D01*
X100840952Y-156125952D01*
X101031428Y-156125952D01*
X101126666Y-156173571D01*
X101174285Y-156221190D01*
X101221904Y-156316428D01*
X101221904Y-156506904D01*
X101174285Y-156602142D01*
X101126666Y-156649761D01*
X101031428Y-156697380D01*
X100840952Y-156697380D01*
X100745714Y-156649761D01*
X100698095Y-156602142D01*
X100650476Y-156506904D01*
X100650476Y-156316428D01*
X100698095Y-156221190D01*
X100745714Y-156173571D01*
X100840952Y-156125952D01*
X123221904Y-176697380D02*
X123221904Y-175697380D01*
X122888571Y-176411666D01*
X122555238Y-175697380D01*
X122555238Y-176697380D01*
X122174285Y-175697380D02*
X121507619Y-176697380D01*
X121507619Y-175697380D02*
X122174285Y-176697380D01*
X121174285Y-175792619D02*
X121126666Y-175745000D01*
X121031428Y-175697380D01*
X120793333Y-175697380D01*
X120698095Y-175745000D01*
X120650476Y-175792619D01*
X120602857Y-175887857D01*
X120602857Y-175983095D01*
X120650476Y-176125952D01*
X121221904Y-176697380D01*
X120602857Y-176697380D01*
X119745714Y-175697380D02*
X119936190Y-175697380D01*
X120031428Y-175745000D01*
X120079047Y-175792619D01*
X120174285Y-175935476D01*
X120221904Y-176125952D01*
X120221904Y-176506904D01*
X120174285Y-176602142D01*
X120126666Y-176649761D01*
X120031428Y-176697380D01*
X119840952Y-176697380D01*
X119745714Y-176649761D01*
X119698095Y-176602142D01*
X119650476Y-176506904D01*
X119650476Y-176268809D01*
X119698095Y-176173571D01*
X119745714Y-176125952D01*
X119840952Y-176078333D01*
X120031428Y-176078333D01*
X120126666Y-176125952D01*
X120174285Y-176173571D01*
X120221904Y-176268809D01*
X84745714Y-122697380D02*
X84745714Y-121697380D01*
X84412380Y-122411666D01*
X84079047Y-121697380D01*
X84079047Y-122697380D01*
X83698095Y-121697380D02*
X83031428Y-122697380D01*
X83031428Y-121697380D02*
X83698095Y-122697380D01*
X82745714Y-121697380D02*
X82126666Y-121697380D01*
X82460000Y-122078333D01*
X82317142Y-122078333D01*
X82221904Y-122125952D01*
X82174285Y-122173571D01*
X82126666Y-122268809D01*
X82126666Y-122506904D01*
X82174285Y-122602142D01*
X82221904Y-122649761D01*
X82317142Y-122697380D01*
X82602857Y-122697380D01*
X82698095Y-122649761D01*
X82745714Y-122602142D01*
X142221904Y-143697380D02*
X142221904Y-142697380D01*
X141888571Y-143411666D01*
X141555238Y-142697380D01*
X141555238Y-143697380D01*
X141174285Y-142697380D02*
X140507619Y-143697380D01*
X140507619Y-142697380D02*
X141174285Y-143697380D01*
X139602857Y-143697380D02*
X140174285Y-143697380D01*
X139888571Y-143697380D02*
X139888571Y-142697380D01*
X139983809Y-142840238D01*
X140079047Y-142935476D01*
X140174285Y-142983095D01*
X139269523Y-142697380D02*
X138650476Y-142697380D01*
X138983809Y-143078333D01*
X138840952Y-143078333D01*
X138745714Y-143125952D01*
X138698095Y-143173571D01*
X138650476Y-143268809D01*
X138650476Y-143506904D01*
X138698095Y-143602142D01*
X138745714Y-143649761D01*
X138840952Y-143697380D01*
X139126666Y-143697380D01*
X139221904Y-143649761D01*
X139269523Y-143602142D01*
X142221904Y-179697380D02*
X142221904Y-178697380D01*
X141888571Y-179411666D01*
X141555238Y-178697380D01*
X141555238Y-179697380D01*
X141174285Y-178697380D02*
X140507619Y-179697380D01*
X140507619Y-178697380D02*
X141174285Y-179697380D01*
X140174285Y-178792619D02*
X140126666Y-178745000D01*
X140031428Y-178697380D01*
X139793333Y-178697380D01*
X139698095Y-178745000D01*
X139650476Y-178792619D01*
X139602857Y-178887857D01*
X139602857Y-178983095D01*
X139650476Y-179125952D01*
X140221904Y-179697380D01*
X139602857Y-179697380D01*
X139269523Y-178697380D02*
X138602857Y-178697380D01*
X139031428Y-179697380D01*
X161221904Y-179697380D02*
X161221904Y-178697380D01*
X160888571Y-179411666D01*
X160555238Y-178697380D01*
X160555238Y-179697380D01*
X160174285Y-178697380D02*
X159507619Y-179697380D01*
X159507619Y-178697380D02*
X160174285Y-179697380D01*
X159174285Y-178792619D02*
X159126666Y-178745000D01*
X159031428Y-178697380D01*
X158793333Y-178697380D01*
X158698095Y-178745000D01*
X158650476Y-178792619D01*
X158602857Y-178887857D01*
X158602857Y-178983095D01*
X158650476Y-179125952D01*
X159221904Y-179697380D01*
X158602857Y-179697380D01*
X158031428Y-179125952D02*
X158126666Y-179078333D01*
X158174285Y-179030714D01*
X158221904Y-178935476D01*
X158221904Y-178887857D01*
X158174285Y-178792619D01*
X158126666Y-178745000D01*
X158031428Y-178697380D01*
X157840952Y-178697380D01*
X157745714Y-178745000D01*
X157698095Y-178792619D01*
X157650476Y-178887857D01*
X157650476Y-178935476D01*
X157698095Y-179030714D01*
X157745714Y-179078333D01*
X157840952Y-179125952D01*
X158031428Y-179125952D01*
X158126666Y-179173571D01*
X158174285Y-179221190D01*
X158221904Y-179316428D01*
X158221904Y-179506904D01*
X158174285Y-179602142D01*
X158126666Y-179649761D01*
X158031428Y-179697380D01*
X157840952Y-179697380D01*
X157745714Y-179649761D01*
X157698095Y-179602142D01*
X157650476Y-179506904D01*
X157650476Y-179316428D01*
X157698095Y-179221190D01*
X157745714Y-179173571D01*
X157840952Y-179125952D01*
X47221904Y-199697380D02*
X47221904Y-198697380D01*
X46888571Y-199411666D01*
X46555238Y-198697380D01*
X46555238Y-199697380D01*
X46174285Y-198697380D02*
X45507619Y-199697380D01*
X45507619Y-198697380D02*
X46174285Y-199697380D01*
X45174285Y-198792619D02*
X45126666Y-198745000D01*
X45031428Y-198697380D01*
X44793333Y-198697380D01*
X44698095Y-198745000D01*
X44650476Y-198792619D01*
X44602857Y-198887857D01*
X44602857Y-198983095D01*
X44650476Y-199125952D01*
X45221904Y-199697380D01*
X44602857Y-199697380D01*
X44126666Y-199697380D02*
X43936190Y-199697380D01*
X43840952Y-199649761D01*
X43793333Y-199602142D01*
X43698095Y-199459285D01*
X43650476Y-199268809D01*
X43650476Y-198887857D01*
X43698095Y-198792619D01*
X43745714Y-198745000D01*
X43840952Y-198697380D01*
X44031428Y-198697380D01*
X44126666Y-198745000D01*
X44174285Y-198792619D01*
X44221904Y-198887857D01*
X44221904Y-199125952D01*
X44174285Y-199221190D01*
X44126666Y-199268809D01*
X44031428Y-199316428D01*
X43840952Y-199316428D01*
X43745714Y-199268809D01*
X43698095Y-199221190D01*
X43650476Y-199125952D01*
X85221904Y-158697380D02*
X85221904Y-157697380D01*
X84888571Y-158411666D01*
X84555238Y-157697380D01*
X84555238Y-158697380D01*
X84174285Y-157697380D02*
X83507619Y-158697380D01*
X83507619Y-157697380D02*
X84174285Y-158697380D01*
X82602857Y-158697380D02*
X83174285Y-158697380D01*
X82888571Y-158697380D02*
X82888571Y-157697380D01*
X82983809Y-157840238D01*
X83079047Y-157935476D01*
X83174285Y-157983095D01*
X82269523Y-157697380D02*
X81602857Y-157697380D01*
X82031428Y-158697380D01*
X85221904Y-140697380D02*
X85221904Y-139697380D01*
X84888571Y-140411666D01*
X84555238Y-139697380D01*
X84555238Y-140697380D01*
X84174285Y-139697380D02*
X83507619Y-140697380D01*
X83507619Y-139697380D02*
X84174285Y-140697380D01*
X82602857Y-140697380D02*
X83174285Y-140697380D01*
X82888571Y-140697380D02*
X82888571Y-139697380D01*
X82983809Y-139840238D01*
X83079047Y-139935476D01*
X83174285Y-139983095D01*
X81983809Y-139697380D02*
X81888571Y-139697380D01*
X81793333Y-139745000D01*
X81745714Y-139792619D01*
X81698095Y-139887857D01*
X81650476Y-140078333D01*
X81650476Y-140316428D01*
X81698095Y-140506904D01*
X81745714Y-140602142D01*
X81793333Y-140649761D01*
X81888571Y-140697380D01*
X81983809Y-140697380D01*
X82079047Y-140649761D01*
X82126666Y-140602142D01*
X82174285Y-140506904D01*
X82221904Y-140316428D01*
X82221904Y-140078333D01*
X82174285Y-139887857D01*
X82126666Y-139792619D01*
X82079047Y-139745000D01*
X81983809Y-139697380D01*
X161221904Y-143697380D02*
X161221904Y-142697380D01*
X160888571Y-143411666D01*
X160555238Y-142697380D01*
X160555238Y-143697380D01*
X160174285Y-142697380D02*
X159507619Y-143697380D01*
X159507619Y-142697380D02*
X160174285Y-143697380D01*
X158602857Y-143697380D02*
X159174285Y-143697380D01*
X158888571Y-143697380D02*
X158888571Y-142697380D01*
X158983809Y-142840238D01*
X159079047Y-142935476D01*
X159174285Y-142983095D01*
X157745714Y-143030714D02*
X157745714Y-143697380D01*
X157983809Y-142649761D02*
X158221904Y-143364047D01*
X157602857Y-143364047D01*
D11*
X185873988Y-174351285D02*
X186040654Y-173994142D01*
X186159702Y-174351285D02*
X186159702Y-173601285D01*
X185969226Y-173601285D01*
X185921607Y-173637000D01*
X185897797Y-173672714D01*
X185873988Y-173744142D01*
X185873988Y-173851285D01*
X185897797Y-173922714D01*
X185921607Y-173958428D01*
X185969226Y-173994142D01*
X186159702Y-173994142D01*
X185564464Y-173601285D02*
X185469226Y-173601285D01*
X185421607Y-173637000D01*
X185373988Y-173708428D01*
X185350178Y-173851285D01*
X185350178Y-174101285D01*
X185373988Y-174244142D01*
X185421607Y-174315571D01*
X185469226Y-174351285D01*
X185564464Y-174351285D01*
X185612083Y-174315571D01*
X185659702Y-174244142D01*
X185683511Y-174101285D01*
X185683511Y-173851285D01*
X185659702Y-173708428D01*
X185612083Y-173637000D01*
X185564464Y-173601285D01*
X185183511Y-173601285D02*
X185064464Y-174351285D01*
X184969226Y-173815571D01*
X184873988Y-174351285D01*
X184754940Y-173601285D01*
X184588273Y-173672714D02*
X184564464Y-173637000D01*
X184516845Y-173601285D01*
X184397797Y-173601285D01*
X184350178Y-173637000D01*
X184326369Y-173672714D01*
X184302559Y-173744142D01*
X184302559Y-173815571D01*
X184326369Y-173922714D01*
X184612083Y-174351285D01*
X184302559Y-174351285D01*
X170697797Y-156025000D02*
X170745416Y-155989285D01*
X170816845Y-155989285D01*
X170888273Y-156025000D01*
X170935892Y-156096428D01*
X170959702Y-156167857D01*
X170983511Y-156310714D01*
X170983511Y-156417857D01*
X170959702Y-156560714D01*
X170935892Y-156632142D01*
X170888273Y-156703571D01*
X170816845Y-156739285D01*
X170769226Y-156739285D01*
X170697797Y-156703571D01*
X170673988Y-156667857D01*
X170673988Y-156417857D01*
X170769226Y-156417857D01*
X170459702Y-156739285D02*
X170459702Y-155989285D01*
X170173988Y-156739285D01*
X170173988Y-155989285D01*
X169935892Y-156739285D02*
X169935892Y-155989285D01*
X169816845Y-155989285D01*
X169745416Y-156025000D01*
X169697797Y-156096428D01*
X169673988Y-156167857D01*
X169650178Y-156310714D01*
X169650178Y-156417857D01*
X169673988Y-156560714D01*
X169697797Y-156632142D01*
X169745416Y-156703571D01*
X169816845Y-156739285D01*
X169935892Y-156739285D01*
X185897797Y-161000500D02*
X185945416Y-160964785D01*
X186016845Y-160964785D01*
X186088273Y-161000500D01*
X186135892Y-161071928D01*
X186159702Y-161143357D01*
X186183511Y-161286214D01*
X186183511Y-161393357D01*
X186159702Y-161536214D01*
X186135892Y-161607642D01*
X186088273Y-161679071D01*
X186016845Y-161714785D01*
X185969226Y-161714785D01*
X185897797Y-161679071D01*
X185873988Y-161643357D01*
X185873988Y-161393357D01*
X185969226Y-161393357D01*
X185659702Y-161714785D02*
X185659702Y-160964785D01*
X185373988Y-161714785D01*
X185373988Y-160964785D01*
X185135892Y-161714785D02*
X185135892Y-160964785D01*
X185016845Y-160964785D01*
X184945416Y-161000500D01*
X184897797Y-161071928D01*
X184873988Y-161143357D01*
X184850178Y-161286214D01*
X184850178Y-161393357D01*
X184873988Y-161536214D01*
X184897797Y-161607642D01*
X184945416Y-161679071D01*
X185016845Y-161714785D01*
X185135892Y-161714785D01*
X185873988Y-169339285D02*
X186040654Y-168982142D01*
X186159702Y-169339285D02*
X186159702Y-168589285D01*
X185969226Y-168589285D01*
X185921607Y-168625000D01*
X185897797Y-168660714D01*
X185873988Y-168732142D01*
X185873988Y-168839285D01*
X185897797Y-168910714D01*
X185921607Y-168946428D01*
X185969226Y-168982142D01*
X186159702Y-168982142D01*
X185564464Y-168589285D02*
X185469226Y-168589285D01*
X185421607Y-168625000D01*
X185373988Y-168696428D01*
X185350178Y-168839285D01*
X185350178Y-169089285D01*
X185373988Y-169232142D01*
X185421607Y-169303571D01*
X185469226Y-169339285D01*
X185564464Y-169339285D01*
X185612083Y-169303571D01*
X185659702Y-169232142D01*
X185683511Y-169089285D01*
X185683511Y-168839285D01*
X185659702Y-168696428D01*
X185612083Y-168625000D01*
X185564464Y-168589285D01*
X185183511Y-168589285D02*
X185064464Y-169339285D01*
X184969226Y-168803571D01*
X184873988Y-169339285D01*
X184754940Y-168589285D01*
X184469226Y-168589285D02*
X184421607Y-168589285D01*
X184373988Y-168625000D01*
X184350178Y-168660714D01*
X184326369Y-168732142D01*
X184302559Y-168875000D01*
X184302559Y-169053571D01*
X184326369Y-169196428D01*
X184350178Y-169267857D01*
X184373988Y-169303571D01*
X184421607Y-169339285D01*
X184469226Y-169339285D01*
X184516845Y-169303571D01*
X184540654Y-169267857D01*
X184564464Y-169196428D01*
X184588273Y-169053571D01*
X184588273Y-168875000D01*
X184564464Y-168732142D01*
X184540654Y-168660714D01*
X184516845Y-168625000D01*
X184469226Y-168589285D01*
X170673988Y-176917857D02*
X170697797Y-176953571D01*
X170769226Y-176989285D01*
X170816845Y-176989285D01*
X170888273Y-176953571D01*
X170935892Y-176882142D01*
X170959702Y-176810714D01*
X170983511Y-176667857D01*
X170983511Y-176560714D01*
X170959702Y-176417857D01*
X170935892Y-176346428D01*
X170888273Y-176275000D01*
X170816845Y-176239285D01*
X170769226Y-176239285D01*
X170697797Y-176275000D01*
X170673988Y-176310714D01*
X170364464Y-176239285D02*
X170269226Y-176239285D01*
X170221607Y-176275000D01*
X170173988Y-176346428D01*
X170150178Y-176489285D01*
X170150178Y-176739285D01*
X170173988Y-176882142D01*
X170221607Y-176953571D01*
X170269226Y-176989285D01*
X170364464Y-176989285D01*
X170412083Y-176953571D01*
X170459702Y-176882142D01*
X170483511Y-176739285D01*
X170483511Y-176489285D01*
X170459702Y-176346428D01*
X170412083Y-176275000D01*
X170364464Y-176239285D01*
X169697797Y-176989285D02*
X169935892Y-176989285D01*
X169935892Y-176239285D01*
X169293035Y-176239285D02*
X169531130Y-176239285D01*
X169554940Y-176596428D01*
X169531130Y-176560714D01*
X169483511Y-176525000D01*
X169364464Y-176525000D01*
X169316845Y-176560714D01*
X169293035Y-176596428D01*
X169269226Y-176667857D01*
X169269226Y-176846428D01*
X169293035Y-176917857D01*
X169316845Y-176953571D01*
X169364464Y-176989285D01*
X169483511Y-176989285D01*
X169531130Y-176953571D01*
X169554940Y-176917857D01*
X170673988Y-166723357D02*
X170697797Y-166759071D01*
X170769226Y-166794785D01*
X170816845Y-166794785D01*
X170888273Y-166759071D01*
X170935892Y-166687642D01*
X170959702Y-166616214D01*
X170983511Y-166473357D01*
X170983511Y-166366214D01*
X170959702Y-166223357D01*
X170935892Y-166151928D01*
X170888273Y-166080500D01*
X170816845Y-166044785D01*
X170769226Y-166044785D01*
X170697797Y-166080500D01*
X170673988Y-166116214D01*
X170364464Y-166044785D02*
X170269226Y-166044785D01*
X170221607Y-166080500D01*
X170173988Y-166151928D01*
X170150178Y-166294785D01*
X170150178Y-166544785D01*
X170173988Y-166687642D01*
X170221607Y-166759071D01*
X170269226Y-166794785D01*
X170364464Y-166794785D01*
X170412083Y-166759071D01*
X170459702Y-166687642D01*
X170483511Y-166544785D01*
X170483511Y-166294785D01*
X170459702Y-166151928D01*
X170412083Y-166080500D01*
X170364464Y-166044785D01*
X169697797Y-166794785D02*
X169935892Y-166794785D01*
X169935892Y-166044785D01*
X169269226Y-166794785D02*
X169554940Y-166794785D01*
X169412083Y-166794785D02*
X169412083Y-166044785D01*
X169459702Y-166151928D01*
X169507321Y-166223357D01*
X169554940Y-166259071D01*
X185993035Y-181578428D02*
X185921607Y-181614142D01*
X185897797Y-181649857D01*
X185873988Y-181721285D01*
X185873988Y-181828428D01*
X185897797Y-181899857D01*
X185921607Y-181935571D01*
X185969226Y-181971285D01*
X186159702Y-181971285D01*
X186159702Y-181221285D01*
X185993035Y-181221285D01*
X185945416Y-181257000D01*
X185921607Y-181292714D01*
X185897797Y-181364142D01*
X185897797Y-181435571D01*
X185921607Y-181507000D01*
X185945416Y-181542714D01*
X185993035Y-181578428D01*
X186159702Y-181578428D01*
X185421607Y-181221285D02*
X185659702Y-181221285D01*
X185683511Y-181578428D01*
X185659702Y-181542714D01*
X185612083Y-181507000D01*
X185493035Y-181507000D01*
X185445416Y-181542714D01*
X185421607Y-181578428D01*
X185397797Y-181649857D01*
X185397797Y-181828428D01*
X185421607Y-181899857D01*
X185445416Y-181935571D01*
X185493035Y-181971285D01*
X185612083Y-181971285D01*
X185659702Y-181935571D01*
X185683511Y-181899857D01*
X186231130Y-153344785D02*
X185945416Y-153344785D01*
X186088273Y-154094785D02*
X186088273Y-153344785D01*
X185826369Y-153344785D02*
X185493035Y-154094785D01*
X185493035Y-153344785D02*
X185826369Y-154094785D01*
X185207321Y-153344785D02*
X185159702Y-153344785D01*
X185112083Y-153380500D01*
X185088273Y-153416214D01*
X185064464Y-153487642D01*
X185040654Y-153630500D01*
X185040654Y-153809071D01*
X185064464Y-153951928D01*
X185088273Y-154023357D01*
X185112083Y-154059071D01*
X185159702Y-154094785D01*
X185207321Y-154094785D01*
X185254940Y-154059071D01*
X185278750Y-154023357D01*
X185302559Y-153951928D01*
X185326369Y-153809071D01*
X185326369Y-153630500D01*
X185302559Y-153487642D01*
X185278750Y-153416214D01*
X185254940Y-153380500D01*
X185207321Y-153344785D01*
X170673988Y-179423357D02*
X170697797Y-179459071D01*
X170769226Y-179494785D01*
X170816845Y-179494785D01*
X170888273Y-179459071D01*
X170935892Y-179387642D01*
X170959702Y-179316214D01*
X170983511Y-179173357D01*
X170983511Y-179066214D01*
X170959702Y-178923357D01*
X170935892Y-178851928D01*
X170888273Y-178780500D01*
X170816845Y-178744785D01*
X170769226Y-178744785D01*
X170697797Y-178780500D01*
X170673988Y-178816214D01*
X170364464Y-178744785D02*
X170269226Y-178744785D01*
X170221607Y-178780500D01*
X170173988Y-178851928D01*
X170150178Y-178994785D01*
X170150178Y-179244785D01*
X170173988Y-179387642D01*
X170221607Y-179459071D01*
X170269226Y-179494785D01*
X170364464Y-179494785D01*
X170412083Y-179459071D01*
X170459702Y-179387642D01*
X170483511Y-179244785D01*
X170483511Y-178994785D01*
X170459702Y-178851928D01*
X170412083Y-178780500D01*
X170364464Y-178744785D01*
X169697797Y-179494785D02*
X169935892Y-179494785D01*
X169935892Y-178744785D01*
X169316845Y-178744785D02*
X169412083Y-178744785D01*
X169459702Y-178780500D01*
X169483511Y-178816214D01*
X169531130Y-178923357D01*
X169554940Y-179066214D01*
X169554940Y-179351928D01*
X169531130Y-179423357D01*
X169507321Y-179459071D01*
X169459702Y-179494785D01*
X169364464Y-179494785D01*
X169316845Y-179459071D01*
X169293035Y-179423357D01*
X169269226Y-179351928D01*
X169269226Y-179173357D01*
X169293035Y-179101928D01*
X169316845Y-179066214D01*
X169364464Y-179030500D01*
X169459702Y-179030500D01*
X169507321Y-179066214D01*
X169531130Y-179101928D01*
X169554940Y-179173357D01*
X170673988Y-174406857D02*
X170697797Y-174442571D01*
X170769226Y-174478285D01*
X170816845Y-174478285D01*
X170888273Y-174442571D01*
X170935892Y-174371142D01*
X170959702Y-174299714D01*
X170983511Y-174156857D01*
X170983511Y-174049714D01*
X170959702Y-173906857D01*
X170935892Y-173835428D01*
X170888273Y-173764000D01*
X170816845Y-173728285D01*
X170769226Y-173728285D01*
X170697797Y-173764000D01*
X170673988Y-173799714D01*
X170364464Y-173728285D02*
X170269226Y-173728285D01*
X170221607Y-173764000D01*
X170173988Y-173835428D01*
X170150178Y-173978285D01*
X170150178Y-174228285D01*
X170173988Y-174371142D01*
X170221607Y-174442571D01*
X170269226Y-174478285D01*
X170364464Y-174478285D01*
X170412083Y-174442571D01*
X170459702Y-174371142D01*
X170483511Y-174228285D01*
X170483511Y-173978285D01*
X170459702Y-173835428D01*
X170412083Y-173764000D01*
X170364464Y-173728285D01*
X169697797Y-174478285D02*
X169935892Y-174478285D01*
X169935892Y-173728285D01*
X169316845Y-173978285D02*
X169316845Y-174478285D01*
X169435892Y-173692571D02*
X169554940Y-174228285D01*
X169245416Y-174228285D01*
X171031130Y-160964785D02*
X170864464Y-161714785D01*
X170697797Y-160964785D01*
X170245416Y-161643357D02*
X170269226Y-161679071D01*
X170340654Y-161714785D01*
X170388273Y-161714785D01*
X170459702Y-161679071D01*
X170507321Y-161607642D01*
X170531130Y-161536214D01*
X170554940Y-161393357D01*
X170554940Y-161286214D01*
X170531130Y-161143357D01*
X170507321Y-161071928D01*
X170459702Y-161000500D01*
X170388273Y-160964785D01*
X170340654Y-160964785D01*
X170269226Y-161000500D01*
X170245416Y-161036214D01*
X169745416Y-161643357D02*
X169769226Y-161679071D01*
X169840654Y-161714785D01*
X169888273Y-161714785D01*
X169959702Y-161679071D01*
X170007321Y-161607642D01*
X170031130Y-161536214D01*
X170054940Y-161393357D01*
X170054940Y-161286214D01*
X170031130Y-161143357D01*
X170007321Y-161071928D01*
X169959702Y-161000500D01*
X169888273Y-160964785D01*
X169840654Y-160964785D01*
X169769226Y-161000500D01*
X169745416Y-161036214D01*
X185873988Y-179367785D02*
X186040654Y-179010642D01*
X186159702Y-179367785D02*
X186159702Y-178617785D01*
X185969226Y-178617785D01*
X185921607Y-178653500D01*
X185897797Y-178689214D01*
X185873988Y-178760642D01*
X185873988Y-178867785D01*
X185897797Y-178939214D01*
X185921607Y-178974928D01*
X185969226Y-179010642D01*
X186159702Y-179010642D01*
X185564464Y-178617785D02*
X185469226Y-178617785D01*
X185421607Y-178653500D01*
X185373988Y-178724928D01*
X185350178Y-178867785D01*
X185350178Y-179117785D01*
X185373988Y-179260642D01*
X185421607Y-179332071D01*
X185469226Y-179367785D01*
X185564464Y-179367785D01*
X185612083Y-179332071D01*
X185659702Y-179260642D01*
X185683511Y-179117785D01*
X185683511Y-178867785D01*
X185659702Y-178724928D01*
X185612083Y-178653500D01*
X185564464Y-178617785D01*
X185183511Y-178617785D02*
X185064464Y-179367785D01*
X184969226Y-178832071D01*
X184873988Y-179367785D01*
X184754940Y-178617785D01*
X184350178Y-178867785D02*
X184350178Y-179367785D01*
X184469226Y-178582071D02*
X184588273Y-179117785D01*
X184278750Y-179117785D01*
X185897797Y-158460500D02*
X185945416Y-158424785D01*
X186016845Y-158424785D01*
X186088273Y-158460500D01*
X186135892Y-158531928D01*
X186159702Y-158603357D01*
X186183511Y-158746214D01*
X186183511Y-158853357D01*
X186159702Y-158996214D01*
X186135892Y-159067642D01*
X186088273Y-159139071D01*
X186016845Y-159174785D01*
X185969226Y-159174785D01*
X185897797Y-159139071D01*
X185873988Y-159103357D01*
X185873988Y-158853357D01*
X185969226Y-158853357D01*
X185659702Y-159174785D02*
X185659702Y-158424785D01*
X185373988Y-159174785D01*
X185373988Y-158424785D01*
X185135892Y-159174785D02*
X185135892Y-158424785D01*
X185016845Y-158424785D01*
X184945416Y-158460500D01*
X184897797Y-158531928D01*
X184873988Y-158603357D01*
X184850178Y-158746214D01*
X184850178Y-158853357D01*
X184873988Y-158996214D01*
X184897797Y-159067642D01*
X184945416Y-159139071D01*
X185016845Y-159174785D01*
X185135892Y-159174785D01*
X170673988Y-169199857D02*
X170697797Y-169235571D01*
X170769226Y-169271285D01*
X170816845Y-169271285D01*
X170888273Y-169235571D01*
X170935892Y-169164142D01*
X170959702Y-169092714D01*
X170983511Y-168949857D01*
X170983511Y-168842714D01*
X170959702Y-168699857D01*
X170935892Y-168628428D01*
X170888273Y-168557000D01*
X170816845Y-168521285D01*
X170769226Y-168521285D01*
X170697797Y-168557000D01*
X170673988Y-168592714D01*
X170364464Y-168521285D02*
X170269226Y-168521285D01*
X170221607Y-168557000D01*
X170173988Y-168628428D01*
X170150178Y-168771285D01*
X170150178Y-169021285D01*
X170173988Y-169164142D01*
X170221607Y-169235571D01*
X170269226Y-169271285D01*
X170364464Y-169271285D01*
X170412083Y-169235571D01*
X170459702Y-169164142D01*
X170483511Y-169021285D01*
X170483511Y-168771285D01*
X170459702Y-168628428D01*
X170412083Y-168557000D01*
X170364464Y-168521285D01*
X169697797Y-169271285D02*
X169935892Y-169271285D01*
X169935892Y-168521285D01*
X169554940Y-168592714D02*
X169531130Y-168557000D01*
X169483511Y-168521285D01*
X169364464Y-168521285D01*
X169316845Y-168557000D01*
X169293035Y-168592714D01*
X169269226Y-168664142D01*
X169269226Y-168735571D01*
X169293035Y-168842714D01*
X169578750Y-169271285D01*
X169269226Y-169271285D01*
X186183511Y-164253571D02*
X186112083Y-164289285D01*
X185993035Y-164289285D01*
X185945416Y-164253571D01*
X185921607Y-164217857D01*
X185897797Y-164146428D01*
X185897797Y-164075000D01*
X185921607Y-164003571D01*
X185945416Y-163967857D01*
X185993035Y-163932142D01*
X186088273Y-163896428D01*
X186135892Y-163860714D01*
X186159702Y-163825000D01*
X186183511Y-163753571D01*
X186183511Y-163682142D01*
X186159702Y-163610714D01*
X186135892Y-163575000D01*
X186088273Y-163539285D01*
X185969226Y-163539285D01*
X185897797Y-163575000D01*
X185683511Y-164289285D02*
X185683511Y-163539285D01*
X185564464Y-163539285D01*
X185493035Y-163575000D01*
X185445416Y-163646428D01*
X185421607Y-163717857D01*
X185397797Y-163860714D01*
X185397797Y-163967857D01*
X185421607Y-164110714D01*
X185445416Y-164182142D01*
X185493035Y-164253571D01*
X185564464Y-164289285D01*
X185683511Y-164289285D01*
X185207321Y-164075000D02*
X184969226Y-164075000D01*
X185254940Y-164289285D02*
X185088273Y-163539285D01*
X184921607Y-164289285D01*
X170673988Y-171803357D02*
X170697797Y-171839071D01*
X170769226Y-171874785D01*
X170816845Y-171874785D01*
X170888273Y-171839071D01*
X170935892Y-171767642D01*
X170959702Y-171696214D01*
X170983511Y-171553357D01*
X170983511Y-171446214D01*
X170959702Y-171303357D01*
X170935892Y-171231928D01*
X170888273Y-171160500D01*
X170816845Y-171124785D01*
X170769226Y-171124785D01*
X170697797Y-171160500D01*
X170673988Y-171196214D01*
X170364464Y-171124785D02*
X170269226Y-171124785D01*
X170221607Y-171160500D01*
X170173988Y-171231928D01*
X170150178Y-171374785D01*
X170150178Y-171624785D01*
X170173988Y-171767642D01*
X170221607Y-171839071D01*
X170269226Y-171874785D01*
X170364464Y-171874785D01*
X170412083Y-171839071D01*
X170459702Y-171767642D01*
X170483511Y-171624785D01*
X170483511Y-171374785D01*
X170459702Y-171231928D01*
X170412083Y-171160500D01*
X170364464Y-171124785D01*
X169697797Y-171874785D02*
X169935892Y-171874785D01*
X169935892Y-171124785D01*
X169578750Y-171124785D02*
X169269226Y-171124785D01*
X169435892Y-171410500D01*
X169364464Y-171410500D01*
X169316845Y-171446214D01*
X169293035Y-171481928D01*
X169269226Y-171553357D01*
X169269226Y-171731928D01*
X169293035Y-171803357D01*
X169316845Y-171839071D01*
X169364464Y-171874785D01*
X169507321Y-171874785D01*
X169554940Y-171839071D01*
X169578750Y-171803357D01*
X185873988Y-176989285D02*
X186040654Y-176632142D01*
X186159702Y-176989285D02*
X186159702Y-176239285D01*
X185969226Y-176239285D01*
X185921607Y-176275000D01*
X185897797Y-176310714D01*
X185873988Y-176382142D01*
X185873988Y-176489285D01*
X185897797Y-176560714D01*
X185921607Y-176596428D01*
X185969226Y-176632142D01*
X186159702Y-176632142D01*
X185564464Y-176239285D02*
X185469226Y-176239285D01*
X185421607Y-176275000D01*
X185373988Y-176346428D01*
X185350178Y-176489285D01*
X185350178Y-176739285D01*
X185373988Y-176882142D01*
X185421607Y-176953571D01*
X185469226Y-176989285D01*
X185564464Y-176989285D01*
X185612083Y-176953571D01*
X185659702Y-176882142D01*
X185683511Y-176739285D01*
X185683511Y-176489285D01*
X185659702Y-176346428D01*
X185612083Y-176275000D01*
X185564464Y-176239285D01*
X185183511Y-176239285D02*
X185064464Y-176989285D01*
X184969226Y-176453571D01*
X184873988Y-176989285D01*
X184754940Y-176239285D01*
X184612083Y-176239285D02*
X184302559Y-176239285D01*
X184469226Y-176525000D01*
X184397797Y-176525000D01*
X184350178Y-176560714D01*
X184326369Y-176596428D01*
X184302559Y-176667857D01*
X184302559Y-176846428D01*
X184326369Y-176917857D01*
X184350178Y-176953571D01*
X184397797Y-176989285D01*
X184540654Y-176989285D01*
X184588273Y-176953571D01*
X184612083Y-176917857D01*
X185873988Y-156571285D02*
X186040654Y-156214142D01*
X186159702Y-156571285D02*
X186159702Y-155821285D01*
X185969226Y-155821285D01*
X185921607Y-155857000D01*
X185897797Y-155892714D01*
X185873988Y-155964142D01*
X185873988Y-156071285D01*
X185897797Y-156142714D01*
X185921607Y-156178428D01*
X185969226Y-156214142D01*
X186159702Y-156214142D01*
X185707321Y-155821285D02*
X185373988Y-156571285D01*
X185373988Y-155821285D02*
X185707321Y-156571285D01*
X184921607Y-156571285D02*
X185207321Y-156571285D01*
X185064464Y-156571285D02*
X185064464Y-155821285D01*
X185112083Y-155928428D01*
X185159702Y-155999857D01*
X185207321Y-156035571D01*
X185873988Y-171839285D02*
X186040654Y-171482142D01*
X186159702Y-171839285D02*
X186159702Y-171089285D01*
X185969226Y-171089285D01*
X185921607Y-171125000D01*
X185897797Y-171160714D01*
X185873988Y-171232142D01*
X185873988Y-171339285D01*
X185897797Y-171410714D01*
X185921607Y-171446428D01*
X185969226Y-171482142D01*
X186159702Y-171482142D01*
X185564464Y-171089285D02*
X185469226Y-171089285D01*
X185421607Y-171125000D01*
X185373988Y-171196428D01*
X185350178Y-171339285D01*
X185350178Y-171589285D01*
X185373988Y-171732142D01*
X185421607Y-171803571D01*
X185469226Y-171839285D01*
X185564464Y-171839285D01*
X185612083Y-171803571D01*
X185659702Y-171732142D01*
X185683511Y-171589285D01*
X185683511Y-171339285D01*
X185659702Y-171196428D01*
X185612083Y-171125000D01*
X185564464Y-171089285D01*
X185183511Y-171089285D02*
X185064464Y-171839285D01*
X184969226Y-171303571D01*
X184873988Y-171839285D01*
X184754940Y-171089285D01*
X184302559Y-171839285D02*
X184588273Y-171839285D01*
X184445416Y-171839285D02*
X184445416Y-171089285D01*
X184493035Y-171196428D01*
X184540654Y-171267857D01*
X184588273Y-171303571D01*
X170673988Y-164183357D02*
X170697797Y-164219071D01*
X170769226Y-164254785D01*
X170816845Y-164254785D01*
X170888273Y-164219071D01*
X170935892Y-164147642D01*
X170959702Y-164076214D01*
X170983511Y-163933357D01*
X170983511Y-163826214D01*
X170959702Y-163683357D01*
X170935892Y-163611928D01*
X170888273Y-163540500D01*
X170816845Y-163504785D01*
X170769226Y-163504785D01*
X170697797Y-163540500D01*
X170673988Y-163576214D01*
X170364464Y-163504785D02*
X170269226Y-163504785D01*
X170221607Y-163540500D01*
X170173988Y-163611928D01*
X170150178Y-163754785D01*
X170150178Y-164004785D01*
X170173988Y-164147642D01*
X170221607Y-164219071D01*
X170269226Y-164254785D01*
X170364464Y-164254785D01*
X170412083Y-164219071D01*
X170459702Y-164147642D01*
X170483511Y-164004785D01*
X170483511Y-163754785D01*
X170459702Y-163611928D01*
X170412083Y-163540500D01*
X170364464Y-163504785D01*
X169697797Y-164254785D02*
X169935892Y-164254785D01*
X169935892Y-163504785D01*
X169435892Y-163504785D02*
X169388273Y-163504785D01*
X169340654Y-163540500D01*
X169316845Y-163576214D01*
X169293035Y-163647642D01*
X169269226Y-163790500D01*
X169269226Y-163969071D01*
X169293035Y-164111928D01*
X169316845Y-164183357D01*
X169340654Y-164219071D01*
X169388273Y-164254785D01*
X169435892Y-164254785D01*
X169483511Y-164219071D01*
X169507321Y-164183357D01*
X169531130Y-164111928D01*
X169554940Y-163969071D01*
X169554940Y-163790500D01*
X169531130Y-163647642D01*
X169507321Y-163576214D01*
X169483511Y-163540500D01*
X169435892Y-163504785D01*
X170793035Y-181641928D02*
X170721607Y-181677642D01*
X170697797Y-181713357D01*
X170673988Y-181784785D01*
X170673988Y-181891928D01*
X170697797Y-181963357D01*
X170721607Y-181999071D01*
X170769226Y-182034785D01*
X170959702Y-182034785D01*
X170959702Y-181284785D01*
X170793035Y-181284785D01*
X170745416Y-181320500D01*
X170721607Y-181356214D01*
X170697797Y-181427642D01*
X170697797Y-181499071D01*
X170721607Y-181570500D01*
X170745416Y-181606214D01*
X170793035Y-181641928D01*
X170959702Y-181641928D01*
X170245416Y-181284785D02*
X170340654Y-181284785D01*
X170388273Y-181320500D01*
X170412083Y-181356214D01*
X170459702Y-181463357D01*
X170483511Y-181606214D01*
X170483511Y-181891928D01*
X170459702Y-181963357D01*
X170435892Y-181999071D01*
X170388273Y-182034785D01*
X170293035Y-182034785D01*
X170245416Y-181999071D01*
X170221607Y-181963357D01*
X170197797Y-181891928D01*
X170197797Y-181713357D01*
X170221607Y-181641928D01*
X170245416Y-181606214D01*
X170293035Y-181570500D01*
X170388273Y-181570500D01*
X170435892Y-181606214D01*
X170459702Y-181641928D01*
X170483511Y-181713357D01*
X170793035Y-153701928D02*
X170721607Y-153737642D01*
X170697797Y-153773357D01*
X170673988Y-153844785D01*
X170673988Y-153951928D01*
X170697797Y-154023357D01*
X170721607Y-154059071D01*
X170769226Y-154094785D01*
X170959702Y-154094785D01*
X170959702Y-153344785D01*
X170793035Y-153344785D01*
X170745416Y-153380500D01*
X170721607Y-153416214D01*
X170697797Y-153487642D01*
X170697797Y-153559071D01*
X170721607Y-153630500D01*
X170745416Y-153666214D01*
X170793035Y-153701928D01*
X170959702Y-153701928D01*
X170483511Y-153880500D02*
X170245416Y-153880500D01*
X170531130Y-154094785D02*
X170364464Y-153344785D01*
X170197797Y-154094785D01*
X170102559Y-153344785D02*
X169816845Y-153344785D01*
X169959702Y-154094785D02*
X169959702Y-153344785D01*
X169721607Y-153344785D02*
X169435892Y-153344785D01*
X169578750Y-154094785D02*
X169578750Y-153344785D01*
X169269226Y-153809071D02*
X168888273Y-153809071D01*
X169078750Y-154094785D02*
X169078750Y-153523357D01*
X170673988Y-159174785D02*
X170840654Y-158817642D01*
X170959702Y-159174785D02*
X170959702Y-158424785D01*
X170769226Y-158424785D01*
X170721607Y-158460500D01*
X170697797Y-158496214D01*
X170673988Y-158567642D01*
X170673988Y-158674785D01*
X170697797Y-158746214D01*
X170721607Y-158781928D01*
X170769226Y-158817642D01*
X170959702Y-158817642D01*
X170483511Y-159139071D02*
X170412083Y-159174785D01*
X170293035Y-159174785D01*
X170245416Y-159139071D01*
X170221607Y-159103357D01*
X170197797Y-159031928D01*
X170197797Y-158960500D01*
X170221607Y-158889071D01*
X170245416Y-158853357D01*
X170293035Y-158817642D01*
X170388273Y-158781928D01*
X170435892Y-158746214D01*
X170459702Y-158710500D01*
X170483511Y-158639071D01*
X170483511Y-158567642D01*
X170459702Y-158496214D01*
X170435892Y-158460500D01*
X170388273Y-158424785D01*
X170269226Y-158424785D01*
X170197797Y-158460500D01*
X170054940Y-158424785D02*
X169769226Y-158424785D01*
X169912083Y-159174785D02*
X169912083Y-158424785D01*
X186183511Y-166759071D02*
X186112083Y-166794785D01*
X185993035Y-166794785D01*
X185945416Y-166759071D01*
X185921607Y-166723357D01*
X185897797Y-166651928D01*
X185897797Y-166580500D01*
X185921607Y-166509071D01*
X185945416Y-166473357D01*
X185993035Y-166437642D01*
X186088273Y-166401928D01*
X186135892Y-166366214D01*
X186159702Y-166330500D01*
X186183511Y-166259071D01*
X186183511Y-166187642D01*
X186159702Y-166116214D01*
X186135892Y-166080500D01*
X186088273Y-166044785D01*
X185969226Y-166044785D01*
X185897797Y-166080500D01*
X185397797Y-166723357D02*
X185421607Y-166759071D01*
X185493035Y-166794785D01*
X185540654Y-166794785D01*
X185612083Y-166759071D01*
X185659702Y-166687642D01*
X185683511Y-166616214D01*
X185707321Y-166473357D01*
X185707321Y-166366214D01*
X185683511Y-166223357D01*
X185659702Y-166151928D01*
X185612083Y-166080500D01*
X185540654Y-166044785D01*
X185493035Y-166044785D01*
X185421607Y-166080500D01*
X185397797Y-166116214D01*
X184945416Y-166794785D02*
X185183511Y-166794785D01*
X185183511Y-166044785D01*
D10*
X104221904Y-192697380D02*
X104221904Y-191697380D01*
X103888571Y-192411666D01*
X103555238Y-191697380D01*
X103555238Y-192697380D01*
X103174285Y-191697380D02*
X102507619Y-192697380D01*
X102507619Y-191697380D02*
X103174285Y-192697380D01*
X102221904Y-191697380D02*
X101602857Y-191697380D01*
X101936190Y-192078333D01*
X101793333Y-192078333D01*
X101698095Y-192125952D01*
X101650476Y-192173571D01*
X101602857Y-192268809D01*
X101602857Y-192506904D01*
X101650476Y-192602142D01*
X101698095Y-192649761D01*
X101793333Y-192697380D01*
X102079047Y-192697380D01*
X102174285Y-192649761D01*
X102221904Y-192602142D01*
X101221904Y-191792619D02*
X101174285Y-191745000D01*
X101079047Y-191697380D01*
X100840952Y-191697380D01*
X100745714Y-191745000D01*
X100698095Y-191792619D01*
X100650476Y-191887857D01*
X100650476Y-191983095D01*
X100698095Y-192125952D01*
X101269523Y-192697380D01*
X100650476Y-192697380D01*
X123221904Y-140697380D02*
X123221904Y-139697380D01*
X122888571Y-140411666D01*
X122555238Y-139697380D01*
X122555238Y-140697380D01*
X122174285Y-139697380D02*
X121507619Y-140697380D01*
X121507619Y-139697380D02*
X122174285Y-140697380D01*
X120602857Y-140697380D02*
X121174285Y-140697380D01*
X120888571Y-140697380D02*
X120888571Y-139697380D01*
X120983809Y-139840238D01*
X121079047Y-139935476D01*
X121174285Y-139983095D01*
X120221904Y-139792619D02*
X120174285Y-139745000D01*
X120079047Y-139697380D01*
X119840952Y-139697380D01*
X119745714Y-139745000D01*
X119698095Y-139792619D01*
X119650476Y-139887857D01*
X119650476Y-139983095D01*
X119698095Y-140125952D01*
X120269523Y-140697380D01*
X119650476Y-140697380D01*
X142221904Y-161697380D02*
X142221904Y-160697380D01*
X141888571Y-161411666D01*
X141555238Y-160697380D01*
X141555238Y-161697380D01*
X141174285Y-160697380D02*
X140507619Y-161697380D01*
X140507619Y-160697380D02*
X141174285Y-161697380D01*
X140174285Y-160792619D02*
X140126666Y-160745000D01*
X140031428Y-160697380D01*
X139793333Y-160697380D01*
X139698095Y-160745000D01*
X139650476Y-160792619D01*
X139602857Y-160887857D01*
X139602857Y-160983095D01*
X139650476Y-161125952D01*
X140221904Y-161697380D01*
X139602857Y-161697380D01*
X138983809Y-160697380D02*
X138888571Y-160697380D01*
X138793333Y-160745000D01*
X138745714Y-160792619D01*
X138698095Y-160887857D01*
X138650476Y-161078333D01*
X138650476Y-161316428D01*
X138698095Y-161506904D01*
X138745714Y-161602142D01*
X138793333Y-161649761D01*
X138888571Y-161697380D01*
X138983809Y-161697380D01*
X139079047Y-161649761D01*
X139126666Y-161602142D01*
X139174285Y-161506904D01*
X139221904Y-161316428D01*
X139221904Y-161078333D01*
X139174285Y-160887857D01*
X139126666Y-160792619D01*
X139079047Y-160745000D01*
X138983809Y-160697380D01*
X47221904Y-163697380D02*
X47221904Y-162697380D01*
X46888571Y-163411666D01*
X46555238Y-162697380D01*
X46555238Y-163697380D01*
X46174285Y-162697380D02*
X45507619Y-163697380D01*
X45507619Y-162697380D02*
X46174285Y-163697380D01*
X44602857Y-163697380D02*
X45174285Y-163697380D01*
X44888571Y-163697380D02*
X44888571Y-162697380D01*
X44983809Y-162840238D01*
X45079047Y-162935476D01*
X45174285Y-162983095D01*
X43698095Y-162697380D02*
X44174285Y-162697380D01*
X44221904Y-163173571D01*
X44174285Y-163125952D01*
X44079047Y-163078333D01*
X43840952Y-163078333D01*
X43745714Y-163125952D01*
X43698095Y-163173571D01*
X43650476Y-163268809D01*
X43650476Y-163506904D01*
X43698095Y-163602142D01*
X43745714Y-163649761D01*
X43840952Y-163697380D01*
X44079047Y-163697380D01*
X44174285Y-163649761D01*
X44221904Y-163602142D01*
X66221904Y-199697380D02*
X66221904Y-198697380D01*
X65888571Y-199411666D01*
X65555238Y-198697380D01*
X65555238Y-199697380D01*
X65174285Y-198697380D02*
X64507619Y-199697380D01*
X64507619Y-198697380D02*
X65174285Y-199697380D01*
X64221904Y-198697380D02*
X63602857Y-198697380D01*
X63936190Y-199078333D01*
X63793333Y-199078333D01*
X63698095Y-199125952D01*
X63650476Y-199173571D01*
X63602857Y-199268809D01*
X63602857Y-199506904D01*
X63650476Y-199602142D01*
X63698095Y-199649761D01*
X63793333Y-199697380D01*
X64079047Y-199697380D01*
X64174285Y-199649761D01*
X64221904Y-199602142D01*
X62983809Y-198697380D02*
X62888571Y-198697380D01*
X62793333Y-198745000D01*
X62745714Y-198792619D01*
X62698095Y-198887857D01*
X62650476Y-199078333D01*
X62650476Y-199316428D01*
X62698095Y-199506904D01*
X62745714Y-199602142D01*
X62793333Y-199649761D01*
X62888571Y-199697380D01*
X62983809Y-199697380D01*
X63079047Y-199649761D01*
X63126666Y-199602142D01*
X63174285Y-199506904D01*
X63221904Y-199316428D01*
X63221904Y-199078333D01*
X63174285Y-198887857D01*
X63126666Y-198792619D01*
X63079047Y-198745000D01*
X62983809Y-198697380D01*
X141745714Y-125697380D02*
X141745714Y-124697380D01*
X141412380Y-125411666D01*
X141079047Y-124697380D01*
X141079047Y-125697380D01*
X140698095Y-124697380D02*
X140031428Y-125697380D01*
X140031428Y-124697380D02*
X140698095Y-125697380D01*
X139221904Y-124697380D02*
X139412380Y-124697380D01*
X139507619Y-124745000D01*
X139555238Y-124792619D01*
X139650476Y-124935476D01*
X139698095Y-125125952D01*
X139698095Y-125506904D01*
X139650476Y-125602142D01*
X139602857Y-125649761D01*
X139507619Y-125697380D01*
X139317142Y-125697380D01*
X139221904Y-125649761D01*
X139174285Y-125602142D01*
X139126666Y-125506904D01*
X139126666Y-125268809D01*
X139174285Y-125173571D01*
X139221904Y-125125952D01*
X139317142Y-125078333D01*
X139507619Y-125078333D01*
X139602857Y-125125952D01*
X139650476Y-125173571D01*
X139698095Y-125268809D01*
X47221904Y-181697380D02*
X47221904Y-180697380D01*
X46888571Y-181411666D01*
X46555238Y-180697380D01*
X46555238Y-181697380D01*
X46174285Y-180697380D02*
X45507619Y-181697380D01*
X45507619Y-180697380D02*
X46174285Y-181697380D01*
X45174285Y-180792619D02*
X45126666Y-180745000D01*
X45031428Y-180697380D01*
X44793333Y-180697380D01*
X44698095Y-180745000D01*
X44650476Y-180792619D01*
X44602857Y-180887857D01*
X44602857Y-180983095D01*
X44650476Y-181125952D01*
X45221904Y-181697380D01*
X44602857Y-181697380D01*
X44221904Y-180792619D02*
X44174285Y-180745000D01*
X44079047Y-180697380D01*
X43840952Y-180697380D01*
X43745714Y-180745000D01*
X43698095Y-180792619D01*
X43650476Y-180887857D01*
X43650476Y-180983095D01*
X43698095Y-181125952D01*
X44269523Y-181697380D01*
X43650476Y-181697380D01*
X152101380Y-138171904D02*
X151101380Y-138171904D01*
X151101380Y-138410000D01*
X151149000Y-138552857D01*
X151244238Y-138648095D01*
X151339476Y-138695714D01*
X151529952Y-138743333D01*
X151672809Y-138743333D01*
X151863285Y-138695714D01*
X151958523Y-138648095D01*
X152053761Y-138552857D01*
X152101380Y-138410000D01*
X152101380Y-138171904D01*
X151101380Y-139600476D02*
X151101380Y-139410000D01*
X151149000Y-139314761D01*
X151196619Y-139267142D01*
X151339476Y-139171904D01*
X151529952Y-139124285D01*
X151910904Y-139124285D01*
X152006142Y-139171904D01*
X152053761Y-139219523D01*
X152101380Y-139314761D01*
X152101380Y-139505238D01*
X152053761Y-139600476D01*
X152006142Y-139648095D01*
X151910904Y-139695714D01*
X151672809Y-139695714D01*
X151577571Y-139648095D01*
X151529952Y-139600476D01*
X151482333Y-139505238D01*
X151482333Y-139314761D01*
X151529952Y-139219523D01*
X151577571Y-139171904D01*
X151672809Y-139124285D01*
X152001380Y-173795714D02*
X151001380Y-173795714D01*
X151001380Y-174033809D01*
X151049000Y-174176666D01*
X151144238Y-174271904D01*
X151239476Y-174319523D01*
X151429952Y-174367142D01*
X151572809Y-174367142D01*
X151763285Y-174319523D01*
X151858523Y-174271904D01*
X151953761Y-174176666D01*
X152001380Y-174033809D01*
X152001380Y-173795714D01*
X151096619Y-174748095D02*
X151049000Y-174795714D01*
X151001380Y-174890952D01*
X151001380Y-175129047D01*
X151049000Y-175224285D01*
X151096619Y-175271904D01*
X151191857Y-175319523D01*
X151287095Y-175319523D01*
X151429952Y-175271904D01*
X152001380Y-174700476D01*
X152001380Y-175319523D01*
X151001380Y-175938571D02*
X151001380Y-176033809D01*
X151049000Y-176129047D01*
X151096619Y-176176666D01*
X151191857Y-176224285D01*
X151382333Y-176271904D01*
X151620428Y-176271904D01*
X151810904Y-176224285D01*
X151906142Y-176176666D01*
X151953761Y-176129047D01*
X152001380Y-176033809D01*
X152001380Y-175938571D01*
X151953761Y-175843333D01*
X151906142Y-175795714D01*
X151810904Y-175748095D01*
X151620428Y-175700476D01*
X151382333Y-175700476D01*
X151191857Y-175748095D01*
X151096619Y-175795714D01*
X151049000Y-175843333D01*
X151001380Y-175938571D01*
X57001380Y-193845714D02*
X56001380Y-193845714D01*
X56001380Y-194083809D01*
X56049000Y-194226666D01*
X56144238Y-194321904D01*
X56239476Y-194369523D01*
X56429952Y-194417142D01*
X56572809Y-194417142D01*
X56763285Y-194369523D01*
X56858523Y-194321904D01*
X56953761Y-194226666D01*
X57001380Y-194083809D01*
X57001380Y-193845714D01*
X56096619Y-194798095D02*
X56049000Y-194845714D01*
X56001380Y-194940952D01*
X56001380Y-195179047D01*
X56049000Y-195274285D01*
X56096619Y-195321904D01*
X56191857Y-195369523D01*
X56287095Y-195369523D01*
X56429952Y-195321904D01*
X57001380Y-194750476D01*
X57001380Y-195369523D01*
X56096619Y-195750476D02*
X56049000Y-195798095D01*
X56001380Y-195893333D01*
X56001380Y-196131428D01*
X56049000Y-196226666D01*
X56096619Y-196274285D01*
X56191857Y-196321904D01*
X56287095Y-196321904D01*
X56429952Y-196274285D01*
X57001380Y-195702857D01*
X57001380Y-196321904D01*
X57001380Y-211795714D02*
X56001380Y-211795714D01*
X56001380Y-212033809D01*
X56049000Y-212176666D01*
X56144238Y-212271904D01*
X56239476Y-212319523D01*
X56429952Y-212367142D01*
X56572809Y-212367142D01*
X56763285Y-212319523D01*
X56858523Y-212271904D01*
X56953761Y-212176666D01*
X57001380Y-212033809D01*
X57001380Y-211795714D01*
X56096619Y-212748095D02*
X56049000Y-212795714D01*
X56001380Y-212890952D01*
X56001380Y-213129047D01*
X56049000Y-213224285D01*
X56096619Y-213271904D01*
X56191857Y-213319523D01*
X56287095Y-213319523D01*
X56429952Y-213271904D01*
X57001380Y-212700476D01*
X57001380Y-213319523D01*
X57001380Y-213795714D02*
X57001380Y-213986190D01*
X56953761Y-214081428D01*
X56906142Y-214129047D01*
X56763285Y-214224285D01*
X56572809Y-214271904D01*
X56191857Y-214271904D01*
X56096619Y-214224285D01*
X56049000Y-214176666D01*
X56001380Y-214081428D01*
X56001380Y-213890952D01*
X56049000Y-213795714D01*
X56096619Y-213748095D01*
X56191857Y-213700476D01*
X56429952Y-213700476D01*
X56525190Y-213748095D01*
X56572809Y-213795714D01*
X56620428Y-213890952D01*
X56620428Y-214081428D01*
X56572809Y-214176666D01*
X56525190Y-214224285D01*
X56429952Y-214271904D01*
X114001380Y-204795714D02*
X113001380Y-204795714D01*
X113001380Y-205033809D01*
X113049000Y-205176666D01*
X113144238Y-205271904D01*
X113239476Y-205319523D01*
X113429952Y-205367142D01*
X113572809Y-205367142D01*
X113763285Y-205319523D01*
X113858523Y-205271904D01*
X113953761Y-205176666D01*
X114001380Y-205033809D01*
X114001380Y-204795714D01*
X113001380Y-205700476D02*
X113001380Y-206319523D01*
X113382333Y-205986190D01*
X113382333Y-206129047D01*
X113429952Y-206224285D01*
X113477571Y-206271904D01*
X113572809Y-206319523D01*
X113810904Y-206319523D01*
X113906142Y-206271904D01*
X113953761Y-206224285D01*
X114001380Y-206129047D01*
X114001380Y-205843333D01*
X113953761Y-205748095D01*
X113906142Y-205700476D01*
X113096619Y-206700476D02*
X113049000Y-206748095D01*
X113001380Y-206843333D01*
X113001380Y-207081428D01*
X113049000Y-207176666D01*
X113096619Y-207224285D01*
X113191857Y-207271904D01*
X113287095Y-207271904D01*
X113429952Y-207224285D01*
X114001380Y-206652857D01*
X114001380Y-207271904D01*
X133001380Y-188795714D02*
X132001380Y-188795714D01*
X132001380Y-189033809D01*
X132049000Y-189176666D01*
X132144238Y-189271904D01*
X132239476Y-189319523D01*
X132429952Y-189367142D01*
X132572809Y-189367142D01*
X132763285Y-189319523D01*
X132858523Y-189271904D01*
X132953761Y-189176666D01*
X133001380Y-189033809D01*
X133001380Y-188795714D01*
X132096619Y-189748095D02*
X132049000Y-189795714D01*
X132001380Y-189890952D01*
X132001380Y-190129047D01*
X132049000Y-190224285D01*
X132096619Y-190271904D01*
X132191857Y-190319523D01*
X132287095Y-190319523D01*
X132429952Y-190271904D01*
X133001380Y-189700476D01*
X133001380Y-190319523D01*
X132001380Y-191176666D02*
X132001380Y-190986190D01*
X132049000Y-190890952D01*
X132096619Y-190843333D01*
X132239476Y-190748095D01*
X132429952Y-190700476D01*
X132810904Y-190700476D01*
X132906142Y-190748095D01*
X132953761Y-190795714D01*
X133001380Y-190890952D01*
X133001380Y-191081428D01*
X132953761Y-191176666D01*
X132906142Y-191224285D01*
X132810904Y-191271904D01*
X132572809Y-191271904D01*
X132477571Y-191224285D01*
X132429952Y-191176666D01*
X132382333Y-191081428D01*
X132382333Y-190890952D01*
X132429952Y-190795714D01*
X132477571Y-190748095D01*
X132572809Y-190700476D01*
X76001380Y-211795714D02*
X75001380Y-211795714D01*
X75001380Y-212033809D01*
X75049000Y-212176666D01*
X75144238Y-212271904D01*
X75239476Y-212319523D01*
X75429952Y-212367142D01*
X75572809Y-212367142D01*
X75763285Y-212319523D01*
X75858523Y-212271904D01*
X75953761Y-212176666D01*
X76001380Y-212033809D01*
X76001380Y-211795714D01*
X75001380Y-212700476D02*
X75001380Y-213319523D01*
X75382333Y-212986190D01*
X75382333Y-213129047D01*
X75429952Y-213224285D01*
X75477571Y-213271904D01*
X75572809Y-213319523D01*
X75810904Y-213319523D01*
X75906142Y-213271904D01*
X75953761Y-213224285D01*
X76001380Y-213129047D01*
X76001380Y-212843333D01*
X75953761Y-212748095D01*
X75906142Y-212700476D01*
X75001380Y-213938571D02*
X75001380Y-214033809D01*
X75049000Y-214129047D01*
X75096619Y-214176666D01*
X75191857Y-214224285D01*
X75382333Y-214271904D01*
X75620428Y-214271904D01*
X75810904Y-214224285D01*
X75906142Y-214176666D01*
X75953761Y-214129047D01*
X76001380Y-214033809D01*
X76001380Y-213938571D01*
X75953761Y-213843333D01*
X75906142Y-213795714D01*
X75810904Y-213748095D01*
X75620428Y-213700476D01*
X75382333Y-213700476D01*
X75191857Y-213748095D01*
X75096619Y-213795714D01*
X75049000Y-213843333D01*
X75001380Y-213938571D01*
X171101380Y-138171904D02*
X170101380Y-138171904D01*
X170101380Y-138410000D01*
X170149000Y-138552857D01*
X170244238Y-138648095D01*
X170339476Y-138695714D01*
X170529952Y-138743333D01*
X170672809Y-138743333D01*
X170863285Y-138695714D01*
X170958523Y-138648095D01*
X171053761Y-138552857D01*
X171101380Y-138410000D01*
X171101380Y-138171904D01*
X170101380Y-139076666D02*
X170101380Y-139743333D01*
X171101380Y-139314761D01*
X76001380Y-140171904D02*
X75001380Y-140171904D01*
X75001380Y-140410000D01*
X75049000Y-140552857D01*
X75144238Y-140648095D01*
X75239476Y-140695714D01*
X75429952Y-140743333D01*
X75572809Y-140743333D01*
X75763285Y-140695714D01*
X75858523Y-140648095D01*
X75953761Y-140552857D01*
X76001380Y-140410000D01*
X76001380Y-140171904D01*
X75096619Y-141124285D02*
X75049000Y-141171904D01*
X75001380Y-141267142D01*
X75001380Y-141505238D01*
X75049000Y-141600476D01*
X75096619Y-141648095D01*
X75191857Y-141695714D01*
X75287095Y-141695714D01*
X75429952Y-141648095D01*
X76001380Y-141076666D01*
X76001380Y-141695714D01*
X191422380Y-185266666D02*
X192136666Y-185266666D01*
X192279523Y-185219047D01*
X192374761Y-185123809D01*
X192422380Y-184980952D01*
X192422380Y-184885714D01*
X191422380Y-185647619D02*
X191422380Y-186266666D01*
X191803333Y-185933333D01*
X191803333Y-186076190D01*
X191850952Y-186171428D01*
X191898571Y-186219047D01*
X191993809Y-186266666D01*
X192231904Y-186266666D01*
X192327142Y-186219047D01*
X192374761Y-186171428D01*
X192422380Y-186076190D01*
X192422380Y-185790476D01*
X192374761Y-185695238D01*
X192327142Y-185647619D01*
X133001380Y-152795714D02*
X132001380Y-152795714D01*
X132001380Y-153033809D01*
X132049000Y-153176666D01*
X132144238Y-153271904D01*
X132239476Y-153319523D01*
X132429952Y-153367142D01*
X132572809Y-153367142D01*
X132763285Y-153319523D01*
X132858523Y-153271904D01*
X132953761Y-153176666D01*
X133001380Y-153033809D01*
X133001380Y-152795714D01*
X133001380Y-154319523D02*
X133001380Y-153748095D01*
X133001380Y-154033809D02*
X132001380Y-154033809D01*
X132144238Y-153938571D01*
X132239476Y-153843333D01*
X132287095Y-153748095D01*
X132096619Y-154700476D02*
X132049000Y-154748095D01*
X132001380Y-154843333D01*
X132001380Y-155081428D01*
X132049000Y-155176666D01*
X132096619Y-155224285D01*
X132191857Y-155271904D01*
X132287095Y-155271904D01*
X132429952Y-155224285D01*
X133001380Y-154652857D01*
X133001380Y-155271904D01*
X95001380Y-170795714D02*
X94001380Y-170795714D01*
X94001380Y-171033809D01*
X94049000Y-171176666D01*
X94144238Y-171271904D01*
X94239476Y-171319523D01*
X94429952Y-171367142D01*
X94572809Y-171367142D01*
X94763285Y-171319523D01*
X94858523Y-171271904D01*
X94953761Y-171176666D01*
X95001380Y-171033809D01*
X95001380Y-170795714D01*
X95001380Y-172319523D02*
X95001380Y-171748095D01*
X95001380Y-172033809D02*
X94001380Y-172033809D01*
X94144238Y-171938571D01*
X94239476Y-171843333D01*
X94287095Y-171748095D01*
X94001380Y-172652857D02*
X94001380Y-173319523D01*
X95001380Y-172890952D01*
X152001380Y-191795714D02*
X151001380Y-191795714D01*
X151001380Y-192033809D01*
X151049000Y-192176666D01*
X151144238Y-192271904D01*
X151239476Y-192319523D01*
X151429952Y-192367142D01*
X151572809Y-192367142D01*
X151763285Y-192319523D01*
X151858523Y-192271904D01*
X151953761Y-192176666D01*
X152001380Y-192033809D01*
X152001380Y-191795714D01*
X151096619Y-192748095D02*
X151049000Y-192795714D01*
X151001380Y-192890952D01*
X151001380Y-193129047D01*
X151049000Y-193224285D01*
X151096619Y-193271904D01*
X151191857Y-193319523D01*
X151287095Y-193319523D01*
X151429952Y-193271904D01*
X152001380Y-192700476D01*
X152001380Y-193319523D01*
X151001380Y-193652857D02*
X151001380Y-194319523D01*
X152001380Y-193890952D01*
X152001380Y-155795714D02*
X151001380Y-155795714D01*
X151001380Y-156033809D01*
X151049000Y-156176666D01*
X151144238Y-156271904D01*
X151239476Y-156319523D01*
X151429952Y-156367142D01*
X151572809Y-156367142D01*
X151763285Y-156319523D01*
X151858523Y-156271904D01*
X151953761Y-156176666D01*
X152001380Y-156033809D01*
X152001380Y-155795714D01*
X152001380Y-157319523D02*
X152001380Y-156748095D01*
X152001380Y-157033809D02*
X151001380Y-157033809D01*
X151144238Y-156938571D01*
X151239476Y-156843333D01*
X151287095Y-156748095D01*
X151001380Y-157652857D02*
X151001380Y-158271904D01*
X151382333Y-157938571D01*
X151382333Y-158081428D01*
X151429952Y-158176666D01*
X151477571Y-158224285D01*
X151572809Y-158271904D01*
X151810904Y-158271904D01*
X151906142Y-158224285D01*
X151953761Y-158176666D01*
X152001380Y-158081428D01*
X152001380Y-157795714D01*
X151953761Y-157700476D01*
X151906142Y-157652857D01*
X133101380Y-135171904D02*
X132101380Y-135171904D01*
X132101380Y-135410000D01*
X132149000Y-135552857D01*
X132244238Y-135648095D01*
X132339476Y-135695714D01*
X132529952Y-135743333D01*
X132672809Y-135743333D01*
X132863285Y-135695714D01*
X132958523Y-135648095D01*
X133053761Y-135552857D01*
X133101380Y-135410000D01*
X133101380Y-135171904D01*
X132101380Y-136648095D02*
X132101380Y-136171904D01*
X132577571Y-136124285D01*
X132529952Y-136171904D01*
X132482333Y-136267142D01*
X132482333Y-136505238D01*
X132529952Y-136600476D01*
X132577571Y-136648095D01*
X132672809Y-136695714D01*
X132910904Y-136695714D01*
X133006142Y-136648095D01*
X133053761Y-136600476D01*
X133101380Y-136505238D01*
X133101380Y-136267142D01*
X133053761Y-136171904D01*
X133006142Y-136124285D01*
X76001380Y-193795714D02*
X75001380Y-193795714D01*
X75001380Y-194033809D01*
X75049000Y-194176666D01*
X75144238Y-194271904D01*
X75239476Y-194319523D01*
X75429952Y-194367142D01*
X75572809Y-194367142D01*
X75763285Y-194319523D01*
X75858523Y-194271904D01*
X75953761Y-194176666D01*
X76001380Y-194033809D01*
X76001380Y-193795714D01*
X75096619Y-194748095D02*
X75049000Y-194795714D01*
X75001380Y-194890952D01*
X75001380Y-195129047D01*
X75049000Y-195224285D01*
X75096619Y-195271904D01*
X75191857Y-195319523D01*
X75287095Y-195319523D01*
X75429952Y-195271904D01*
X76001380Y-194700476D01*
X76001380Y-195319523D01*
X75001380Y-195652857D02*
X75001380Y-196271904D01*
X75382333Y-195938571D01*
X75382333Y-196081428D01*
X75429952Y-196176666D01*
X75477571Y-196224285D01*
X75572809Y-196271904D01*
X75810904Y-196271904D01*
X75906142Y-196224285D01*
X75953761Y-196176666D01*
X76001380Y-196081428D01*
X76001380Y-195795714D01*
X75953761Y-195700476D01*
X75906142Y-195652857D01*
X114001380Y-168795714D02*
X113001380Y-168795714D01*
X113001380Y-169033809D01*
X113049000Y-169176666D01*
X113144238Y-169271904D01*
X113239476Y-169319523D01*
X113429952Y-169367142D01*
X113572809Y-169367142D01*
X113763285Y-169319523D01*
X113858523Y-169271904D01*
X113953761Y-169176666D01*
X114001380Y-169033809D01*
X114001380Y-168795714D01*
X114001380Y-170319523D02*
X114001380Y-169748095D01*
X114001380Y-170033809D02*
X113001380Y-170033809D01*
X113144238Y-169938571D01*
X113239476Y-169843333D01*
X113287095Y-169748095D01*
X113429952Y-170890952D02*
X113382333Y-170795714D01*
X113334714Y-170748095D01*
X113239476Y-170700476D01*
X113191857Y-170700476D01*
X113096619Y-170748095D01*
X113049000Y-170795714D01*
X113001380Y-170890952D01*
X113001380Y-171081428D01*
X113049000Y-171176666D01*
X113096619Y-171224285D01*
X113191857Y-171271904D01*
X113239476Y-171271904D01*
X113334714Y-171224285D01*
X113382333Y-171176666D01*
X113429952Y-171081428D01*
X113429952Y-170890952D01*
X113477571Y-170795714D01*
X113525190Y-170748095D01*
X113620428Y-170700476D01*
X113810904Y-170700476D01*
X113906142Y-170748095D01*
X113953761Y-170795714D01*
X114001380Y-170890952D01*
X114001380Y-171081428D01*
X113953761Y-171176666D01*
X113906142Y-171224285D01*
X113810904Y-171271904D01*
X113620428Y-171271904D01*
X113525190Y-171224285D01*
X113477571Y-171176666D01*
X113429952Y-171081428D01*
X57001380Y-158271904D02*
X56001380Y-158271904D01*
X56001380Y-158510000D01*
X56049000Y-158652857D01*
X56144238Y-158748095D01*
X56239476Y-158795714D01*
X56429952Y-158843333D01*
X56572809Y-158843333D01*
X56763285Y-158795714D01*
X56858523Y-158748095D01*
X56953761Y-158652857D01*
X57001380Y-158510000D01*
X57001380Y-158271904D01*
X56429952Y-159414761D02*
X56382333Y-159319523D01*
X56334714Y-159271904D01*
X56239476Y-159224285D01*
X56191857Y-159224285D01*
X56096619Y-159271904D01*
X56049000Y-159319523D01*
X56001380Y-159414761D01*
X56001380Y-159605238D01*
X56049000Y-159700476D01*
X56096619Y-159748095D01*
X56191857Y-159795714D01*
X56239476Y-159795714D01*
X56334714Y-159748095D01*
X56382333Y-159700476D01*
X56429952Y-159605238D01*
X56429952Y-159414761D01*
X56477571Y-159319523D01*
X56525190Y-159271904D01*
X56620428Y-159224285D01*
X56810904Y-159224285D01*
X56906142Y-159271904D01*
X56953761Y-159319523D01*
X57001380Y-159414761D01*
X57001380Y-159605238D01*
X56953761Y-159700476D01*
X56906142Y-159748095D01*
X56810904Y-159795714D01*
X56620428Y-159795714D01*
X56525190Y-159748095D01*
X56477571Y-159700476D01*
X56429952Y-159605238D01*
X133201380Y-206995714D02*
X132201380Y-206995714D01*
X132201380Y-207233809D01*
X132249000Y-207376666D01*
X132344238Y-207471904D01*
X132439476Y-207519523D01*
X132629952Y-207567142D01*
X132772809Y-207567142D01*
X132963285Y-207519523D01*
X133058523Y-207471904D01*
X133153761Y-207376666D01*
X133201380Y-207233809D01*
X133201380Y-206995714D01*
X132201380Y-207900476D02*
X132201380Y-208519523D01*
X132582333Y-208186190D01*
X132582333Y-208329047D01*
X132629952Y-208424285D01*
X132677571Y-208471904D01*
X132772809Y-208519523D01*
X133010904Y-208519523D01*
X133106142Y-208471904D01*
X133153761Y-208424285D01*
X133201380Y-208329047D01*
X133201380Y-208043333D01*
X133153761Y-207948095D01*
X133106142Y-207900476D01*
X132201380Y-208852857D02*
X132201380Y-209471904D01*
X132582333Y-209138571D01*
X132582333Y-209281428D01*
X132629952Y-209376666D01*
X132677571Y-209424285D01*
X132772809Y-209471904D01*
X133010904Y-209471904D01*
X133106142Y-209424285D01*
X133153761Y-209376666D01*
X133201380Y-209281428D01*
X133201380Y-208995714D01*
X133153761Y-208900476D01*
X133106142Y-208852857D01*
X95001380Y-188795714D02*
X94001380Y-188795714D01*
X94001380Y-189033809D01*
X94049000Y-189176666D01*
X94144238Y-189271904D01*
X94239476Y-189319523D01*
X94429952Y-189367142D01*
X94572809Y-189367142D01*
X94763285Y-189319523D01*
X94858523Y-189271904D01*
X94953761Y-189176666D01*
X95001380Y-189033809D01*
X95001380Y-188795714D01*
X94096619Y-189748095D02*
X94049000Y-189795714D01*
X94001380Y-189890952D01*
X94001380Y-190129047D01*
X94049000Y-190224285D01*
X94096619Y-190271904D01*
X94191857Y-190319523D01*
X94287095Y-190319523D01*
X94429952Y-190271904D01*
X95001380Y-189700476D01*
X95001380Y-190319523D01*
X94334714Y-191176666D02*
X95001380Y-191176666D01*
X93953761Y-190938571D02*
X94668047Y-190700476D01*
X94668047Y-191319523D01*
X57652380Y-137661904D02*
X56652380Y-137661904D01*
X56652380Y-137900000D01*
X56700000Y-138042857D01*
X56795238Y-138138095D01*
X56890476Y-138185714D01*
X57080952Y-138233333D01*
X57223809Y-138233333D01*
X57414285Y-138185714D01*
X57509523Y-138138095D01*
X57604761Y-138042857D01*
X57652380Y-137900000D01*
X57652380Y-137661904D01*
X57652380Y-139185714D02*
X57652380Y-138614285D01*
X57652380Y-138900000D02*
X56652380Y-138900000D01*
X56795238Y-138804761D01*
X56890476Y-138709523D01*
X56938095Y-138614285D01*
X76201380Y-158271904D02*
X75201380Y-158271904D01*
X75201380Y-158510000D01*
X75249000Y-158652857D01*
X75344238Y-158748095D01*
X75439476Y-158795714D01*
X75629952Y-158843333D01*
X75772809Y-158843333D01*
X75963285Y-158795714D01*
X76058523Y-158748095D01*
X76153761Y-158652857D01*
X76201380Y-158510000D01*
X76201380Y-158271904D01*
X76201380Y-159319523D02*
X76201380Y-159510000D01*
X76153761Y-159605238D01*
X76106142Y-159652857D01*
X75963285Y-159748095D01*
X75772809Y-159795714D01*
X75391857Y-159795714D01*
X75296619Y-159748095D01*
X75249000Y-159700476D01*
X75201380Y-159605238D01*
X75201380Y-159414761D01*
X75249000Y-159319523D01*
X75296619Y-159271904D01*
X75391857Y-159224285D01*
X75629952Y-159224285D01*
X75725190Y-159271904D01*
X75772809Y-159319523D01*
X75820428Y-159414761D01*
X75820428Y-159605238D01*
X75772809Y-159700476D01*
X75725190Y-159748095D01*
X75629952Y-159795714D01*
X153930967Y-224474588D02*
X153064941Y-223974588D01*
X152945894Y-224180784D01*
X152915704Y-224328312D01*
X152950564Y-224458409D01*
X153009233Y-224547268D01*
X153150381Y-224683745D01*
X153274099Y-224755174D01*
X153462865Y-224809172D01*
X153569154Y-224815552D01*
X153699251Y-224780693D01*
X153811919Y-224680784D01*
X153930967Y-224474588D01*
X152612560Y-224758134D02*
X152303037Y-225294245D01*
X152799618Y-225196047D01*
X152728189Y-225319764D01*
X152721809Y-225426053D01*
X152739239Y-225491101D01*
X152797908Y-225579960D01*
X153004105Y-225699007D01*
X153110393Y-225705387D01*
X153175442Y-225687957D01*
X153264300Y-225629288D01*
X153407157Y-225381852D01*
X153413537Y-225275564D01*
X153396107Y-225210515D01*
X151850656Y-226077792D02*
X152088751Y-225665399D01*
X152524953Y-225862255D01*
X152459905Y-225879685D01*
X152371046Y-225938354D01*
X152251999Y-226144551D01*
X152245619Y-226250839D01*
X152263049Y-226315887D01*
X152321718Y-226404746D01*
X152527914Y-226523793D01*
X152634202Y-226530173D01*
X152699251Y-226512743D01*
X152788110Y-226454074D01*
X152907157Y-226247878D01*
X152913537Y-226141590D01*
X152896107Y-226076541D01*
X138930967Y-215074588D02*
X138064941Y-214574588D01*
X137945894Y-214780784D01*
X137915704Y-214928312D01*
X137950564Y-215058409D01*
X138009233Y-215147268D01*
X138150381Y-215283745D01*
X138274099Y-215355174D01*
X138462865Y-215409172D01*
X138569154Y-215415552D01*
X138699251Y-215380693D01*
X138811919Y-215280784D01*
X138930967Y-215074588D01*
X137612560Y-215358134D02*
X137303037Y-215894245D01*
X137799618Y-215796047D01*
X137728189Y-215919764D01*
X137721809Y-216026053D01*
X137739239Y-216091101D01*
X137797908Y-216179960D01*
X138004105Y-216299007D01*
X138110393Y-216305387D01*
X138175442Y-216287957D01*
X138264300Y-216229288D01*
X138407157Y-215981852D01*
X138413537Y-215875564D01*
X138396107Y-215810515D01*
X137163140Y-216803220D02*
X137740491Y-217136553D01*
X136952273Y-216406547D02*
X137689911Y-216557493D01*
X137380387Y-217093604D01*
X95001380Y-135171904D02*
X94001380Y-135171904D01*
X94001380Y-135410000D01*
X94049000Y-135552857D01*
X94144238Y-135648095D01*
X94239476Y-135695714D01*
X94429952Y-135743333D01*
X94572809Y-135743333D01*
X94763285Y-135695714D01*
X94858523Y-135648095D01*
X94953761Y-135552857D01*
X95001380Y-135410000D01*
X95001380Y-135171904D01*
X94001380Y-136076666D02*
X94001380Y-136695714D01*
X94382333Y-136362380D01*
X94382333Y-136505238D01*
X94429952Y-136600476D01*
X94477571Y-136648095D01*
X94572809Y-136695714D01*
X94810904Y-136695714D01*
X94906142Y-136648095D01*
X94953761Y-136600476D01*
X95001380Y-136505238D01*
X95001380Y-136219523D01*
X94953761Y-136124285D01*
X94906142Y-136076666D01*
X57001380Y-175795714D02*
X56001380Y-175795714D01*
X56001380Y-176033809D01*
X56049000Y-176176666D01*
X56144238Y-176271904D01*
X56239476Y-176319523D01*
X56429952Y-176367142D01*
X56572809Y-176367142D01*
X56763285Y-176319523D01*
X56858523Y-176271904D01*
X56953761Y-176176666D01*
X57001380Y-176033809D01*
X57001380Y-175795714D01*
X57001380Y-177319523D02*
X57001380Y-176748095D01*
X57001380Y-177033809D02*
X56001380Y-177033809D01*
X56144238Y-176938571D01*
X56239476Y-176843333D01*
X56287095Y-176748095D01*
X56001380Y-178224285D02*
X56001380Y-177748095D01*
X56477571Y-177700476D01*
X56429952Y-177748095D01*
X56382333Y-177843333D01*
X56382333Y-178081428D01*
X56429952Y-178176666D01*
X56477571Y-178224285D01*
X56572809Y-178271904D01*
X56810904Y-178271904D01*
X56906142Y-178224285D01*
X56953761Y-178176666D01*
X57001380Y-178081428D01*
X57001380Y-177843333D01*
X56953761Y-177748095D01*
X56906142Y-177700476D01*
X114101380Y-133171904D02*
X113101380Y-133171904D01*
X113101380Y-133410000D01*
X113149000Y-133552857D01*
X113244238Y-133648095D01*
X113339476Y-133695714D01*
X113529952Y-133743333D01*
X113672809Y-133743333D01*
X113863285Y-133695714D01*
X113958523Y-133648095D01*
X114053761Y-133552857D01*
X114101380Y-133410000D01*
X114101380Y-133171904D01*
X113434714Y-134600476D02*
X114101380Y-134600476D01*
X113053761Y-134362380D02*
X113768047Y-134124285D01*
X113768047Y-134743333D01*
X76001380Y-175795714D02*
X75001380Y-175795714D01*
X75001380Y-176033809D01*
X75049000Y-176176666D01*
X75144238Y-176271904D01*
X75239476Y-176319523D01*
X75429952Y-176367142D01*
X75572809Y-176367142D01*
X75763285Y-176319523D01*
X75858523Y-176271904D01*
X75953761Y-176176666D01*
X76001380Y-176033809D01*
X76001380Y-175795714D01*
X76001380Y-177319523D02*
X76001380Y-176748095D01*
X76001380Y-177033809D02*
X75001380Y-177033809D01*
X75144238Y-176938571D01*
X75239476Y-176843333D01*
X75287095Y-176748095D01*
X75001380Y-178176666D02*
X75001380Y-177986190D01*
X75049000Y-177890952D01*
X75096619Y-177843333D01*
X75239476Y-177748095D01*
X75429952Y-177700476D01*
X75810904Y-177700476D01*
X75906142Y-177748095D01*
X75953761Y-177795714D01*
X76001380Y-177890952D01*
X76001380Y-178081428D01*
X75953761Y-178176666D01*
X75906142Y-178224285D01*
X75810904Y-178271904D01*
X75572809Y-178271904D01*
X75477571Y-178224285D01*
X75429952Y-178176666D01*
X75382333Y-178081428D01*
X75382333Y-177890952D01*
X75429952Y-177795714D01*
X75477571Y-177748095D01*
X75572809Y-177700476D01*
X133001380Y-170795714D02*
X132001380Y-170795714D01*
X132001380Y-171033809D01*
X132049000Y-171176666D01*
X132144238Y-171271904D01*
X132239476Y-171319523D01*
X132429952Y-171367142D01*
X132572809Y-171367142D01*
X132763285Y-171319523D01*
X132858523Y-171271904D01*
X132953761Y-171176666D01*
X133001380Y-171033809D01*
X133001380Y-170795714D01*
X133001380Y-172319523D02*
X133001380Y-171748095D01*
X133001380Y-172033809D02*
X132001380Y-172033809D01*
X132144238Y-171938571D01*
X132239476Y-171843333D01*
X132287095Y-171748095D01*
X133001380Y-172795714D02*
X133001380Y-172986190D01*
X132953761Y-173081428D01*
X132906142Y-173129047D01*
X132763285Y-173224285D01*
X132572809Y-173271904D01*
X132191857Y-173271904D01*
X132096619Y-173224285D01*
X132049000Y-173176666D01*
X132001380Y-173081428D01*
X132001380Y-172890952D01*
X132049000Y-172795714D01*
X132096619Y-172748095D01*
X132191857Y-172700476D01*
X132429952Y-172700476D01*
X132525190Y-172748095D01*
X132572809Y-172795714D01*
X132620428Y-172890952D01*
X132620428Y-173081428D01*
X132572809Y-173176666D01*
X132525190Y-173224285D01*
X132429952Y-173271904D01*
X171001380Y-173795714D02*
X170001380Y-173795714D01*
X170001380Y-174033809D01*
X170049000Y-174176666D01*
X170144238Y-174271904D01*
X170239476Y-174319523D01*
X170429952Y-174367142D01*
X170572809Y-174367142D01*
X170763285Y-174319523D01*
X170858523Y-174271904D01*
X170953761Y-174176666D01*
X171001380Y-174033809D01*
X171001380Y-173795714D01*
X170096619Y-174748095D02*
X170049000Y-174795714D01*
X170001380Y-174890952D01*
X170001380Y-175129047D01*
X170049000Y-175224285D01*
X170096619Y-175271904D01*
X170191857Y-175319523D01*
X170287095Y-175319523D01*
X170429952Y-175271904D01*
X171001380Y-174700476D01*
X171001380Y-175319523D01*
X171001380Y-176271904D02*
X171001380Y-175700476D01*
X171001380Y-175986190D02*
X170001380Y-175986190D01*
X170144238Y-175890952D01*
X170239476Y-175795714D01*
X170287095Y-175700476D01*
X171201380Y-193195714D02*
X170201380Y-193195714D01*
X170201380Y-193433809D01*
X170249000Y-193576666D01*
X170344238Y-193671904D01*
X170439476Y-193719523D01*
X170629952Y-193767142D01*
X170772809Y-193767142D01*
X170963285Y-193719523D01*
X171058523Y-193671904D01*
X171153761Y-193576666D01*
X171201380Y-193433809D01*
X171201380Y-193195714D01*
X170296619Y-194148095D02*
X170249000Y-194195714D01*
X170201380Y-194290952D01*
X170201380Y-194529047D01*
X170249000Y-194624285D01*
X170296619Y-194671904D01*
X170391857Y-194719523D01*
X170487095Y-194719523D01*
X170629952Y-194671904D01*
X171201380Y-194100476D01*
X171201380Y-194719523D01*
X170629952Y-195290952D02*
X170582333Y-195195714D01*
X170534714Y-195148095D01*
X170439476Y-195100476D01*
X170391857Y-195100476D01*
X170296619Y-195148095D01*
X170249000Y-195195714D01*
X170201380Y-195290952D01*
X170201380Y-195481428D01*
X170249000Y-195576666D01*
X170296619Y-195624285D01*
X170391857Y-195671904D01*
X170439476Y-195671904D01*
X170534714Y-195624285D01*
X170582333Y-195576666D01*
X170629952Y-195481428D01*
X170629952Y-195290952D01*
X170677571Y-195195714D01*
X170725190Y-195148095D01*
X170820428Y-195100476D01*
X171010904Y-195100476D01*
X171106142Y-195148095D01*
X171153761Y-195195714D01*
X171201380Y-195290952D01*
X171201380Y-195481428D01*
X171153761Y-195576666D01*
X171106142Y-195624285D01*
X171010904Y-195671904D01*
X170820428Y-195671904D01*
X170725190Y-195624285D01*
X170677571Y-195576666D01*
X170629952Y-195481428D01*
X171001380Y-155795714D02*
X170001380Y-155795714D01*
X170001380Y-156033809D01*
X170049000Y-156176666D01*
X170144238Y-156271904D01*
X170239476Y-156319523D01*
X170429952Y-156367142D01*
X170572809Y-156367142D01*
X170763285Y-156319523D01*
X170858523Y-156271904D01*
X170953761Y-156176666D01*
X171001380Y-156033809D01*
X171001380Y-155795714D01*
X171001380Y-157319523D02*
X171001380Y-156748095D01*
X171001380Y-157033809D02*
X170001380Y-157033809D01*
X170144238Y-156938571D01*
X170239476Y-156843333D01*
X170287095Y-156748095D01*
X170334714Y-158176666D02*
X171001380Y-158176666D01*
X169953761Y-157938571D02*
X170668047Y-157700476D01*
X170668047Y-158319523D01*
X114001380Y-186795714D02*
X113001380Y-186795714D01*
X113001380Y-187033809D01*
X113049000Y-187176666D01*
X113144238Y-187271904D01*
X113239476Y-187319523D01*
X113429952Y-187367142D01*
X113572809Y-187367142D01*
X113763285Y-187319523D01*
X113858523Y-187271904D01*
X113953761Y-187176666D01*
X114001380Y-187033809D01*
X114001380Y-186795714D01*
X113096619Y-187748095D02*
X113049000Y-187795714D01*
X113001380Y-187890952D01*
X113001380Y-188129047D01*
X113049000Y-188224285D01*
X113096619Y-188271904D01*
X113191857Y-188319523D01*
X113287095Y-188319523D01*
X113429952Y-188271904D01*
X114001380Y-187700476D01*
X114001380Y-188319523D01*
X113001380Y-189224285D02*
X113001380Y-188748095D01*
X113477571Y-188700476D01*
X113429952Y-188748095D01*
X113382333Y-188843333D01*
X113382333Y-189081428D01*
X113429952Y-189176666D01*
X113477571Y-189224285D01*
X113572809Y-189271904D01*
X113810904Y-189271904D01*
X113906142Y-189224285D01*
X113953761Y-189176666D01*
X114001380Y-189081428D01*
X114001380Y-188843333D01*
X113953761Y-188748095D01*
X113906142Y-188700476D01*
X95001380Y-152795714D02*
X94001380Y-152795714D01*
X94001380Y-153033809D01*
X94049000Y-153176666D01*
X94144238Y-153271904D01*
X94239476Y-153319523D01*
X94429952Y-153367142D01*
X94572809Y-153367142D01*
X94763285Y-153319523D01*
X94858523Y-153271904D01*
X94953761Y-153176666D01*
X95001380Y-153033809D01*
X95001380Y-152795714D01*
X95001380Y-154319523D02*
X95001380Y-153748095D01*
X95001380Y-154033809D02*
X94001380Y-154033809D01*
X94144238Y-153938571D01*
X94239476Y-153843333D01*
X94287095Y-153748095D01*
X94001380Y-154938571D02*
X94001380Y-155033809D01*
X94049000Y-155129047D01*
X94096619Y-155176666D01*
X94191857Y-155224285D01*
X94382333Y-155271904D01*
X94620428Y-155271904D01*
X94810904Y-155224285D01*
X94906142Y-155176666D01*
X94953761Y-155129047D01*
X95001380Y-155033809D01*
X95001380Y-154938571D01*
X94953761Y-154843333D01*
X94906142Y-154795714D01*
X94810904Y-154748095D01*
X94620428Y-154700476D01*
X94382333Y-154700476D01*
X94191857Y-154748095D01*
X94096619Y-154795714D01*
X94049000Y-154843333D01*
X94001380Y-154938571D01*
X95001380Y-206845714D02*
X94001380Y-206845714D01*
X94001380Y-207083809D01*
X94049000Y-207226666D01*
X94144238Y-207321904D01*
X94239476Y-207369523D01*
X94429952Y-207417142D01*
X94572809Y-207417142D01*
X94763285Y-207369523D01*
X94858523Y-207321904D01*
X94953761Y-207226666D01*
X95001380Y-207083809D01*
X95001380Y-206845714D01*
X94001380Y-207750476D02*
X94001380Y-208369523D01*
X94382333Y-208036190D01*
X94382333Y-208179047D01*
X94429952Y-208274285D01*
X94477571Y-208321904D01*
X94572809Y-208369523D01*
X94810904Y-208369523D01*
X94906142Y-208321904D01*
X94953761Y-208274285D01*
X95001380Y-208179047D01*
X95001380Y-207893333D01*
X94953761Y-207798095D01*
X94906142Y-207750476D01*
X95001380Y-209321904D02*
X95001380Y-208750476D01*
X95001380Y-209036190D02*
X94001380Y-209036190D01*
X94144238Y-208940952D01*
X94239476Y-208845714D01*
X94287095Y-208750476D01*
X114001380Y-150795714D02*
X113001380Y-150795714D01*
X113001380Y-151033809D01*
X113049000Y-151176666D01*
X113144238Y-151271904D01*
X113239476Y-151319523D01*
X113429952Y-151367142D01*
X113572809Y-151367142D01*
X113763285Y-151319523D01*
X113858523Y-151271904D01*
X113953761Y-151176666D01*
X114001380Y-151033809D01*
X114001380Y-150795714D01*
X114001380Y-152319523D02*
X114001380Y-151748095D01*
X114001380Y-152033809D02*
X113001380Y-152033809D01*
X113144238Y-151938571D01*
X113239476Y-151843333D01*
X113287095Y-151748095D01*
X114001380Y-153271904D02*
X114001380Y-152700476D01*
X114001380Y-152986190D02*
X113001380Y-152986190D01*
X113144238Y-152890952D01*
X113239476Y-152795714D01*
X113287095Y-152700476D01*
X160137822Y-215937822D02*
X161003848Y-216437822D01*
X159637822Y-216803848D02*
X160137822Y-215937822D01*
X171396152Y-222437822D02*
X172262178Y-222937822D01*
X154003848Y-228562178D02*
X153137822Y-228062178D01*
X172262178Y-222937822D02*
X171762178Y-223803848D01*
X165762178Y-234196152D02*
X165262178Y-235062178D01*
X165262178Y-235062178D02*
X164396152Y-234562178D01*
X153137822Y-228062178D02*
X153637822Y-227196152D01*
X143086822Y-207303848D02*
X143586822Y-206437822D01*
X155711178Y-213437822D02*
X155211178Y-214303848D01*
X136586822Y-218562178D02*
X137086822Y-217696152D01*
X154845152Y-212937822D02*
X155711178Y-213437822D01*
X148711178Y-225562178D02*
X147845152Y-225062178D01*
X143586822Y-206437822D02*
X144452848Y-206937822D01*
X137452848Y-219062178D02*
X136586822Y-218562178D01*
X149211178Y-224696152D02*
X148711178Y-225562178D01*
X128460000Y-173500000D02*
X127460000Y-173500000D01*
X115460000Y-173500000D02*
X114460000Y-173500000D01*
X114460000Y-159500000D02*
X115460000Y-159500000D01*
X128460000Y-159500000D02*
X128460000Y-160500000D01*
X127460000Y-159500000D02*
X128460000Y-159500000D01*
X128460000Y-172500000D02*
X128460000Y-173500000D01*
X114460000Y-160500000D02*
X114460000Y-159500000D01*
X114460000Y-173500000D02*
X114460000Y-172500000D01*
X39460000Y-160500000D02*
X38460000Y-160500000D01*
X52460000Y-160500000D02*
X51460000Y-160500000D01*
X52460000Y-146500000D02*
X52460000Y-147500000D01*
X51460000Y-146500000D02*
X52460000Y-146500000D01*
X52460000Y-159500000D02*
X52460000Y-160500000D01*
X38460000Y-146500000D02*
X39460000Y-146500000D01*
X38460000Y-147500000D02*
X38460000Y-146500000D01*
X38460000Y-160500000D02*
X38460000Y-159500000D01*
X57460000Y-182500000D02*
X58460000Y-182500000D01*
X71460000Y-182500000D02*
X71460000Y-183500000D01*
X58460000Y-196500000D02*
X57460000Y-196500000D01*
X71460000Y-195500000D02*
X71460000Y-196500000D01*
X57460000Y-183500000D02*
X57460000Y-182500000D01*
X71460000Y-196500000D02*
X70460000Y-196500000D01*
X57460000Y-196500000D02*
X57460000Y-195500000D01*
X70460000Y-182500000D02*
X71460000Y-182500000D01*
X71460000Y-146500000D02*
X71460000Y-147500000D01*
X57460000Y-146500000D02*
X58460000Y-146500000D01*
X58460000Y-160500000D02*
X57460000Y-160500000D01*
X57460000Y-160500000D02*
X57460000Y-159500000D01*
X71460000Y-159500000D02*
X71460000Y-160500000D01*
X71460000Y-160500000D02*
X70460000Y-160500000D01*
X70460000Y-146500000D02*
X71460000Y-146500000D01*
X57460000Y-147500000D02*
X57460000Y-146500000D01*
X108460000Y-139500000D02*
X109460000Y-139500000D01*
X109460000Y-139500000D02*
X109460000Y-140500000D01*
X95460000Y-153500000D02*
X95460000Y-152500000D01*
X96460000Y-153500000D02*
X95460000Y-153500000D01*
X95460000Y-140500000D02*
X95460000Y-139500000D01*
X95460000Y-139500000D02*
X96460000Y-139500000D01*
X109460000Y-152500000D02*
X109460000Y-153500000D01*
X109460000Y-153500000D02*
X108460000Y-153500000D01*
X114460000Y-124500000D02*
X114460000Y-123500000D01*
X127460000Y-123500000D02*
X128460000Y-123500000D01*
X114460000Y-137500000D02*
X114460000Y-136500000D01*
X114460000Y-123500000D02*
X115460000Y-123500000D01*
X115460000Y-137500000D02*
X114460000Y-137500000D01*
X128460000Y-123500000D02*
X128460000Y-124500000D01*
X128460000Y-136500000D02*
X128460000Y-137500000D01*
X128460000Y-137500000D02*
X127460000Y-137500000D01*
X39460000Y-142500000D02*
X38460000Y-142500000D01*
X38460000Y-142500000D02*
X38460000Y-141500000D01*
X52460000Y-142500000D02*
X51460000Y-142500000D01*
X38460000Y-128500000D02*
X39460000Y-128500000D01*
X52460000Y-128500000D02*
X52460000Y-129500000D01*
X51460000Y-128500000D02*
X52460000Y-128500000D01*
X52460000Y-141500000D02*
X52460000Y-142500000D01*
X38460000Y-129500000D02*
X38460000Y-128500000D01*
X76460000Y-195500000D02*
X77460000Y-195500000D01*
X76460000Y-209500000D02*
X76460000Y-208500000D01*
X90460000Y-195500000D02*
X90460000Y-196500000D01*
X77460000Y-209500000D02*
X76460000Y-209500000D01*
X90460000Y-209500000D02*
X89460000Y-209500000D01*
X76460000Y-196500000D02*
X76460000Y-195500000D01*
X89460000Y-195500000D02*
X90460000Y-195500000D01*
X90460000Y-208500000D02*
X90460000Y-209500000D01*
X96460000Y-189500000D02*
X95460000Y-189500000D01*
X108460000Y-175500000D02*
X109460000Y-175500000D01*
X95460000Y-175500000D02*
X96460000Y-175500000D01*
X109460000Y-189500000D02*
X108460000Y-189500000D01*
X95460000Y-189500000D02*
X95460000Y-188500000D01*
X95460000Y-176500000D02*
X95460000Y-175500000D01*
X109460000Y-188500000D02*
X109460000Y-189500000D01*
X109460000Y-175500000D02*
X109460000Y-176500000D01*
X128460000Y-208500000D02*
X128460000Y-209500000D01*
X127460000Y-195500000D02*
X128460000Y-195500000D01*
X128460000Y-195500000D02*
X128460000Y-196500000D01*
X114460000Y-196500000D02*
X114460000Y-195500000D01*
X115460000Y-209500000D02*
X114460000Y-209500000D01*
X128460000Y-209500000D02*
X127460000Y-209500000D01*
X114460000Y-209500000D02*
X114460000Y-208500000D01*
X114460000Y-195500000D02*
X115460000Y-195500000D01*
X152460000Y-163500000D02*
X152460000Y-162500000D01*
X166460000Y-176500000D02*
X165460000Y-176500000D01*
X152460000Y-176500000D02*
X152460000Y-175500000D01*
X152460000Y-162500000D02*
X153460000Y-162500000D01*
X166460000Y-175500000D02*
X166460000Y-176500000D01*
X153460000Y-176500000D02*
X152460000Y-176500000D01*
X166460000Y-162500000D02*
X166460000Y-163500000D01*
X165460000Y-162500000D02*
X166460000Y-162500000D01*
X153460000Y-140500000D02*
X152460000Y-140500000D01*
X165460000Y-126500000D02*
X166460000Y-126500000D01*
X166460000Y-140500000D02*
X165460000Y-140500000D01*
X152460000Y-127500000D02*
X152460000Y-126500000D01*
X152460000Y-126500000D02*
X153460000Y-126500000D01*
X166460000Y-139500000D02*
X166460000Y-140500000D01*
X152460000Y-140500000D02*
X152460000Y-139500000D01*
X166460000Y-126500000D02*
X166460000Y-127500000D01*
X57460000Y-178500000D02*
X57460000Y-177500000D01*
X58460000Y-178500000D02*
X57460000Y-178500000D01*
X70460000Y-164500000D02*
X71460000Y-164500000D01*
X57460000Y-165500000D02*
X57460000Y-164500000D01*
X71460000Y-177500000D02*
X71460000Y-178500000D01*
X57460000Y-164500000D02*
X58460000Y-164500000D01*
X71460000Y-164500000D02*
X71460000Y-165500000D01*
X71460000Y-178500000D02*
X70460000Y-178500000D01*
X71460000Y-128500000D02*
X71460000Y-129500000D01*
X70460000Y-128500000D02*
X71460000Y-128500000D01*
X71460000Y-141500000D02*
X71460000Y-142500000D01*
X57460000Y-129500000D02*
X57460000Y-128500000D01*
X57460000Y-142500000D02*
X57460000Y-141500000D01*
X57460000Y-128500000D02*
X58460000Y-128500000D01*
X71460000Y-142500000D02*
X70460000Y-142500000D01*
X58460000Y-142500000D02*
X57460000Y-142500000D01*
X95460000Y-135500000D02*
X95460000Y-134500000D01*
X95460000Y-122500000D02*
X95460000Y-121500000D01*
X96460000Y-135500000D02*
X95460000Y-135500000D01*
X109460000Y-134500000D02*
X109460000Y-135500000D01*
X108460000Y-121500000D02*
X109460000Y-121500000D01*
X95460000Y-121500000D02*
X96460000Y-121500000D01*
X109460000Y-135500000D02*
X108460000Y-135500000D01*
X109460000Y-121500000D02*
X109460000Y-122500000D01*
X76460000Y-178500000D02*
X76460000Y-177500000D01*
X76460000Y-191500000D02*
X76460000Y-190500000D01*
X89460000Y-177500000D02*
X90460000Y-177500000D01*
X76460000Y-177500000D02*
X77460000Y-177500000D01*
X77460000Y-191500000D02*
X76460000Y-191500000D01*
X90460000Y-191500000D02*
X89460000Y-191500000D01*
X90460000Y-190500000D02*
X90460000Y-191500000D01*
X90460000Y-177500000D02*
X90460000Y-178500000D01*
X108460000Y-157500000D02*
X109460000Y-157500000D01*
X109460000Y-170500000D02*
X109460000Y-171500000D01*
X95460000Y-158500000D02*
X95460000Y-157500000D01*
X96460000Y-171500000D02*
X95460000Y-171500000D01*
X95460000Y-171500000D02*
X95460000Y-170500000D01*
X109460000Y-171500000D02*
X108460000Y-171500000D01*
X95460000Y-157500000D02*
X96460000Y-157500000D01*
X109460000Y-157500000D02*
X109460000Y-158500000D01*
X114460000Y-178500000D02*
X114460000Y-177500000D01*
X128460000Y-190500000D02*
X128460000Y-191500000D01*
X115460000Y-191500000D02*
X114460000Y-191500000D01*
X127460000Y-177500000D02*
X128460000Y-177500000D01*
X114460000Y-191500000D02*
X114460000Y-190500000D01*
X114460000Y-177500000D02*
X115460000Y-177500000D01*
X128460000Y-177500000D02*
X128460000Y-178500000D01*
X128460000Y-191500000D02*
X127460000Y-191500000D01*
X76460000Y-124500000D02*
X76460000Y-123500000D01*
X76460000Y-137500000D02*
X76460000Y-136500000D01*
X89460000Y-123500000D02*
X90460000Y-123500000D01*
X90460000Y-123500000D02*
X90460000Y-124500000D01*
X77460000Y-137500000D02*
X76460000Y-137500000D01*
X90460000Y-137500000D02*
X89460000Y-137500000D01*
X90460000Y-136500000D02*
X90460000Y-137500000D01*
X76460000Y-123500000D02*
X77460000Y-123500000D01*
X133460000Y-144500000D02*
X134460000Y-144500000D01*
X147460000Y-157500000D02*
X147460000Y-158500000D01*
X146460000Y-144500000D02*
X147460000Y-144500000D01*
X133460000Y-158500000D02*
X133460000Y-157500000D01*
X147460000Y-144500000D02*
X147460000Y-145500000D01*
X134460000Y-158500000D02*
X133460000Y-158500000D01*
X147460000Y-158500000D02*
X146460000Y-158500000D01*
X133460000Y-145500000D02*
X133460000Y-144500000D01*
X147460000Y-180500000D02*
X147460000Y-181500000D01*
X133460000Y-194500000D02*
X133460000Y-193500000D01*
X147460000Y-193500000D02*
X147460000Y-194500000D01*
X134460000Y-194500000D02*
X133460000Y-194500000D01*
X133460000Y-181500000D02*
X133460000Y-180500000D01*
X146460000Y-180500000D02*
X147460000Y-180500000D01*
X147460000Y-194500000D02*
X146460000Y-194500000D01*
X133460000Y-180500000D02*
X134460000Y-180500000D01*
X153460000Y-194500000D02*
X152460000Y-194500000D01*
X152460000Y-194500000D02*
X152460000Y-193500000D01*
X152460000Y-181500000D02*
X152460000Y-180500000D01*
X166460000Y-193500000D02*
X166460000Y-194500000D01*
X165460000Y-180500000D02*
X166460000Y-180500000D01*
X152460000Y-180500000D02*
X153460000Y-180500000D01*
X166460000Y-180500000D02*
X166460000Y-181500000D01*
X166460000Y-194500000D02*
X165460000Y-194500000D01*
X38460000Y-214500000D02*
X38460000Y-213500000D01*
X51460000Y-200500000D02*
X52460000Y-200500000D01*
X38460000Y-201500000D02*
X38460000Y-200500000D01*
X52460000Y-214500000D02*
X51460000Y-214500000D01*
X38460000Y-200500000D02*
X39460000Y-200500000D01*
X39460000Y-214500000D02*
X38460000Y-214500000D01*
X52460000Y-213500000D02*
X52460000Y-214500000D01*
X52460000Y-200500000D02*
X52460000Y-201500000D01*
X76460000Y-173500000D02*
X76460000Y-172500000D01*
X76460000Y-159500000D02*
X77460000Y-159500000D01*
X90460000Y-173500000D02*
X89460000Y-173500000D01*
X76460000Y-160500000D02*
X76460000Y-159500000D01*
X77460000Y-173500000D02*
X76460000Y-173500000D01*
X89460000Y-159500000D02*
X90460000Y-159500000D01*
X90460000Y-159500000D02*
X90460000Y-160500000D01*
X90460000Y-172500000D02*
X90460000Y-173500000D01*
X89460000Y-141500000D02*
X90460000Y-141500000D01*
X77460000Y-155500000D02*
X76460000Y-155500000D01*
X76460000Y-141500000D02*
X77460000Y-141500000D01*
X90460000Y-155500000D02*
X89460000Y-155500000D01*
X76460000Y-155500000D02*
X76460000Y-154500000D01*
X76460000Y-142500000D02*
X76460000Y-141500000D01*
X90460000Y-154500000D02*
X90460000Y-155500000D01*
X90460000Y-141500000D02*
X90460000Y-142500000D01*
X152460000Y-158500000D02*
X152460000Y-157500000D01*
X166460000Y-144500000D02*
X166460000Y-145500000D01*
X166460000Y-157500000D02*
X166460000Y-158500000D01*
X152460000Y-145500000D02*
X152460000Y-144500000D01*
X165460000Y-144500000D02*
X166460000Y-144500000D01*
X166460000Y-158500000D02*
X165460000Y-158500000D01*
X153460000Y-158500000D02*
X152460000Y-158500000D01*
X152460000Y-144500000D02*
X153460000Y-144500000D01*
X173840000Y-152422000D02*
X173840000Y-182902000D01*
X171300000Y-182902000D02*
X171300000Y-152422000D01*
X189080000Y-182902000D02*
X186540000Y-182902000D01*
X186540000Y-182902000D02*
X186540000Y-152422000D01*
X186540000Y-152422000D02*
X189080000Y-152422000D01*
X171300000Y-152422000D02*
X173840000Y-152422000D01*
X189080000Y-152422000D02*
X189080000Y-182902000D01*
X173840000Y-182902000D02*
X171300000Y-182902000D01*
X109460000Y-207500000D02*
X108460000Y-207500000D01*
X109460000Y-193500000D02*
X109460000Y-194500000D01*
X109460000Y-206500000D02*
X109460000Y-207500000D01*
X95460000Y-193500000D02*
X96460000Y-193500000D01*
X95460000Y-194500000D02*
X95460000Y-193500000D01*
X108460000Y-193500000D02*
X109460000Y-193500000D01*
X96460000Y-207500000D02*
X95460000Y-207500000D01*
X95460000Y-207500000D02*
X95460000Y-206500000D01*
X127460000Y-141500000D02*
X128460000Y-141500000D01*
X114460000Y-142500000D02*
X114460000Y-141500000D01*
X114460000Y-155500000D02*
X114460000Y-154500000D01*
X128460000Y-141500000D02*
X128460000Y-142500000D01*
X114460000Y-141500000D02*
X115460000Y-141500000D01*
X115460000Y-155500000D02*
X114460000Y-155500000D01*
X128460000Y-155500000D02*
X127460000Y-155500000D01*
X128460000Y-154500000D02*
X128460000Y-155500000D01*
X133460000Y-176500000D02*
X133460000Y-175500000D01*
X133460000Y-162500000D02*
X134460000Y-162500000D01*
X134460000Y-176500000D02*
X133460000Y-176500000D01*
X133460000Y-163500000D02*
X133460000Y-162500000D01*
X146460000Y-162500000D02*
X147460000Y-162500000D01*
X147460000Y-176500000D02*
X146460000Y-176500000D01*
X147460000Y-162500000D02*
X147460000Y-163500000D01*
X147460000Y-175500000D02*
X147460000Y-176500000D01*
X38460000Y-164500000D02*
X39460000Y-164500000D01*
X38460000Y-165500000D02*
X38460000Y-164500000D01*
X52460000Y-178500000D02*
X51460000Y-178500000D01*
X52460000Y-164500000D02*
X52460000Y-165500000D01*
X38460000Y-178500000D02*
X38460000Y-177500000D01*
X51460000Y-164500000D02*
X52460000Y-164500000D01*
X39460000Y-178500000D02*
X38460000Y-178500000D01*
X52460000Y-177500000D02*
X52460000Y-178500000D01*
X58460000Y-214500000D02*
X57460000Y-214500000D01*
X71460000Y-214500000D02*
X70460000Y-214500000D01*
X70460000Y-200500000D02*
X71460000Y-200500000D01*
X57460000Y-201500000D02*
X57460000Y-200500000D01*
X71460000Y-200500000D02*
X71460000Y-201500000D01*
X57460000Y-214500000D02*
X57460000Y-213500000D01*
X71460000Y-213500000D02*
X71460000Y-214500000D01*
X57460000Y-200500000D02*
X58460000Y-200500000D01*
X133460000Y-127500000D02*
X133460000Y-126500000D01*
X147460000Y-140500000D02*
X146460000Y-140500000D01*
X134460000Y-140500000D02*
X133460000Y-140500000D01*
X147460000Y-126500000D02*
X147460000Y-127500000D01*
X133460000Y-126500000D02*
X134460000Y-126500000D01*
X147460000Y-139500000D02*
X147460000Y-140500000D01*
X133460000Y-140500000D02*
X133460000Y-139500000D01*
X146460000Y-126500000D02*
X147460000Y-126500000D01*
X51460000Y-182500000D02*
X52460000Y-182500000D01*
X39460000Y-196500000D02*
X38460000Y-196500000D01*
X52460000Y-182500000D02*
X52460000Y-183500000D01*
X38460000Y-196500000D02*
X38460000Y-195500000D01*
X38460000Y-183500000D02*
X38460000Y-182500000D01*
X52460000Y-196500000D02*
X51460000Y-196500000D01*
X52460000Y-195500000D02*
X52460000Y-196500000D01*
X38460000Y-182500000D02*
X39460000Y-182500000D01*
D12*
X150649000Y-141160000D02*
X150649000Y-137260000D01*
X150649000Y-141160000D02*
X148649000Y-141160000D01*
X148649000Y-141160000D02*
X148649000Y-137260000D01*
X150549000Y-177260000D02*
X150549000Y-173360000D01*
X148549000Y-177260000D02*
X148549000Y-173360000D01*
X150549000Y-177260000D02*
X148549000Y-177260000D01*
X53549000Y-197310000D02*
X53549000Y-193410000D01*
X55549000Y-197310000D02*
X53549000Y-197310000D01*
X55549000Y-197310000D02*
X55549000Y-193410000D01*
X53549000Y-215260000D02*
X53549000Y-211360000D01*
X55549000Y-215260000D02*
X53549000Y-215260000D01*
X55549000Y-215260000D02*
X55549000Y-211360000D01*
X110549000Y-208260000D02*
X110549000Y-204360000D01*
X112549000Y-208260000D02*
X112549000Y-204360000D01*
X112549000Y-208260000D02*
X110549000Y-208260000D01*
X129549000Y-192260000D02*
X129549000Y-188360000D01*
X131549000Y-192260000D02*
X129549000Y-192260000D01*
X131549000Y-192260000D02*
X131549000Y-188360000D01*
X74549000Y-215260000D02*
X74549000Y-211360000D01*
X74549000Y-215260000D02*
X72549000Y-215260000D01*
X72549000Y-215260000D02*
X72549000Y-211360000D01*
X169649000Y-141160000D02*
X169649000Y-137260000D01*
X169649000Y-141160000D02*
X167649000Y-141160000D01*
X167649000Y-141160000D02*
X167649000Y-137260000D01*
X74549000Y-143160000D02*
X72549000Y-143160000D01*
X74549000Y-143160000D02*
X74549000Y-139260000D01*
X72549000Y-143160000D02*
X72549000Y-139260000D01*
X170090000Y-186930000D02*
X170090000Y-184270000D01*
X190530000Y-185600000D02*
X190530000Y-184270000D01*
X187930000Y-184270000D02*
X170090000Y-184270000D01*
X187930000Y-186930000D02*
X170090000Y-186930000D01*
X187930000Y-186930000D02*
X187930000Y-184270000D01*
X190530000Y-184270000D02*
X189200000Y-184270000D01*
X129549000Y-156260000D02*
X129549000Y-152360000D01*
X131549000Y-156260000D02*
X129549000Y-156260000D01*
X131549000Y-156260000D02*
X131549000Y-152360000D01*
X93549000Y-174260000D02*
X91549000Y-174260000D01*
X91549000Y-174260000D02*
X91549000Y-170360000D01*
X93549000Y-174260000D02*
X93549000Y-170360000D01*
X148549000Y-195260000D02*
X148549000Y-191360000D01*
X150549000Y-195260000D02*
X150549000Y-191360000D01*
X150549000Y-195260000D02*
X148549000Y-195260000D01*
X148549000Y-159260000D02*
X148549000Y-155360000D01*
X150549000Y-159260000D02*
X148549000Y-159260000D01*
X150549000Y-159260000D02*
X150549000Y-155360000D01*
X129649000Y-138160000D02*
X129649000Y-134260000D01*
X131649000Y-138160000D02*
X131649000Y-134260000D01*
X131649000Y-138160000D02*
X129649000Y-138160000D01*
X74549000Y-197260000D02*
X72549000Y-197260000D01*
X74549000Y-197260000D02*
X74549000Y-193360000D01*
X72549000Y-197260000D02*
X72549000Y-193360000D01*
X112549000Y-172260000D02*
X110549000Y-172260000D01*
X110549000Y-172260000D02*
X110549000Y-168360000D01*
X112549000Y-172260000D02*
X112549000Y-168360000D01*
X55549000Y-161260000D02*
X55549000Y-157360000D01*
X53549000Y-161260000D02*
X53549000Y-157360000D01*
X55549000Y-161260000D02*
X53549000Y-161260000D01*
X129749000Y-210460000D02*
X129749000Y-206560000D01*
X131749000Y-210460000D02*
X131749000Y-206560000D01*
X131749000Y-210460000D02*
X129749000Y-210460000D01*
X93549000Y-192260000D02*
X93549000Y-188360000D01*
X93549000Y-192260000D02*
X91549000Y-192260000D01*
X91549000Y-192260000D02*
X91549000Y-188360000D01*
X56200000Y-140650000D02*
X54200000Y-140650000D01*
X56200000Y-140650000D02*
X56200000Y-136750000D01*
X54200000Y-140650000D02*
X54200000Y-136750000D01*
X74749000Y-161260000D02*
X74749000Y-157360000D01*
X72749000Y-161260000D02*
X72749000Y-157360000D01*
X74749000Y-161260000D02*
X72749000Y-161260000D01*
X150941025Y-226748557D02*
X152891025Y-223371058D01*
X150941025Y-226748557D02*
X149208975Y-225748557D01*
X149208975Y-225748557D02*
X151158975Y-222371058D01*
X135941025Y-217348557D02*
X137891025Y-213971058D01*
X134208975Y-216348557D02*
X136158975Y-212971058D01*
X135941025Y-217348557D02*
X134208975Y-216348557D01*
X93549000Y-138160000D02*
X93549000Y-134260000D01*
X93549000Y-138160000D02*
X91549000Y-138160000D01*
X91549000Y-138160000D02*
X91549000Y-134260000D01*
X53549000Y-179260000D02*
X53549000Y-175360000D01*
X55549000Y-179260000D02*
X53549000Y-179260000D01*
X55549000Y-179260000D02*
X55549000Y-175360000D01*
X112649000Y-136160000D02*
X112649000Y-132260000D01*
X110649000Y-136160000D02*
X110649000Y-132260000D01*
X112649000Y-136160000D02*
X110649000Y-136160000D01*
X72549000Y-179260000D02*
X72549000Y-175360000D01*
X74549000Y-179260000D02*
X72549000Y-179260000D01*
X74549000Y-179260000D02*
X74549000Y-175360000D01*
X129549000Y-174260000D02*
X129549000Y-170360000D01*
X131549000Y-174260000D02*
X131549000Y-170360000D01*
X131549000Y-174260000D02*
X129549000Y-174260000D01*
X169549000Y-177260000D02*
X167549000Y-177260000D01*
X167549000Y-177260000D02*
X167549000Y-173360000D01*
X169549000Y-177260000D02*
X169549000Y-173360000D01*
X167549000Y-195260000D02*
X167549000Y-191360000D01*
X169549000Y-195260000D02*
X169549000Y-191360000D01*
X169549000Y-195260000D02*
X167549000Y-195260000D01*
X167549000Y-159260000D02*
X167549000Y-155360000D01*
X169549000Y-159260000D02*
X169549000Y-155360000D01*
X169549000Y-159260000D02*
X167549000Y-159260000D01*
X112549000Y-190260000D02*
X110549000Y-190260000D01*
X112549000Y-190260000D02*
X112549000Y-186360000D01*
X110549000Y-190260000D02*
X110549000Y-186360000D01*
X93549000Y-156260000D02*
X91549000Y-156260000D01*
X91549000Y-156260000D02*
X91549000Y-152360000D01*
X93549000Y-156260000D02*
X93549000Y-152360000D01*
X93549000Y-210310000D02*
X91549000Y-210310000D01*
X91549000Y-210310000D02*
X91549000Y-206410000D01*
X93549000Y-210310000D02*
X93549000Y-206410000D01*
X112549000Y-154260000D02*
X110549000Y-154260000D01*
X110549000Y-154260000D02*
X110549000Y-150360000D01*
X112549000Y-154260000D02*
X112549000Y-150360000D01*
M02*
