M48
; DRILL file {KiCad (6.0.1-0)} date 2022 February 08, Tuesday 23:28:30
; FORMAT={-:-/ absolute / inch / decimal}
; #@! TF.CreationDate,2022-02-08T23:28:30+08:00
; #@! TF.GenerationSoftware,Kicad,Pcbnew,(6.0.1-0)
; #@! TF.FileFunction,NonPlated,1,2,NPTH
FMAT,2
INCH
; #@! TA.AperFunction,NonPlated,NPTH,ComponentDrill
T1C0.0689
; #@! TA.AperFunction,NonPlated,NPTH,ComponentDrill
T2C0.1181
; #@! TA.AperFunction,NonPlated,NPTH,ComponentDrill
T3C0.1200
; #@! TA.AperFunction,NonPlated,NPTH,ComponentDrill
T4C0.1570
%
G90
G05
T1
X0.8Y-1.2188
X0.8Y-1.9688
X0.8Y-2.7188
X0.8Y-3.4688
X0.8Y-4.2188
X1.2Y-1.2188
X1.2Y-1.9688
X1.2Y-2.7188
X1.2Y-3.4688
X1.2Y-4.2188
X1.55Y-1.2188
X1.55Y-1.9688
X1.55Y-2.7188
X1.55Y-3.4688
X1.55Y-4.2188
X1.95Y-1.2188
X1.95Y-1.9688
X1.95Y-2.7188
X1.95Y-3.4688
X1.95Y-4.2188
X2.3Y-1.0312
X2.3Y-1.7812
X2.3Y-2.5312
X2.3Y-3.2812
X2.3Y-4.0312
X2.7Y-1.0312
X2.7Y-1.7812
X2.7Y-2.5312
X2.7Y-3.2812
X2.7Y-4.0312
X3.05Y-0.9375
X3.05Y-1.6875
X3.05Y-2.4375
X3.05Y-3.1875
X3.05Y-3.9375
X3.45Y-0.9375
X3.45Y-1.6875
X3.45Y-2.4375
X3.45Y-3.1875
X3.45Y-3.9375
X3.8Y-1.0312
X3.8Y-1.7812
X3.8Y-2.5312
X3.8Y-3.2812
X4.2Y-1.0312
X4.2Y-1.7812
X4.2Y-2.5312
X4.2Y-3.2812
X4.55Y-1.125
X4.55Y-1.875
X4.55Y-2.625
X4.55Y-3.375
X4.95Y-1.125
X4.95Y-1.875
X4.95Y-2.625
X4.95Y-3.375
X4.9937Y-4.767
X5.1937Y-4.4205
X5.6812Y-5.1732
X5.8812Y-4.8268
T2
X5.217Y-4.7804
X5.2554Y-4.5138
X5.9045Y-5.1866
X5.9429Y-4.9201
T3
X5.0969Y-5.1383
X5.5669Y-4.3242
X5.7844Y-5.5445
X6.2544Y-4.7305
T4
X1.0Y-1.2188
X1.0Y-1.9688
X1.0Y-2.7188
X1.0Y-3.4688
X1.0Y-4.2188
X1.75Y-1.2188
X1.75Y-1.9688
X1.75Y-2.7188
X1.75Y-3.4688
X1.75Y-4.2188
X2.5Y-1.0312
X2.5Y-1.7812
X2.5Y-2.5312
X2.5Y-3.2812
X2.5Y-4.0312
X3.25Y-0.9375
X3.25Y-1.6875
X3.25Y-2.4375
X3.25Y-3.1875
X3.25Y-3.9375
X4.0Y-1.0312
X4.0Y-1.7812
X4.0Y-2.5312
X4.0Y-3.2812
X4.5773Y-4.8383
X4.75Y-1.125
X4.75Y-1.875
X4.75Y-2.625
X4.75Y-3.375
X5.0473Y-4.0242
X5.0938Y-4.5938
X5.2648Y-5.2445
X5.7348Y-4.4305
X5.7812Y-5.0
T0
M30
