%TF.GenerationSoftware,KiCad,Pcbnew,(6.0.1-0)*%
%TF.CreationDate,2022-02-08T23:28:17+08:00*%
%TF.ProjectId,nut-kb,6e75742d-6b62-42e6-9b69-6361645f7063,rev?*%
%TF.SameCoordinates,Original*%
%TF.FileFunction,Soldermask,Bot*%
%TF.FilePolarity,Negative*%
%FSLAX46Y46*%
G04 Gerber Fmt 4.6, Leading zero omitted, Abs format (unit mm)*
G04 Created by KiCad (PCBNEW (6.0.1-0)) date 2022-02-08 23:28:17*
%MOMM*%
%LPD*%
G01*
G04 APERTURE LIST*
G04 Aperture macros list*
%AMRoundRect*
0 Rectangle with rounded corners*
0 $1 Rounding radius*
0 $2 $3 $4 $5 $6 $7 $8 $9 X,Y pos of 4 corners*
0 Add a 4 corners polygon primitive as box body*
4,1,4,$2,$3,$4,$5,$6,$7,$8,$9,$2,$3,0*
0 Add four circle primitives for the rounded corners*
1,1,$1+$1,$2,$3*
1,1,$1+$1,$4,$5*
1,1,$1+$1,$6,$7*
1,1,$1+$1,$8,$9*
0 Add four rect primitives between the rounded corners*
20,1,$1+$1,$2,$3,$4,$5,0*
20,1,$1+$1,$4,$5,$6,$7,0*
20,1,$1+$1,$6,$7,$8,$9,0*
20,1,$1+$1,$8,$9,$2,$3,0*%
%AMRotRect*
0 Rectangle, with rotation*
0 The origin of the aperture is its center*
0 $1 length*
0 $2 width*
0 $3 Rotation angle, in degrees counterclockwise*
0 Add horizontal line*
21,1,$1,$2,0,0,$3*%
G04 Aperture macros list end*
%ADD10C,3.000000*%
%ADD11C,3.987800*%
%ADD12C,1.750000*%
%ADD13RotRect,2.550000X2.500000X240.000000*%
%ADD14C,3.048000*%
%ADD15R,2.550000X2.500000*%
%ADD16C,1.752600*%
%ADD17O,1.200000X1.750000*%
%ADD18RoundRect,0.250000X-0.350000X-0.625000X0.350000X-0.625000X0.350000X0.625000X-0.350000X0.625000X0*%
%ADD19O,1.600000X1.600000*%
%ADD20R,1.600000X1.600000*%
%ADD21O,1.700000X1.700000*%
%ADD22R,1.700000X1.700000*%
%ADD23R,1.200000X0.900000*%
%ADD24RotRect,0.900000X1.200000X60.000000*%
G04 APERTURE END LIST*
D10*
%TO.C,MX30*%
X149973159Y-131739705D03*
D11*
X146843750Y-127000000D03*
D10*
X150948455Y-124970443D03*
D12*
X149383750Y-122600591D03*
X144303750Y-131399409D03*
D13*
X152585955Y-122134210D03*
X148322159Y-134599320D03*
D14*
X146923937Y-140831111D03*
X158861937Y-120153889D03*
D11*
X133725710Y-133211111D03*
X145663710Y-112533889D03*
%TD*%
D10*
%TO.C,MX29*%
X132510659Y-121420955D03*
D11*
X129381250Y-116681250D03*
D10*
X133485955Y-114651693D03*
D12*
X131921250Y-112281841D03*
X126841250Y-121080659D03*
D13*
X135123455Y-111815460D03*
X130859659Y-124280570D03*
D14*
X129461437Y-130512361D03*
X141399437Y-109835139D03*
D11*
X116263210Y-122892361D03*
X128201210Y-102215139D03*
%TD*%
D15*
%TO.C,MX28*%
X75465000Y-97472500D03*
D11*
X82550000Y-100012500D03*
D15*
X88365000Y-94932500D03*
D12*
X87630000Y-100012500D03*
X77470000Y-100012500D03*
%TD*%
D15*
%TO.C,MX23*%
X107415000Y-78263750D03*
D12*
X106680000Y-83343750D03*
D11*
X101600000Y-83343750D03*
D12*
X96520000Y-83343750D03*
D15*
X94515000Y-80803750D03*
%TD*%
D16*
%TO.C,U1*%
X155424500Y-39788000D03*
X155424500Y-42328000D03*
X155424500Y-44868000D03*
X155424500Y-47408000D03*
X155424500Y-49948000D03*
X155424500Y-52488000D03*
X155424500Y-55028000D03*
X155424500Y-57568000D03*
X155424500Y-60108000D03*
X155424500Y-62648000D03*
X155424500Y-65188000D03*
X155424500Y-67728000D03*
X140184500Y-67728000D03*
X140184500Y-65188000D03*
X140184500Y-62648000D03*
X140184500Y-60108000D03*
X140184500Y-57568000D03*
X140184500Y-55028000D03*
X140184500Y-52488000D03*
X140184500Y-49948000D03*
X140184500Y-47408000D03*
X140184500Y-44868000D03*
X140184500Y-42328000D03*
X140184500Y-39788000D03*
%TD*%
D11*
%TO.C,MX26*%
X44450000Y-107156250D03*
D15*
X37365000Y-104616250D03*
D12*
X39370000Y-107156250D03*
D15*
X50265000Y-102076250D03*
D12*
X49530000Y-107156250D03*
%TD*%
D15*
%TO.C,MX1*%
X31215000Y-25876250D03*
D12*
X20320000Y-30956250D03*
X30480000Y-30956250D03*
D11*
X25400000Y-30956250D03*
D15*
X18315000Y-28416250D03*
%TD*%
%TO.C,MX16*%
X75465000Y-59372500D03*
D12*
X77470000Y-61912500D03*
X87630000Y-61912500D03*
D11*
X82550000Y-61912500D03*
D15*
X88365000Y-56832500D03*
%TD*%
%TO.C,MX22*%
X88365000Y-75882500D03*
D12*
X77470000Y-80962500D03*
D11*
X82550000Y-80962500D03*
D15*
X75465000Y-78422500D03*
D12*
X87630000Y-80962500D03*
%TD*%
D15*
%TO.C,MX25*%
X31215000Y-102076250D03*
D12*
X20320000Y-107156250D03*
X30480000Y-107156250D03*
D11*
X25400000Y-107156250D03*
D15*
X18315000Y-104616250D03*
%TD*%
D12*
%TO.C,MX3*%
X68580000Y-26193750D03*
D11*
X63500000Y-26193750D03*
D12*
X58420000Y-26193750D03*
D15*
X69315000Y-21113750D03*
X56415000Y-23653750D03*
%TD*%
%TO.C,MX2*%
X37365000Y-28416250D03*
D12*
X49530000Y-30956250D03*
D11*
X44450000Y-30956250D03*
D15*
X50265000Y-25876250D03*
D12*
X39370000Y-30956250D03*
%TD*%
D15*
%TO.C,MX11*%
X107415000Y-40163750D03*
D12*
X106680000Y-45243750D03*
D11*
X101600000Y-45243750D03*
D12*
X96520000Y-45243750D03*
D15*
X94515000Y-42703750D03*
%TD*%
D12*
%TO.C,MX5*%
X96520000Y-26193750D03*
X106680000Y-26193750D03*
D15*
X94515000Y-23653750D03*
X107415000Y-21113750D03*
D11*
X101600000Y-26193750D03*
%TD*%
D12*
%TO.C,MX21*%
X58420000Y-83343750D03*
D11*
X63500000Y-83343750D03*
D15*
X56415000Y-80803750D03*
X69315000Y-78263750D03*
D12*
X68580000Y-83343750D03*
%TD*%
%TO.C,MX7*%
X20320000Y-50006250D03*
D15*
X18315000Y-47466250D03*
X31215000Y-44926250D03*
D11*
X25400000Y-50006250D03*
D12*
X30480000Y-50006250D03*
%TD*%
%TO.C,MX20*%
X39370000Y-88106250D03*
D15*
X50265000Y-83026250D03*
D11*
X44450000Y-88106250D03*
D15*
X37365000Y-85566250D03*
D12*
X49530000Y-88106250D03*
%TD*%
%TO.C,MX4*%
X87630000Y-23812500D03*
X77470000Y-23812500D03*
D11*
X82550000Y-23812500D03*
D15*
X88365000Y-18732500D03*
X75465000Y-21272500D03*
%TD*%
D17*
%TO.C,J1*%
X149042500Y-79161250D03*
X147042500Y-79161250D03*
D18*
X145042500Y-79161250D03*
%TD*%
D15*
%TO.C,MX19*%
X31215000Y-83026250D03*
D12*
X20320000Y-88106250D03*
X30480000Y-88106250D03*
D11*
X25400000Y-88106250D03*
D15*
X18315000Y-85566250D03*
%TD*%
D12*
%TO.C,MX15*%
X58420000Y-64293750D03*
X68580000Y-64293750D03*
D15*
X56415000Y-61753750D03*
X69315000Y-59213750D03*
D11*
X63500000Y-64293750D03*
%TD*%
D15*
%TO.C,MX8*%
X37365000Y-47466250D03*
D12*
X49530000Y-50006250D03*
D15*
X50265000Y-44926250D03*
D12*
X39370000Y-50006250D03*
D11*
X44450000Y-50006250D03*
%TD*%
D15*
%TO.C,MX17*%
X94515000Y-61753750D03*
D12*
X106680000Y-64293750D03*
X96520000Y-64293750D03*
D15*
X107415000Y-59213750D03*
D11*
X101600000Y-64293750D03*
%TD*%
D15*
%TO.C,MX10*%
X75465000Y-40322500D03*
X88365000Y-37782500D03*
D12*
X77470000Y-42862500D03*
D11*
X82550000Y-42862500D03*
D12*
X87630000Y-42862500D03*
%TD*%
D15*
%TO.C,MX24*%
X113565000Y-83185000D03*
D11*
X120650000Y-85725000D03*
D12*
X115570000Y-85725000D03*
X125730000Y-85725000D03*
D15*
X126465000Y-80645000D03*
%TD*%
D19*
%TO.C,SW2*%
X163806500Y-41357250D03*
D20*
X163806500Y-33737250D03*
%TD*%
D15*
%TO.C,MX14*%
X50265000Y-63976250D03*
D12*
X39370000Y-69056250D03*
X49530000Y-69056250D03*
D11*
X44450000Y-69056250D03*
D15*
X37365000Y-66516250D03*
%TD*%
D21*
%TO.C,J2*%
X156582500Y-72320250D03*
X154042500Y-72320250D03*
X151502500Y-72320250D03*
X148962500Y-72320250D03*
X146422500Y-72320250D03*
X143882500Y-72320250D03*
X141342500Y-72320250D03*
D22*
X138802500Y-72320250D03*
%TD*%
D11*
%TO.C,MX9*%
X63500000Y-45243750D03*
D12*
X58420000Y-45243750D03*
X68580000Y-45243750D03*
D15*
X56415000Y-42703750D03*
X69315000Y-40163750D03*
%TD*%
D20*
%TO.C,SW1*%
X168495500Y-48850250D03*
D19*
X160875500Y-48850250D03*
%TD*%
D15*
%TO.C,MX27*%
X56415000Y-99853750D03*
X69315000Y-97313750D03*
D11*
X63500000Y-102393750D03*
D12*
X58420000Y-102393750D03*
X68580000Y-102393750D03*
%TD*%
%TO.C,MX12*%
X125730000Y-47625000D03*
D15*
X126465000Y-42545000D03*
X113565000Y-45085000D03*
D11*
X120650000Y-47625000D03*
D12*
X115570000Y-47625000D03*
%TD*%
D15*
%TO.C,MX18*%
X113565000Y-64135000D03*
X126465000Y-61595000D03*
D12*
X125730000Y-66675000D03*
D11*
X120650000Y-66675000D03*
D12*
X115570000Y-66675000D03*
%TD*%
%TO.C,MX6*%
X115570000Y-28575000D03*
X125730000Y-28575000D03*
D11*
X120650000Y-28575000D03*
D15*
X126465000Y-23495000D03*
X113565000Y-26035000D03*
%TD*%
%TO.C,MX13*%
X31215000Y-63976250D03*
D12*
X20320000Y-69056250D03*
D11*
X25400000Y-69056250D03*
D15*
X18315000Y-66516250D03*
D12*
X30480000Y-69056250D03*
%TD*%
D23*
%TO.C,D17*%
X109537500Y-70706250D03*
X109537500Y-67406250D03*
%TD*%
%TO.C,D14*%
X51593750Y-75468750D03*
X51593750Y-72168750D03*
%TD*%
%TO.C,D9*%
X70643750Y-51656250D03*
X70643750Y-48356250D03*
%TD*%
%TO.C,D21*%
X70643750Y-89756250D03*
X70643750Y-86456250D03*
%TD*%
%TO.C,D6*%
X127793750Y-34987500D03*
X127793750Y-31687500D03*
%TD*%
%TO.C,D26*%
X51593750Y-113568750D03*
X51593750Y-110268750D03*
%TD*%
D24*
%TO.C,D29*%
X123508000Y-133000942D03*
X125158000Y-130143058D03*
%TD*%
D23*
%TO.C,D7*%
X32543750Y-56418750D03*
X32543750Y-53118750D03*
%TD*%
%TO.C,D23*%
X108743750Y-89756250D03*
X108743750Y-86456250D03*
%TD*%
%TO.C,D12*%
X127793750Y-54037500D03*
X127793750Y-50737500D03*
%TD*%
%TO.C,D3*%
X70643750Y-32606250D03*
X70643750Y-29306250D03*
%TD*%
%TO.C,D28*%
X89693750Y-106425000D03*
X89693750Y-103125000D03*
%TD*%
%TO.C,D22*%
X89693750Y-87375000D03*
X89693750Y-84075000D03*
%TD*%
%TO.C,D15*%
X70643750Y-70706250D03*
X70643750Y-67406250D03*
%TD*%
%TO.C,D11*%
X108743750Y-51656250D03*
X108743750Y-48356250D03*
%TD*%
%TO.C,D24*%
X127793750Y-92137500D03*
X127793750Y-88837500D03*
%TD*%
%TO.C,D27*%
X70643750Y-108806250D03*
X70643750Y-105506250D03*
%TD*%
D24*
%TO.C,D30*%
X141034000Y-142906942D03*
X142684000Y-140049058D03*
%TD*%
D23*
%TO.C,D20*%
X51593750Y-94518750D03*
X51593750Y-91218750D03*
%TD*%
%TO.C,D19*%
X32543750Y-94518750D03*
X32543750Y-91218750D03*
%TD*%
%TO.C,D1*%
X32543750Y-37368750D03*
X32543750Y-34068750D03*
%TD*%
%TO.C,D25*%
X32543750Y-113568750D03*
X32543750Y-110268750D03*
%TD*%
%TO.C,D4*%
X89693750Y-30225000D03*
X89693750Y-26925000D03*
%TD*%
%TO.C,D2*%
X51593750Y-37368750D03*
X51593750Y-34068750D03*
%TD*%
%TO.C,D8*%
X51593750Y-56418750D03*
X51593750Y-53118750D03*
%TD*%
%TO.C,D5*%
X108743750Y-32606250D03*
X108743750Y-29306250D03*
%TD*%
%TO.C,D10*%
X89693750Y-49275000D03*
X89693750Y-45975000D03*
%TD*%
%TO.C,D18*%
X127793750Y-73087500D03*
X127793750Y-69787500D03*
%TD*%
%TO.C,D13*%
X32543750Y-75468750D03*
X32543750Y-72168750D03*
%TD*%
%TO.C,D16*%
X89693750Y-68325000D03*
X89693750Y-65025000D03*
%TD*%
M02*
