M48
; DRILL file {KiCad (6.0.1-0)} date 2022 February 08, Tuesday 23:28:30
; FORMAT={-:-/ absolute / inch / decimal}
; #@! TF.CreationDate,2022-02-08T23:28:30+08:00
; #@! TF.GenerationSoftware,Kicad,Pcbnew,(6.0.1-0)
; #@! TF.FileFunction,Plated,1,2,PTH
FMAT,2
INCH
; #@! TA.AperFunction,Plated,PTH,ViaDrill
T1C0.0157
; #@! TA.AperFunction,Plated,PTH,ComponentDrill
T2C0.0157
; #@! TA.AperFunction,Plated,PTH,ComponentDrill
T3C0.0295
; #@! TA.AperFunction,Plated,PTH,ComponentDrill
T4C0.0315
; #@! TA.AperFunction,Plated,PTH,ComponentDrill
T5C0.0394
; #@! TA.AperFunction,Plated,PTH,ComponentDrill
T6C0.0430
; #@! TA.AperFunction,Plated,PTH,ComponentDrill
T7C0.1181
%
G90
G05
T1
X4.315Y-4.37
X5.6641Y-1.9332
X6.01Y-3.895
T2
X0.65Y-1.0887
X0.65Y-1.1487
X0.65Y-1.8387
X0.65Y-1.8987
X0.65Y-2.5888
X0.65Y-2.6488
X0.65Y-3.3388
X0.65Y-3.3987
X0.65Y-4.0888
X0.65Y-4.1487
X1.3Y-0.9888
X1.3Y-1.0488
X1.3Y-1.7388
X1.3Y-1.7987
X1.3Y-2.4888
X1.3Y-2.5488
X1.3Y-3.2388
X1.3Y-3.2988
X1.3Y-3.9888
X1.3Y-4.0488
X1.4Y-1.0887
X1.4Y-1.1487
X1.4Y-1.8387
X1.4Y-1.8987
X1.4Y-2.5888
X1.4Y-2.6488
X1.4Y-3.3388
X1.4Y-3.3987
X1.4Y-4.0888
X1.4Y-4.1487
X2.05Y-0.9888
X2.05Y-1.0488
X2.05Y-1.7388
X2.05Y-1.7987
X2.05Y-2.4888
X2.05Y-2.5488
X2.05Y-3.2388
X2.05Y-3.2988
X2.05Y-3.9888
X2.05Y-4.0488
X2.15Y-0.9012
X2.15Y-0.9612
X2.15Y-1.6512
X2.15Y-1.7112
X2.15Y-2.4013
X2.15Y-2.4613
X2.15Y-3.1513
X2.15Y-3.2112
X2.15Y-3.9013
X2.15Y-3.9612
X2.8Y-0.8013
X2.8Y-0.8612
X2.8Y-1.5513
X2.8Y-1.6113
X2.8Y-2.3013
X2.8Y-2.3613
X2.8Y-3.0513
X2.8Y-3.1113
X2.8Y-3.8013
X2.8Y-3.8613
X2.9Y-0.8075
X2.9Y-0.8675
X2.9Y-1.5575
X2.9Y-1.6175
X2.9Y-2.3075
X2.9Y-2.3675
X2.9Y-3.0575
X2.9Y-3.1175
X2.9Y-3.8075
X2.9Y-3.8675
X3.55Y-0.7075
X3.55Y-0.7675
X3.55Y-1.4575
X3.55Y-1.5175
X3.55Y-2.2075
X3.55Y-2.2675
X3.55Y-2.9575
X3.55Y-3.0175
X3.55Y-3.7075
X3.55Y-3.7675
X3.65Y-0.9012
X3.65Y-0.9612
X3.65Y-1.6512
X3.65Y-1.7112
X3.65Y-2.4013
X3.65Y-2.4613
X3.65Y-3.1513
X3.65Y-3.2112
X4.3Y-0.8013
X4.3Y-0.8612
X4.3Y-1.5513
X4.3Y-1.6113
X4.3Y-2.3013
X4.3Y-2.3613
X4.3Y-3.0513
X4.3Y-3.1113
X4.4Y-0.995
X4.4Y-1.055
X4.4Y-1.745
X4.4Y-1.805
X4.4Y-2.495
X4.4Y-2.555
X4.4Y-3.245
X4.4Y-3.305
X5.05Y-0.895
X5.05Y-0.955
X5.05Y-1.645
X5.05Y-1.705
X5.05Y-2.395
X5.05Y-2.455
X5.05Y-3.145
X5.05Y-3.205
T3
X5.7103Y-3.1166
X5.7891Y-3.1166
X5.8678Y-3.1166
T4
X6.3337Y-1.9232
X6.4491Y-1.3282
X6.4491Y-1.6282
X6.6337Y-1.9232
T5
X5.4647Y-2.8473
X5.5647Y-2.8473
X5.6647Y-2.8473
X5.7647Y-2.8473
X5.8647Y-2.8473
X5.9647Y-2.8473
X6.0647Y-2.8473
X6.1647Y-2.8473
T6
X5.5191Y-1.5665
X5.5191Y-1.6665
X5.5191Y-1.7665
X5.5191Y-1.8665
X5.5191Y-1.9665
X5.5191Y-2.0665
X5.5191Y-2.1665
X5.5191Y-2.2665
X5.5191Y-2.3665
X5.5191Y-2.4665
X5.5191Y-2.5665
X5.5191Y-2.6665
X6.1191Y-1.5665
X6.1191Y-1.6665
X6.1191Y-1.7665
X6.1191Y-1.8665
X6.1191Y-1.9665
X6.1191Y-2.0665
X6.1191Y-2.1665
X6.1191Y-2.2665
X6.1191Y-2.3665
X6.1191Y-2.4665
X6.1191Y-2.5665
X6.1191Y-2.6665
T7
X0.85Y-1.1187
X0.85Y-1.8687
X0.85Y-2.6187
X0.85Y-3.3687
X0.85Y-4.1187
X1.1Y-1.0188
X1.1Y-1.7688
X1.1Y-2.5187
X1.1Y-3.2687
X1.1Y-4.0187
X1.6Y-1.1187
X1.6Y-1.8687
X1.6Y-2.6187
X1.6Y-3.3687
X1.6Y-4.1187
X1.85Y-1.0188
X1.85Y-1.7688
X1.85Y-2.5187
X1.85Y-3.2687
X1.85Y-4.0187
X2.35Y-0.9313
X2.35Y-1.6812
X2.35Y-2.4312
X2.35Y-3.1812
X2.35Y-3.9312
X2.6Y-0.8312
X2.6Y-1.5813
X2.6Y-2.3312
X2.6Y-3.0812
X2.6Y-3.8312
X3.1Y-0.8375
X3.1Y-1.5875
X3.1Y-2.3375
X3.1Y-3.0875
X3.1Y-3.8375
X3.35Y-0.7375
X3.35Y-1.4875
X3.35Y-2.2375
X3.35Y-2.9875
X3.35Y-3.7375
X3.85Y-0.9313
X3.85Y-1.6812
X3.85Y-2.4312
X3.85Y-3.1812
X4.1Y-0.8312
X4.1Y-1.5813
X4.1Y-2.3312
X4.1Y-3.0812
X4.6Y-1.025
X4.6Y-1.775
X4.6Y-2.525
X4.6Y-3.275
X4.85Y-0.925
X4.85Y-1.675
X4.85Y-2.425
X4.85Y-3.175
T0
M30
