G04 #@! TF.GenerationSoftware,KiCad,Pcbnew,(6.0.1-0)*
G04 #@! TF.CreationDate,2022-02-27T00:26:46+08:00*
G04 #@! TF.ProjectId,nut-kb,6e75742d-6b62-42e6-9b69-6361645f7063,rev?*
G04 #@! TF.SameCoordinates,Original*
G04 #@! TF.FileFunction,Copper,L2,Bot*
G04 #@! TF.FilePolarity,Positive*
%FSLAX46Y46*%
G04 Gerber Fmt 4.6, Leading zero omitted, Abs format (unit mm)*
G04 Created by KiCad (PCBNEW (6.0.1-0)) date 2022-02-27 00:26:46*
%MOMM*%
%LPD*%
G01*
G04 APERTURE LIST*
G04 Aperture macros list*
%AMRoundRect*
0 Rectangle with rounded corners*
0 $1 Rounding radius*
0 $2 $3 $4 $5 $6 $7 $8 $9 X,Y pos of 4 corners*
0 Add a 4 corners polygon primitive as box body*
4,1,4,$2,$3,$4,$5,$6,$7,$8,$9,$2,$3,0*
0 Add four circle primitives for the rounded corners*
1,1,$1+$1,$2,$3*
1,1,$1+$1,$4,$5*
1,1,$1+$1,$6,$7*
1,1,$1+$1,$8,$9*
0 Add four rect primitives between the rounded corners*
20,1,$1+$1,$2,$3,$4,$5,0*
20,1,$1+$1,$4,$5,$6,$7,0*
20,1,$1+$1,$6,$7,$8,$9,0*
20,1,$1+$1,$8,$9,$2,$3,0*%
%AMRotRect*
0 Rectangle, with rotation*
0 The origin of the aperture is its center*
0 $1 length*
0 $2 width*
0 $3 Rotation angle, in degrees counterclockwise*
0 Add horizontal line*
21,1,$1,$2,0,0,$3*%
G04 Aperture macros list end*
G04 #@! TA.AperFunction,ComponentPad*
%ADD10C,2.032000*%
G04 #@! TD*
G04 #@! TA.AperFunction,ComponentPad*
%ADD11RoundRect,0.250000X0.625000X-0.350000X0.625000X0.350000X-0.625000X0.350000X-0.625000X-0.350000X0*%
G04 #@! TD*
G04 #@! TA.AperFunction,ComponentPad*
%ADD12O,1.750000X1.200000*%
G04 #@! TD*
G04 #@! TA.AperFunction,ComponentPad*
%ADD13R,1.600000X1.600000*%
G04 #@! TD*
G04 #@! TA.AperFunction,ComponentPad*
%ADD14O,1.600000X1.600000*%
G04 #@! TD*
G04 #@! TA.AperFunction,ComponentPad*
%ADD15C,1.524000*%
G04 #@! TD*
G04 #@! TA.AperFunction,ComponentPad*
%ADD16R,1.700000X1.700000*%
G04 #@! TD*
G04 #@! TA.AperFunction,ComponentPad*
%ADD17O,1.700000X1.700000*%
G04 #@! TD*
G04 #@! TA.AperFunction,ComponentPad*
%ADD18C,2.000000*%
G04 #@! TD*
G04 #@! TA.AperFunction,SMDPad,CuDef*
%ADD19R,1.200000X0.900000*%
G04 #@! TD*
G04 #@! TA.AperFunction,SMDPad,CuDef*
%ADD20RotRect,0.900000X1.200000X60.000000*%
G04 #@! TD*
G04 #@! TA.AperFunction,ViaPad*
%ADD21C,0.800000*%
G04 #@! TD*
G04 #@! TA.AperFunction,Conductor*
%ADD22C,0.254000*%
G04 #@! TD*
G04 #@! TA.AperFunction,Conductor*
%ADD23C,0.381000*%
G04 #@! TD*
G04 APERTURE END LIST*
D10*
X159750000Y-230609550D03*
X165130127Y-231290897D03*
X156469873Y-226290897D03*
X139918873Y-216790897D03*
X148579127Y-221790897D03*
X143199000Y-221109550D03*
X121460000Y-172400000D03*
X116460000Y-170300000D03*
X126460000Y-170300000D03*
X45460000Y-159400000D03*
X40460000Y-157300000D03*
X50460000Y-157300000D03*
X64460000Y-195400000D03*
X59460000Y-193300000D03*
X69460000Y-193300000D03*
X64460000Y-159400000D03*
X59460000Y-157300000D03*
X69460000Y-157300000D03*
X102460000Y-152400000D03*
X107460000Y-150300000D03*
X97460000Y-150300000D03*
X121460000Y-136400000D03*
X116460000Y-134300000D03*
X126460000Y-134300000D03*
X45460000Y-141400000D03*
X40460000Y-139300000D03*
X50460000Y-139300000D03*
X83460000Y-208400000D03*
X78460000Y-206300000D03*
X88460000Y-206300000D03*
X102460000Y-188400000D03*
X107460000Y-186300000D03*
X97460000Y-186300000D03*
X121460000Y-208400000D03*
X126460000Y-206300000D03*
X116460000Y-206300000D03*
X159460000Y-175400000D03*
X164460000Y-173300000D03*
X154460000Y-173300000D03*
X159460000Y-139400000D03*
X154460000Y-137300000D03*
X164460000Y-137300000D03*
X64460000Y-177400000D03*
X59460000Y-175300000D03*
X69460000Y-175300000D03*
X64460000Y-141400000D03*
X69460000Y-139300000D03*
X59460000Y-139300000D03*
X102460000Y-134400000D03*
X97460000Y-132300000D03*
X107460000Y-132300000D03*
X83460000Y-190400000D03*
X78460000Y-188300000D03*
X88460000Y-188300000D03*
X102460000Y-170400000D03*
X107460000Y-168300000D03*
X97460000Y-168300000D03*
D11*
X182000000Y-197000000D03*
D12*
X182000000Y-195000000D03*
X182000000Y-193000000D03*
D10*
X121460000Y-190400000D03*
X126460000Y-188300000D03*
X116460000Y-188300000D03*
X83460000Y-136400000D03*
X78460000Y-134300000D03*
X88460000Y-134300000D03*
X140460000Y-157400000D03*
X135460000Y-155300000D03*
X145460000Y-155300000D03*
X140460000Y-193400000D03*
X135460000Y-191300000D03*
X145460000Y-191300000D03*
X159460000Y-193400000D03*
X164460000Y-191300000D03*
X154460000Y-191300000D03*
X45460000Y-213400000D03*
X40460000Y-211300000D03*
X50460000Y-211300000D03*
X83460000Y-172400000D03*
X78460000Y-170300000D03*
X88460000Y-170300000D03*
X83460000Y-154400000D03*
X78460000Y-152300000D03*
X88460000Y-152300000D03*
D13*
X188400000Y-189700000D03*
D14*
X188400000Y-197320000D03*
D10*
X159460000Y-157400000D03*
X154460000Y-155300000D03*
X164460000Y-155300000D03*
D15*
X187810000Y-153692000D03*
X173896400Y-152422000D03*
X187810000Y-156232000D03*
X173896400Y-154962000D03*
X173896400Y-157502000D03*
X187810000Y-158772000D03*
X187810000Y-161312000D03*
X173896400Y-160042000D03*
X187810000Y-163852000D03*
X173896400Y-162582000D03*
X187810000Y-166392000D03*
X173896400Y-165122000D03*
X173896400Y-167662000D03*
X187810000Y-168932000D03*
X173896400Y-170202000D03*
X187810000Y-171472000D03*
X187810000Y-174012000D03*
X173896400Y-172742000D03*
X187810000Y-176552000D03*
X173896400Y-175282000D03*
X187810000Y-179092000D03*
X173896400Y-177822000D03*
X173896400Y-180362000D03*
X187810000Y-181632000D03*
X172570000Y-181632000D03*
X189116400Y-180362000D03*
X172570000Y-179092000D03*
X189116400Y-177822000D03*
X189116400Y-175282000D03*
X172570000Y-176552000D03*
X189116400Y-172742000D03*
X172570000Y-174012000D03*
X172570000Y-171472000D03*
X189116400Y-170202000D03*
X189116400Y-167662000D03*
X172570000Y-168932000D03*
X189116400Y-165122000D03*
X172570000Y-166392000D03*
X172570000Y-163852000D03*
X189116400Y-162582000D03*
X172570000Y-161312000D03*
X189116400Y-160042000D03*
X172570000Y-158772000D03*
X189116400Y-157502000D03*
X189116400Y-154962000D03*
X172570000Y-156232000D03*
X189116400Y-152422000D03*
X172570000Y-153692000D03*
D10*
X102460000Y-206400000D03*
X97460000Y-204300000D03*
X107460000Y-204300000D03*
D16*
X172700000Y-183700000D03*
D17*
X175240000Y-183700000D03*
X177780000Y-183700000D03*
X180320000Y-183700000D03*
X182860000Y-183700000D03*
X185400000Y-183700000D03*
X187940000Y-183700000D03*
X190480000Y-183700000D03*
D10*
X121460000Y-154400000D03*
X116460000Y-152300000D03*
X126460000Y-152300000D03*
X140460000Y-175400000D03*
X145460000Y-173300000D03*
X135460000Y-173300000D03*
D18*
X177000000Y-192100000D03*
X177000000Y-198600000D03*
X172500000Y-192100000D03*
X172500000Y-198600000D03*
D10*
X45460000Y-177400000D03*
X50460000Y-175300000D03*
X40460000Y-175300000D03*
X64460000Y-213400000D03*
X59460000Y-211300000D03*
X69460000Y-211300000D03*
X140460000Y-139400000D03*
X135460000Y-137300000D03*
X145460000Y-137300000D03*
X45460000Y-195400000D03*
X40460000Y-193300000D03*
X50460000Y-193300000D03*
D19*
X149649000Y-140560000D03*
X149649000Y-137260000D03*
X149549000Y-176660000D03*
X149549000Y-173360000D03*
X54549000Y-196710000D03*
X54549000Y-193410000D03*
X54549000Y-214660000D03*
X54549000Y-211360000D03*
X111549000Y-207660000D03*
X111549000Y-204360000D03*
X130549000Y-191660000D03*
X130549000Y-188360000D03*
X73549000Y-214660000D03*
X73549000Y-211360000D03*
X168649000Y-137260000D03*
X168649000Y-140560000D03*
X73549000Y-142560000D03*
X73549000Y-139260000D03*
D16*
X189200000Y-185600000D03*
D17*
X186660000Y-185600000D03*
X184120000Y-185600000D03*
X181580000Y-185600000D03*
X179040000Y-185600000D03*
X176500000Y-185600000D03*
X173960000Y-185600000D03*
X171420000Y-185600000D03*
D19*
X130549000Y-155660000D03*
X130549000Y-152360000D03*
X92549000Y-173660000D03*
X92549000Y-170360000D03*
X149549000Y-194660000D03*
X149549000Y-191360000D03*
X149549000Y-158660000D03*
X149549000Y-155360000D03*
X130649000Y-137560000D03*
X130649000Y-134260000D03*
X73549000Y-196660000D03*
X73549000Y-193360000D03*
X111549000Y-171660000D03*
X111549000Y-168360000D03*
X54549000Y-160660000D03*
X54549000Y-157360000D03*
X130749000Y-209860000D03*
X130749000Y-206560000D03*
X92549000Y-191660000D03*
X92549000Y-188360000D03*
X55200000Y-140050000D03*
X55200000Y-136750000D03*
X73749000Y-160660000D03*
X73749000Y-157360000D03*
D20*
X150375000Y-225728942D03*
X152025000Y-222871058D03*
X135375000Y-216328942D03*
X137025000Y-213471058D03*
D19*
X92549000Y-137560000D03*
X92549000Y-134260000D03*
X54549000Y-178660000D03*
X54549000Y-175360000D03*
X111649000Y-135560000D03*
X111649000Y-132260000D03*
X73549000Y-178660000D03*
X73549000Y-175360000D03*
X130549000Y-173660000D03*
X130549000Y-170360000D03*
X168549000Y-176660000D03*
X168549000Y-173360000D03*
X168549000Y-194660000D03*
X168549000Y-191360000D03*
X168549000Y-158660000D03*
X168549000Y-155360000D03*
X111549000Y-189660000D03*
X111549000Y-186360000D03*
X92549000Y-155660000D03*
X92549000Y-152360000D03*
X92549000Y-209710000D03*
X92549000Y-206410000D03*
X111549000Y-153660000D03*
X111549000Y-150360000D03*
D21*
X141700000Y-208940580D03*
X158675775Y-203875775D03*
X175600000Y-158600000D03*
X175600000Y-161300000D03*
X175600000Y-153682411D03*
X175600000Y-156300000D03*
X175600000Y-163800000D03*
X175600000Y-166400000D03*
X175600000Y-168900000D03*
X143260000Y-196200000D03*
X157700000Y-195469011D03*
X175600000Y-174000000D03*
X175600000Y-171500000D03*
X175600000Y-176500000D03*
X175600000Y-179100000D03*
X175600000Y-181600000D03*
D22*
X135375000Y-216328942D02*
X136067820Y-216328942D01*
X143146058Y-218500000D02*
X150375000Y-225728942D01*
X136067820Y-216328942D02*
X138238878Y-218500000D01*
X138238878Y-218500000D02*
X143146058Y-218500000D01*
X150375000Y-225728942D02*
X150375000Y-221028633D01*
X170200000Y-201203633D02*
X170200000Y-185000000D01*
X150375000Y-221028633D02*
X170200000Y-201203633D01*
X177000000Y-192100000D02*
X180792960Y-188307040D01*
X180792960Y-188307040D02*
X188845982Y-188307040D01*
X188845982Y-188307040D02*
X191800000Y-185353022D01*
X191800000Y-160185600D02*
X189116400Y-157502000D01*
X191800000Y-185353022D02*
X191800000Y-160185600D01*
X141700000Y-197760000D02*
X143260000Y-196200000D01*
X141700000Y-208940580D02*
X141700000Y-197760000D01*
X157700000Y-202900000D02*
X157700000Y-195469011D01*
X158675775Y-203875775D02*
X157700000Y-202900000D01*
X156469873Y-226290897D02*
X157906713Y-226290897D01*
X162906713Y-231290897D02*
X165130127Y-231290897D01*
X157906713Y-226290897D02*
X162906713Y-231290897D01*
X152025000Y-222871058D02*
X153050034Y-222871058D01*
X153050034Y-222871058D02*
X156469873Y-226290897D01*
X139918873Y-216790897D02*
X143579127Y-216790897D01*
X143579127Y-216790897D02*
X148579127Y-221790897D01*
X137025000Y-213471058D02*
X139918873Y-216364931D01*
X139918873Y-216364931D02*
X139918873Y-216790897D01*
X173896400Y-152422000D02*
X170522000Y-152422000D01*
X170522000Y-152422000D02*
X168649000Y-150549000D01*
X168649000Y-150549000D02*
X168649000Y-140560000D01*
D23*
X172626400Y-156232000D02*
X173896400Y-157502000D01*
X184120000Y-185600000D02*
X182879989Y-186840011D01*
X173896400Y-160042000D02*
X174994400Y-158944000D01*
X175154400Y-161300000D02*
X173896400Y-160042000D01*
X178526370Y-186840011D02*
X177780000Y-186093641D01*
X175600000Y-158600000D02*
X174994400Y-158600000D01*
X174994400Y-158600000D02*
X173896400Y-157502000D01*
X174994400Y-158944000D02*
X174994400Y-158600000D01*
X182879989Y-186840011D02*
X178526370Y-186840011D01*
X175600000Y-161300000D02*
X175154400Y-161300000D01*
X177780000Y-186093641D02*
X177780000Y-183700000D01*
X172570000Y-156232000D02*
X172626400Y-156232000D01*
X175117245Y-162173654D02*
X174255591Y-161312000D01*
X174255591Y-161312000D02*
X172570000Y-161312000D01*
X180320000Y-167402755D02*
X175117245Y-162200000D01*
X180320000Y-183700000D02*
X180320000Y-167402755D01*
X175117245Y-162200000D02*
X175117245Y-162173654D01*
D22*
X133831511Y-140742511D02*
X130649000Y-137560000D01*
X92549000Y-137560000D02*
X87549000Y-142560000D01*
X130649000Y-137560000D02*
X130466489Y-137742511D01*
X73366489Y-142742511D02*
X57892511Y-142742511D01*
X149649000Y-140560000D02*
X149466489Y-140742511D01*
X130466489Y-137742511D02*
X113831511Y-137742511D01*
X73549000Y-142560000D02*
X73366489Y-142742511D01*
X175600000Y-153682411D02*
X175156811Y-153682411D01*
X168649000Y-140560000D02*
X168466489Y-140742511D01*
X113831511Y-137742511D02*
X111649000Y-135560000D01*
X149466489Y-140742511D02*
X133831511Y-140742511D01*
X111649000Y-135560000D02*
X109649000Y-137560000D01*
X57892511Y-142742511D02*
X55200000Y-140050000D01*
X109649000Y-137560000D02*
X92549000Y-137560000D01*
X149831511Y-140742511D02*
X149649000Y-140560000D01*
X175156811Y-153682411D02*
X173896400Y-152422000D01*
X168466489Y-140742511D02*
X149831511Y-140742511D01*
X87549000Y-142560000D02*
X73549000Y-142560000D01*
X40460000Y-139300000D02*
X50460000Y-139300000D01*
X50460000Y-139300000D02*
X52650000Y-139300000D01*
X52650000Y-139300000D02*
X55200000Y-136750000D01*
X73549000Y-139260000D02*
X69500000Y-139260000D01*
X69460000Y-139300000D02*
X59460000Y-139300000D01*
X69500000Y-139260000D02*
X69460000Y-139300000D01*
X78460000Y-134300000D02*
X88460000Y-134300000D01*
X88460000Y-134300000D02*
X92509000Y-134300000D01*
X92509000Y-134300000D02*
X92549000Y-134260000D01*
X111609000Y-132300000D02*
X111649000Y-132260000D01*
X97460000Y-132300000D02*
X107460000Y-132300000D01*
X107460000Y-132300000D02*
X111609000Y-132300000D01*
X130609000Y-134300000D02*
X130649000Y-134260000D01*
X126460000Y-134300000D02*
X130609000Y-134300000D01*
X116460000Y-134300000D02*
X126460000Y-134300000D01*
X135460000Y-137300000D02*
X145460000Y-137300000D01*
X145460000Y-137300000D02*
X149609000Y-137300000D01*
X149609000Y-137300000D02*
X149649000Y-137260000D01*
X111549000Y-153660000D02*
X113631511Y-155742511D01*
X92889000Y-156000000D02*
X109209000Y-156000000D01*
X54549000Y-160660000D02*
X54631511Y-160742511D01*
X73666489Y-160742511D02*
X73749000Y-160660000D01*
X92549000Y-155660000D02*
X92889000Y-156000000D01*
X109209000Y-156000000D02*
X111549000Y-153660000D01*
X149409000Y-158800000D02*
X149549000Y-158660000D01*
X73749000Y-160660000D02*
X87549000Y-160660000D01*
X168466489Y-158742511D02*
X168549000Y-158660000D01*
X130466489Y-155742511D02*
X130549000Y-155660000D01*
X87549000Y-160660000D02*
X92549000Y-155660000D01*
X54631511Y-160742511D02*
X73666489Y-160742511D01*
X130549000Y-155660000D02*
X133689000Y-158800000D01*
X175234400Y-156300000D02*
X173896400Y-154962000D01*
X113631511Y-155742511D02*
X130466489Y-155742511D01*
X149549000Y-158660000D02*
X149631511Y-158742511D01*
X149631511Y-158742511D02*
X168466489Y-158742511D01*
X173896400Y-154962000D02*
X172247000Y-154962000D01*
X175600000Y-156300000D02*
X175234400Y-156300000D01*
X172247000Y-154962000D02*
X168549000Y-158660000D01*
X133689000Y-158800000D02*
X149409000Y-158800000D01*
X92439000Y-206300000D02*
X92549000Y-206410000D01*
X88460000Y-206300000D02*
X92439000Y-206300000D01*
X78460000Y-206300000D02*
X88460000Y-206300000D01*
X154460000Y-137300000D02*
X164460000Y-137300000D01*
X168609000Y-137300000D02*
X168649000Y-137260000D01*
X164460000Y-137300000D02*
X168609000Y-137300000D01*
X54489000Y-157300000D02*
X54549000Y-157360000D01*
X40460000Y-157300000D02*
X50460000Y-157300000D01*
X50460000Y-157300000D02*
X54489000Y-157300000D01*
X73689000Y-157300000D02*
X73749000Y-157360000D01*
X69460000Y-157300000D02*
X73689000Y-157300000D01*
X59460000Y-157300000D02*
X69460000Y-157300000D01*
X78460000Y-152300000D02*
X88460000Y-152300000D01*
X92489000Y-152300000D02*
X92549000Y-152360000D01*
X88460000Y-152300000D02*
X92489000Y-152300000D01*
X111489000Y-150300000D02*
X111549000Y-150360000D01*
X107460000Y-150300000D02*
X111489000Y-150300000D01*
X97460000Y-150300000D02*
X107460000Y-150300000D01*
X130489000Y-152300000D02*
X130549000Y-152360000D01*
X126460000Y-152300000D02*
X130489000Y-152300000D01*
X116460000Y-152300000D02*
X126460000Y-152300000D01*
X175600000Y-163800000D02*
X175114400Y-163800000D01*
X149466489Y-176742511D02*
X133631511Y-176742511D01*
X149549000Y-176660000D02*
X149466489Y-176742511D01*
X172300612Y-162582000D02*
X169500000Y-165382612D01*
X169500000Y-165382612D02*
X169500000Y-175709000D01*
X73466489Y-178742511D02*
X54631511Y-178742511D01*
X73549000Y-178660000D02*
X73466489Y-178742511D01*
X111549000Y-171660000D02*
X109549000Y-173660000D01*
X168549000Y-176660000D02*
X168466489Y-176742511D01*
X130466489Y-173742511D02*
X113631511Y-173742511D01*
X92549000Y-173660000D02*
X87549000Y-178660000D01*
X169500000Y-175709000D02*
X168549000Y-176660000D01*
X109549000Y-173660000D02*
X92549000Y-173660000D01*
X133631511Y-176742511D02*
X130549000Y-173660000D01*
X130549000Y-173660000D02*
X130466489Y-173742511D01*
X168466489Y-176742511D02*
X149631511Y-176742511D01*
X87549000Y-178660000D02*
X73549000Y-178660000D01*
X175114400Y-163800000D02*
X173896400Y-162582000D01*
X54631511Y-178742511D02*
X54549000Y-178660000D01*
X149631511Y-176742511D02*
X149549000Y-176660000D01*
X113631511Y-173742511D02*
X111549000Y-171660000D01*
X173896400Y-162582000D02*
X172300612Y-162582000D01*
X145460000Y-155300000D02*
X135460000Y-155300000D01*
X145520000Y-155360000D02*
X145460000Y-155300000D01*
X149549000Y-155360000D02*
X145520000Y-155360000D01*
X164460000Y-155300000D02*
X154460000Y-155300000D01*
X164520000Y-155360000D02*
X164460000Y-155300000D01*
X168549000Y-155360000D02*
X164520000Y-155360000D01*
X54489000Y-175300000D02*
X54549000Y-175360000D01*
X50460000Y-175300000D02*
X54489000Y-175300000D01*
X40460000Y-175300000D02*
X50460000Y-175300000D01*
X59460000Y-175300000D02*
X69460000Y-175300000D01*
X69460000Y-175300000D02*
X73489000Y-175300000D01*
X73489000Y-175300000D02*
X73549000Y-175360000D01*
X88460000Y-170300000D02*
X92489000Y-170300000D01*
X78460000Y-170300000D02*
X88460000Y-170300000D01*
X92489000Y-170300000D02*
X92549000Y-170360000D01*
X97460000Y-168300000D02*
X107460000Y-168300000D01*
X107460000Y-168300000D02*
X111489000Y-168300000D01*
X111489000Y-168300000D02*
X111549000Y-168360000D01*
X175600000Y-166400000D02*
X175174400Y-166400000D01*
X92800000Y-191200000D02*
X110009000Y-191200000D01*
X110009000Y-191200000D02*
X111549000Y-189660000D01*
X149631511Y-194742511D02*
X168466489Y-194742511D01*
X113631511Y-191742511D02*
X111549000Y-189660000D01*
X149466489Y-194742511D02*
X133631511Y-194742511D01*
X87340000Y-196660000D02*
X92800000Y-191200000D01*
X175174400Y-166400000D02*
X173896400Y-165122000D01*
X172300612Y-165122000D02*
X173896400Y-165122000D01*
X149549000Y-194660000D02*
X149631511Y-194742511D01*
X54549000Y-196710000D02*
X54581511Y-196742511D01*
X169746480Y-193462520D02*
X169746480Y-184812146D01*
X130466489Y-191742511D02*
X113631511Y-191742511D01*
X73466489Y-196742511D02*
X73549000Y-196660000D01*
X149549000Y-194660000D02*
X149466489Y-194742511D01*
X169746480Y-184812146D02*
X169953520Y-184605106D01*
X168466489Y-194742511D02*
X168549000Y-194660000D01*
X133631511Y-194742511D02*
X130549000Y-191660000D01*
X169953520Y-184605106D02*
X169953520Y-167469092D01*
X169953520Y-167469092D02*
X172300612Y-165122000D01*
X73549000Y-196660000D02*
X87340000Y-196660000D01*
X168549000Y-194660000D02*
X169746480Y-193462520D01*
X54581511Y-196742511D02*
X73466489Y-196742511D01*
X130549000Y-191660000D02*
X130466489Y-191742511D01*
X126460000Y-170300000D02*
X130489000Y-170300000D01*
X116460000Y-170300000D02*
X126460000Y-170300000D01*
X130489000Y-170300000D02*
X130549000Y-170360000D01*
X135460000Y-173300000D02*
X145460000Y-173300000D01*
X145460000Y-173300000D02*
X149489000Y-173300000D01*
X149489000Y-173300000D02*
X149549000Y-173360000D01*
X164460000Y-173300000D02*
X168489000Y-173300000D01*
X168489000Y-173300000D02*
X168549000Y-173360000D01*
X154460000Y-173300000D02*
X164460000Y-173300000D01*
X54439000Y-193300000D02*
X54549000Y-193410000D01*
X40460000Y-193300000D02*
X50460000Y-193300000D01*
X50460000Y-193300000D02*
X54439000Y-193300000D01*
X69460000Y-193300000D02*
X73489000Y-193300000D01*
X59460000Y-193300000D02*
X69460000Y-193300000D01*
X73489000Y-193300000D02*
X73549000Y-193360000D01*
X92489000Y-188300000D02*
X92549000Y-188360000D01*
X78460000Y-188300000D02*
X88460000Y-188300000D01*
X88460000Y-188300000D02*
X92489000Y-188300000D01*
X84016087Y-209742511D02*
X78457489Y-209742511D01*
X171845040Y-167662000D02*
X170407040Y-169100000D01*
X73549000Y-214651000D02*
X73549000Y-214660000D01*
X113749000Y-209860000D02*
X111549000Y-207660000D01*
X135375000Y-216328942D02*
X130749000Y-211702942D01*
X92549000Y-209710000D02*
X84048598Y-209710000D01*
X130749000Y-209860000D02*
X113749000Y-209860000D01*
X54631511Y-214742511D02*
X73466489Y-214742511D01*
X173896400Y-167662000D02*
X171845040Y-167662000D01*
X170407040Y-169100000D02*
X170407040Y-184792960D01*
X175600000Y-168900000D02*
X175134400Y-168900000D01*
X109499000Y-209710000D02*
X92549000Y-209710000D01*
X54549000Y-214660000D02*
X54631511Y-214742511D01*
X170407040Y-184792960D02*
X170200000Y-185000000D01*
X111549000Y-207660000D02*
X109499000Y-209710000D01*
X73466489Y-214742511D02*
X73549000Y-214660000D01*
X175134400Y-168900000D02*
X173896400Y-167662000D01*
X84048598Y-209710000D02*
X84016087Y-209742511D01*
X78457489Y-209742511D02*
X73549000Y-214651000D01*
X130749000Y-211702942D02*
X130749000Y-209860000D01*
X107460000Y-186300000D02*
X111489000Y-186300000D01*
X97460000Y-186300000D02*
X107460000Y-186300000D01*
X111489000Y-186300000D02*
X111549000Y-186360000D01*
X130489000Y-188300000D02*
X130549000Y-188360000D01*
X126460000Y-188300000D02*
X130489000Y-188300000D01*
X116460000Y-188300000D02*
X126460000Y-188300000D01*
X135460000Y-191300000D02*
X145460000Y-191300000D01*
X149489000Y-191300000D02*
X149549000Y-191360000D01*
X145460000Y-191300000D02*
X149489000Y-191300000D01*
X154460000Y-191300000D02*
X164460000Y-191300000D01*
X164460000Y-191300000D02*
X168489000Y-191300000D01*
X168489000Y-191300000D02*
X168549000Y-191360000D01*
X50460000Y-211300000D02*
X54489000Y-211300000D01*
X54489000Y-211300000D02*
X54549000Y-211360000D01*
X40460000Y-211300000D02*
X50460000Y-211300000D01*
X59460000Y-211300000D02*
X69460000Y-211300000D01*
X69460000Y-211300000D02*
X73489000Y-211300000D01*
X73489000Y-211300000D02*
X73549000Y-211360000D01*
X97460000Y-204300000D02*
X107460000Y-204300000D01*
X111489000Y-204300000D02*
X111549000Y-204360000D01*
X107460000Y-204300000D02*
X111489000Y-204300000D01*
X116460000Y-206300000D02*
X126460000Y-206300000D01*
X126460000Y-206300000D02*
X130489000Y-206300000D01*
X130489000Y-206300000D02*
X130749000Y-206560000D01*
X137189034Y-213471058D02*
X137025000Y-213471058D01*
X174549681Y-187853520D02*
X186946480Y-187853520D01*
X175154400Y-174000000D02*
X173896400Y-172742000D01*
X172700000Y-183700000D02*
X172700000Y-186003839D01*
X172700000Y-186003839D02*
X174549681Y-187853520D01*
X175600000Y-174000000D02*
X175154400Y-174000000D01*
X186946480Y-187853520D02*
X189200000Y-185600000D01*
X175240000Y-183700000D02*
X175240000Y-186003839D01*
X175240000Y-186003839D02*
X176636161Y-187400000D01*
X175600000Y-171500000D02*
X175194400Y-171500000D01*
X175194400Y-171500000D02*
X173896400Y-170202000D01*
X184860000Y-187400000D02*
X186660000Y-185600000D01*
X176636161Y-187400000D02*
X184860000Y-187400000D01*
X179040000Y-179940000D02*
X175600000Y-176500000D01*
X175114400Y-176500000D02*
X173896400Y-175282000D01*
X175600000Y-176500000D02*
X175114400Y-176500000D01*
X182860000Y-183700000D02*
X182860000Y-181502000D01*
X182860000Y-181502000D02*
X187810000Y-176552000D01*
X179040000Y-185600000D02*
X179040000Y-179940000D01*
X185400000Y-183700000D02*
X185400000Y-181502000D01*
X175600000Y-179100000D02*
X175174400Y-179100000D01*
X175174400Y-179100000D02*
X173896400Y-177822000D01*
X185400000Y-181502000D02*
X187810000Y-179092000D01*
X176500000Y-180000000D02*
X175600000Y-179100000D01*
X176500000Y-185600000D02*
X176500000Y-180000000D01*
X175134400Y-181600000D02*
X173896400Y-180362000D01*
X187940000Y-183700000D02*
X187940000Y-181762000D01*
X175600000Y-181600000D02*
X175134400Y-181600000D01*
X187940000Y-181762000D02*
X187810000Y-181632000D01*
X190480000Y-183700000D02*
X190480000Y-181725600D01*
X190480000Y-181725600D02*
X189116400Y-180362000D01*
M02*
